<?xml version="1.0" standalone="no"?>
<!DOCTYPE svg PUBLIC "-//W3C//DTD SVG 1.1//EN" "http://www.w3.org/Graphics/SVG/1.1/DTD/svg11.dtd" >
<svg xmlns="http://www.w3.org/2000/svg">
<metadata>
Created by FontForge 20120731 at Wed Jan 20 17:24:43 2016
 By Ads
</metadata>
<defs>
<font id="iconfont" horiz-adv-x="1024" >
  <font-face 
    font-family="iconfont"
    font-weight="500"
    font-stretch="normal"
    units-per-em="1024"
    panose-1="2 0 6 3 0 0 0 0 0 0"
    ascent="896"
    descent="-128"
    x-height="792"
    bbox="-0.266667 -224 1305 896.356"
    underline-thickness="50"
    underline-position="-100"
    unicode-range="U+0078-E699"
  />
<missing-glyph horiz-adv-x="374" 
d="M34 0v682h272v-682h-272zM68 34h204v614h-204v-614z" />
    <glyph glyph-name=".notdef" horiz-adv-x="374" 
d="M34 0v682h272v-682h-272zM68 34h204v614h-204v-614z" />
    <glyph glyph-name=".null" horiz-adv-x="0" 
 />
    <glyph glyph-name="nonmarkingreturn" horiz-adv-x="341" 
 />
    <glyph glyph-name="x" unicode="x" horiz-adv-x="1001" 
d="M281 543q-27 -1 -53 -1h-83q-18 0 -36.5 -6t-32.5 -18.5t-23 -32t-9 -45.5v-76h912v41q0 16 -0.5 30t-0.5 18q0 13 -5 29t-17 29.5t-31.5 22.5t-49.5 9h-133v-97h-438v97zM955 310v-52q0 -23 0.5 -52t0.5 -58t-10.5 -47.5t-26 -30t-33 -16t-31.5 -4.5q-14 -1 -29.5 -0.5
t-29.5 0.5h-32l-45 128h-439l-44 -128h-29h-34q-20 0 -45 1q-25 0 -41 9.5t-25.5 23t-13.5 29.5t-4 30v167h911zM163 247q-12 0 -21 -8.5t-9 -21.5t9 -21.5t21 -8.5q13 0 22 8.5t9 21.5t-9 21.5t-22 8.5zM316 123q-8 -26 -14 -48q-5 -19 -10.5 -37t-7.5 -25t-3 -15t1 -14.5
t9.5 -10.5t21.5 -4h37h67h81h80h64h36q23 0 34 12t2 38q-5 13 -9.5 30.5t-9.5 34.5q-5 19 -11 39h-368zM336 498v228q0 11 2.5 23t10 21.5t20.5 15.5t34 6h188q31 0 51.5 -14.5t20.5 -52.5v-227h-327z" />
    <glyph glyph-name="uniE600" unicode="&#xe600;" 
d="M512 339l249 -249q5 -5 11 -7.5t12 -2.5t12 2.5t10 7.5q10 9 10 22t-10 23l-249 249l249 249q5 5 7.5 11t2.5 12t-2.5 12t-7.5 10q-3 4 -6.5 6t-7.5 3t-8 1t-8 -1t-8 -3t-7 -6l-249 -249l-249 249q-10 10 -23 10t-22 -10q-5 -4 -7.5 -10t-2.5 -12q0 -13 10 -23l249 -249
l-249 -249q-10 -10 -10 -23t9.5 -22.5t22.5 -9.5t23 10z" />
    <glyph glyph-name="uniE601" unicode="&#xe601;" 
d="M294 362l354 353q9 9 21.5 12.5t25 0t21.5 -12.5q14 -14 14 -34t-14 -34l-286 -285l286 -286q14 -14 14 -34t-14 -34t-34 -14t-34 14z" />
    <glyph glyph-name="uniE602" unicode="&#xe602;" 
d="M512 579l354 -353q7 -7 10.5 -16t3.5 -18t-3.5 -18t-10.5 -16t-16 -10.5t-18 -3.5t-18 3.5t-16 10.5l-286 286l-286 -286q-14 -14 -33.5 -14t-34 14t-14.5 34t14 34z" />
    <glyph glyph-name="uniE603" unicode="&#xe603;" 
d="M730 362l-354 -354q-14 -14 -33.5 -14t-34.5 14q-9 9 -12 21.5t0 24.5t12 22l286 286l-286 285q-14 14 -14 34t14.5 34t34 14t33.5 -14z" />
    <glyph glyph-name="uniE604" unicode="&#xe604;" 
d="M512 144l-354 353q-14 15 -14 34.5t14.5 33.5t34 14t33.5 -14l286 -286l286 286q14 14 34 14t34 -14t14 -33.5t-14 -34.5z" />
    <glyph glyph-name="uniE605" unicode="&#xe605;" 
d="M481 189l-172 172q-7 6 -10.5 15t-3.5 18.5t3.5 18.5t10.5 15q14 14 34 14t34 -14l104 -104l211 212q14 14 34 14t34 -14.5t14 -34t-14 -33.5z" />
    <glyph glyph-name="uniE606" unicode="&#xe606;" 
d="M510.5 825q-51.5 0 -101 -11.5t-93 -33.5t-81.5 -52t-68.5 -68.5t-52 -82t-33 -93t-11.5 -100.5q0 -45 9 -88.5t25.5 -83t40.5 -75t54 -65t65.5 -54t74.5 -41t83 -25.5t89 -9q36 0 71 6t67.5 16.5t63.5 26.5t58 36t51 44.5t44 51.5t36 57.5t27 63t16.5 68t5.5 71.5
q0 51 -11.5 100.5t-33 93t-52 82t-68.5 68.5t-81.5 52t-93 33.5t-101 11.5zM510.5 -45q-116.5 0 -215 57.5t-156 156.5t-57.5 215q0 87 34 166.5t91.5 137t137 91.5t166.5 34t166 -34t136.5 -91.5t91.5 -137t34 -166.5q0 -116 -57.5 -215t-156 -156.5t-215 -57.5zM741 552
l-318 -317l-166 166q-2 3 -4.5 4.5t-5 2t-5.5 1t-6 -0.5h-4q-3 -1 -5.5 -2.5t-4.5 -4.5q-7 -7 -7 -17t7 -17l184 -184q3 -4 7.5 -6t9.5 -2q10 0 18 8l335 335q3 3 5 7.5t2 9.5t-2 9.5t-5 7.5q-8 8 -18 8t-17 -8z" />
    <glyph glyph-name="uniE607" unicode="&#xe607;" 
d="M510.5 825q-51.5 0 -101 -11.5t-93 -33.5t-81.5 -52t-68.5 -68.5t-52 -82t-33 -93t-11.5 -100.5q0 -45 9 -88.5t25.5 -83t40.5 -75t54 -65t65.5 -54t74.5 -41t83 -25.5t89 -9q36 0 71 6t67.5 16.5t63.5 26.5t58 36t51 44.5t44 51.5t36 57.5t27 63t16.5 68t5.5 71.5
q0 51 -11.5 100.5t-33 93t-52 82t-68.5 68.5t-81.5 52t-93 33.5t-101 11.5zM510.5 -45q-116.5 0 -215 57.5t-156 156.5t-57.5 215q0 87 34 166.5t91.5 137t137 91.5t166.5 34t166 -34t136.5 -91.5t91.5 -137t34 -166.5q0 -116 -57.5 -215t-156 -156.5t-215 -57.5zM667 552
q-7 8 -17 8t-18 -8l-136 -136l-137 136q-7 8 -17.5 8t-17.5 -7.5t-7 -17.5t7 -17l137 -137l-137 -137q-7 -7 -7 -17.5t7 -17.5q2 -2 4 -3l4 -2q2 -1 4.5 -1.5t4.5 -0.5q5 0 9.5 2t8.5 5l137 137l136 -137q8 -7 18 -7q5 0 9.5 2t7.5 5q7 7 7 17.5t-7 17.5l-137 137l137 137
q3 2 5 5.5t2.5 7.5t0 8t-2.5 7.5t-5 5.5z" />
    <glyph glyph-name="uniE608" unicode="&#xe608;" 
d="M544 352h352q14 0 23 9.5t9 22.5t-9 22.5t-23 9.5h-352v352q0 14 -9.5 23t-22.5 9t-22.5 -9t-9.5 -23v-352h-352q-7 0 -13 -2.5t-10 -7t-6.5 -10t-2.5 -12.5t2.5 -12.5t6.5 -10t10 -7t13 -2.5h352v-352q0 -14 9.5 -23t22.5 -9q9 0 16 4t11.5 11.5t4.5 16.5v352z" />
    <glyph glyph-name="uniE609" unicode="&#xe609;" 
d="M352 563q-6 0 -12 2.5t-10.5 7t-7 10.5t-2.5 12v96q0 13 9.5 22.5t22.5 9.5t22.5 -9.5t9.5 -22.5v-96q0 -5 -1.5 -10t-4.5 -9t-7 -6.5t-9 -4.5t-10 -2zM787 671h-51v-72q0 -34 -16.5 -55.5t-47.5 -21.5t-47.5 21.5t-16.5 55.5v72h-192v-72q0 -34 -16.5 -55.5t-47.5 -21.5
t-47.5 21.5t-16.5 55.5v72h-13q-35 0 -69 -20t-56 -52.5t-22 -67.5v-383q0 -51 45.5 -83.5t101.5 -32.5h512q35 0 59.5 14t37 40t12.5 62v383q0 57 -29.5 98.5t-79.5 41.5zM831 148q0 -18 -4.5 -29.5t-15 -17t-27.5 -5.5h-512q-30 0 -55 13.5t-25 38.5v332h639v-332z
M672 563q13 0 22.5 9.5t9.5 22.5v96q0 14 -9.5 23t-22.5 9t-22.5 -9t-9.5 -23v-96q0 -13 9.5 -22.5t22.5 -9.5zM256 415h128v-96h-128v96zM448 415h128v-96h-128v96zM640 415h128v-96h-128v96zM256 256h128v-96h-128v96zM448 256h128v-96h-128v96zM640 256h128v-96h-128v96z
" />
    <glyph glyph-name="uniE60A" unicode="&#xe60a;" horiz-adv-x="1756" 
d="M906 766q95 0 176 -47.5t128 -128.5t47 -176q0 -57 -17.5 -111t-50 -97t-76 -75.5t-97 -50.5t-110.5 -18q-96 0 -177 47t-128 128.5t-47 176.5q0 71 28 136.5t75 112.5t112 75t137 28zM906 814q-109 0 -201 -53.5t-145.5 -145.5t-53.5 -201t53.5 -201t145.5 -145.5
t200.5 -53.5t200.5 53.5t145.5 145.5t53.5 201q0 54 -14 106t-40 96t-63 80.5t-80.5 62.5t-95.5 40.5t-106 14.5zM1070 326l-188 40v277h48v-238l150 -32z" />
    <glyph glyph-name="uniE60B" unicode="&#xe60b;" 
d="M682 554q-35 34 -79 52t-91 18q-99 0 -169.5 -70.5t-70.5 -169.5t70 -170q23 -23 51 -38.5t58 -23.5t61 -8q99 0 169.5 70.5t70.5 169.5t-70 170zM648 248q-28 -27 -63 -41.5t-73 -14.5q-79 0 -135.5 56t-56.5 136t56 136q28 27 63 41.5t73 14.5q79 0 136 -56
q22 -22 35.5 -50t18 -57t0 -58t-18 -57t-35.5 -50zM536 504h-48v-96h-96v-48h96v-96h48v96h96v48h-96v96z" />
    <glyph glyph-name="uniE60C" unicode="&#xe60c;" 
d="M682 554q-35 34 -79 52t-91 18q-99 0 -169.5 -70.5t-70.5 -169.5t70 -170q23 -23 51 -38.5t58 -23.5t61 -8q99 0 169.5 70.5t70.5 169.5t-70 170zM648 248q-28 -27 -63 -41.5t-73 -14.5q-79 0 -135.5 56t-56.5 136t56 136q28 27 63 41.5t73 14.5q79 0 136 -56
q22 -22 35.5 -50t18 -57t0 -58t-18 -57t-35.5 -50zM392 408h240v-48h-240v48z" />
    <glyph glyph-name="uniE60D" unicode="&#xe60d;" 
d="M821 583h-144q17 14 30 30t19.5 31t7 29.5t-7.5 25.5q-14 22 -50 22q-45 0 -93 -32q-52 -35 -68 -80q-15 45 -67 80q-48 32 -93 32q-36 0 -50 -22t0 -55t49 -61h-130q-18 0 -35.5 -16.5t-17.5 -34.5v-85q0 -9 6.5 -16.5t16 -11.5t20.5 -6v-307q0 -17 11 -30t27.5 -19.5
t35.5 -6.5h469q13 0 23.5 3.5t20.5 17t10 35.5v307h10q17 0 24.5 8t7.5 26v85q0 21 -8 36t-24 15zM607 654q11 7 23.5 12.5t24 8.5t21.5 3q6 0 14 -2q2 -4 -2 -14t-17.5 -26t-33.5 -29q-32 -21 -62 -24h-15l-6 2q-2 4 2 14t17.5 25.5t33.5 29.5zM394 607q-20 13 -33.5 29
t-17.5 26t-3 13q1 1 2 1.5t2.5 1t4.5 0.5h6q32 0 69 -25q20 -13 33.5 -28.5t17.5 -25.5t3 -14q-1 0 -2.5 -0.5t-3.5 -1.5h-17q-30 3 -61 24zM214 541h240q1 -1 3 -1h6h8l2 1h18v-86h-256h-21v86zM256 106v307h235v-320h-203q-6 0 -11.5 1t-10 3t-7.5 4.5t-3 4.5zM768 106
q0 -9 -2 -12q-2 -1 -9 -1h-223v320h234v-307zM811 455h-22h-255v86h26q1 -1 2 -1h4h2h5l3 1h235v-86z" />
    <glyph glyph-name="uniE60E" unicode="&#xe60e;" 
d="M1024 640q0 53 -37.5 90t-90.5 37h-768q-53 0 -90 -37t-37 -90v-512q0 -53 37 -90.5t90 -37.5h768q53 0 90.5 37.5t37.5 90.5v512zM959 127q0 -39 -34 -57q-14 -7 -30 -7h-767q-27 0 -45.5 19t-18.5 45v512q0 27 18.5 45.5t45.5 18.5h767q13 0 25 -5t20.5 -13.5
t13.5 -20.5t5 -25v-512zM160 415h352v-63h-352v63zM160 575h448v-63h-448v63zM160 256h224v-65h-224v65zM704 575h160v-191h-160v191z" />
    <glyph glyph-name="uniE60F" unicode="&#xe60f;" 
d="M896 799h-767q-53 0 -90.5 -37.5t-37.5 -90.5v-384q0 -53 37.5 -90t90.5 -37h767q53 0 90.5 37t37.5 90v384q0 53 -37.5 90.5t-90.5 37.5zM959 287q0 -17 -8 -31.5t-22.5 -23t-32.5 -8.5h-767q-27 0 -46 18.5t-19 44.5v384q0 27 19 46t46 19h767q27 0 45 -19t18 -46v-384
zM896 128h-767q-53 0 -90.5 37.5t-37.5 89.5v-64q0 -52 37.5 -90t90.5 -38h767q53 0 90.5 37.5t37.5 90.5v64q0 -34 -17 -63.5t-46.5 -46.5t-64.5 -17zM896 32h-767q-53 0 -90.5 37.5t-37.5 89.5v-63q0 -53 37.5 -90.5t90.5 -37.5h767q53 0 90.5 37.5t37.5 90.5v63
q0 -53 -37.5 -90t-90.5 -37zM499 592h7q4 0 7.5 -0.5t7 -1.5t6.5 -2.5t5.5 -2.5t4.5 -3l4 -4q15 -14 15 -36q0 -9 6 -15t15 -7q8 1 14.5 7t7.5 15q0 4 -1.5 12.5t-8.5 25t-19 28.5l-6 6q-2 2 -5.5 5t-7 4.5t-7.5 3.5t-8.5 3t-10.5 2t-13 2v16v4q0 3 -0.5 5t-1.5 4t-2.5 3.5
t-3 2.5t-3.5 1.5t-5 0.5t-6 -1t-4.5 -3t-3 -4.5t-2 -6t-0.5 -6.5v-17q-43 -7 -59 -30t-16 -58q-1 -68 91 -80q37 -5 49 -15t12 -29q0 -24 -18 -35q-15 -9 -43 -9q-4 0 -8 0.5t-10 1.5t-11.5 3.5t-11 7t-10 10t-7 14.5t-2.5 20q0 9 -6.5 15t-15 6t-15 -6t-6.5 -15
q0 -42 25 -67t61 -31q-1 -2 -0.5 -3t1 -3t0.5 -3v-21q0 -5 1 -8.5t3 -6.5t5 -5t7 -2q16 0 16 22v21q0 1 0.5 4t0.5 4q28 3 47 15q38 23 38 71q0 74 -98 87q-56 7 -56 37q1 47 55 47z" />
    <glyph glyph-name="uniE610" unicode="&#xe610;" 
d="M827 338h-112l-35 -67h147q17 0 29 -12.5t16 -30t4 -37.5v-133q0 -28 -11 -40.5t-38 -12.5h-279l65 58l-72 173l58 66l-26 36h-89l-27 -38l58 -64l-71 -171l64 -60h-278q-32 0 -57 14t-25 39v133q0 9 3.5 18.5t9.5 18.5t14 17t17 13.5t19 9t19 3.5h147l-35 67h-112
q-27 0 -54.5 -13t-48 -33t-34 -47t-13.5 -54v-133q0 -35 22.5 -63t56 -42.5t71.5 -14.5h597q55 0 86 32.5t31 87.5v133q0 38 -13.5 71t-41 54.5t-62.5 21.5zM714 701q0 27 -10.5 51.5t-28.5 42.5t-42.5 28.5t-51.5 10.5h-135q-55 0 -93.5 -39t-38.5 -94v-165q0 -55 38.5 -94
t93.5 -39h135q27 0 51.5 10.5t42.5 28.5t28.5 42.5t10.5 51.5v165zM644 537q0 -18 -9 -33.5t-24 -24t-33 -8.5h-132q-28 0 -47.5 19.5t-19.5 46.5v165q0 18 9 33.5t24.5 24t33.5 8.5h132q27 0 46.5 -19t19.5 -47v-165z" />
    <glyph glyph-name="uniE611" unicode="&#xe611;" horiz-adv-x="1056" 
d="M528 735q91 0 173.5 -35.5t142.5 -95.5t95.5 -142.5t35.5 -173.5q0 -73 -22.5 -141t-64 -123t-96.5 -96.5t-123 -64t-141 -22.5q-91 0 -173.5 35.5t-142.5 95.5t-95.5 142.5t-35.5 173.5q0 73 22.5 141t64 123t96.5 96.5t123 64t141 22.5zM528 799q-104 0 -198.5 -40.5
t-163 -109t-109 -163t-40.5 -198.5t40.5 -198.5t109 -163t163 -109t198.5 -40.5t198.5 40.5t163 109t109 163t40.5 198.5t-40.5 198.5t-109 163t-163 109t-198.5 40.5zM528 520q32 0 58.5 -13.5t42 -37t15.5 -50.5v-116h15q18 0 30.5 -13t12.5 -31v-160q0 -7 -2 -13.5
t-6 -12t-9.5 -9.5t-12 -6t-13.5 -2h-262q-9 0 -17 3t-13.5 9t-9 14t-3.5 17v160q0 18 12.5 31t30.5 13h15v116q0 53 50 84q31 17 66 17zM467 303h122q1 2 1.5 4.5t0.5 5.5v110q0 19 -18.5 33t-44.5 14t-44.5 -14t-18.5 -33v-110q0 -5 2 -10zM528 99q8 0 14.5 4t10.5 10.5
t4 14.5v23q13 8 21 21t8 29q0 24 -17 41t-41 17t-41 -17t-17 -41q0 -11 3.5 -20.5t10 -17t15.5 -12.5v-23q0 -6 2.5 -11t6 -9t9 -6.5t11.5 -2.5zM528 584q-75 0 -127.5 -48.5t-52.5 -116.5v-65q-27 -13 -42.5 -38.5t-15.5 -56.5v-160q0 -44 31.5 -75.5t75.5 -31.5h262
q44 0 75.5 31.5t31.5 75.5v160q0 31 -15.5 56.5t-42.5 38.5v65q0 68 -52.5 116.5t-127.5 48.5z" />
    <glyph glyph-name="uniE612" unicode="&#xe612;" 
d="M447 766q-88 0 -162.5 -43.5t-118 -118t-43.5 -162.5t43.5 -162.5t118 -118t162.5 -43.5t163 43.5t118 118t43 162.5t-43 162.5t-118 118t-163 43.5zM447 182q-107 0 -183.5 76.5t-76.5 183.5q0 71 35 130.5t95 94.5t130 35q108 0 184 -76t76 -184q0 -113 -83 -190
q-75 -69 -177 -70zM892 56l-144 143q-19 -23 -44 -46l142 -142q10 -10 23 -10t22.5 9.5t9.5 23t-9 22.5z" />
    <glyph glyph-name="uniE613" unicode="&#xe613;" 
d="M512 75q-3 0 -5 0.5t-5 1.5q-8 4 -10.5 12.5t1.5 16.5l267 521l-468 -214l189 -27q16 -2 18 -18l10 -83q2 -9 -3.5 -16t-14.5 -8q-6 -1 -11 1t-8.5 6.5t-4.5 10.5l-8 67l-245 35q-4 1 -8 3.5t-6.5 6t-3.5 8.5q-1 7 2.5 13t9.5 9l590 271q14 6 24.5 -5t3.5 -25l-295 -576
q-6 -11 -19 -11z" />
    <glyph glyph-name="uniE614" unicode="&#xe614;" 
d="M544 61q-169 0 -273 119q-32 37 -51.5 81.5t-25 85t-2.5 84.5t10 76.5t17.5 65t16.5 46t11 22.5q19 50 54 62q30 11 55 -4q1 -1 3 -2q70 -58 110 -97q20 -20 25 -42t0 -36t-14 -24q-1 -1 -4.5 -5.5t-17 -18t-31.5 -32.5q-12 -12 -19.5 -34t-3.5 -46q8 -49 61 -75
q22 -10 44.5 -10.5t39.5 5.5t33.5 16.5t24 17t13.5 12.5q17 33 46 43q11 6 25 4t19.5 -3.5t9.5 -3.5q3 -2 5 -3q13 -12 29 -28t42.5 -50t32.5 -58q4 -14 4 -27.5t-4 -26.5q-3 -8 -10.5 -12.5t-16.5 -1.5q-4 1 -7 3.5t-5 6.5t-2.5 8t0.5 8t1.5 7.5t0.5 7.5t-0.5 8t-1.5 9
q-3 10 -13 25.5t-23.5 31t-27 29.5t-25.5 26q-26 9 -43 -25q-1 -2 -3 -4q-13 -16 -33 -30.5t-49 -27t-59 -11.5t-65 16q-73 35 -85 106q-3 16 -1.5 32.5t6 31.5t12.5 29t18 25q46 45 51 52q16 20 -9 45q-16 15 -41 37.5t-39 34t-25 20.5q-10 4 -19 1q-17 -7 -29 -38
q0 -1 -1 -2q-5 -10 -13 -29t-21.5 -70.5t-16.5 -100.5t13 -109.5t56 -105.5q34 -40 78.5 -64t83.5 -32.5t82.5 -7.5t71.5 6t55 12q20 6 26 -15q2 -8 -2 -15.5t-13 -10.5q-70 -20 -141 -20z" />
    <glyph glyph-name="uniE615" unicode="&#xe615;" 
d="M730 159h-1h-390q-54 0 -84 33q-15 17 -22.5 41.5t-8 35t0.5 17.5v355q0 7 -12 16t-25 14q-5 2 -9 6.5t-4.5 10t1.5 11.5q3 9 11.5 12.5t16.5 0.5q6 -3 13.5 -7t20.5 -12.5t21.5 -22.5t8.5 -29v-356q-2 -41 19 -64q18 -18 52 -18h390q35 -1 52 16q4 4 6 8t3.5 9t1.5 11
v240q0 35 -20 55q-7 8 -17 11.5t-23 3.5h-362q-9 0 -15.5 6.5t-6.5 15.5t6.5 15.5t15.5 6.5h362q44 0 72 -28q14 -15 22 -37.5t8.5 -33t0.5 -16.5v-239q0 -36 -23 -59q-30 -29 -82 -29zM690 425h-323q-9 0 -15.5 6.5t-6.5 15.5t6.5 15.5t15.5 6.5h323q6 0 11 -3t8 -8t3 -11
q0 -9 -6.5 -15.5t-15.5 -6.5zM690 293h-323q-9 0 -15.5 6t-6.5 15q0 6 3 11t8 8t11 3h323q4 0 8 -1.5t7 -4.5t5 -7t2 -9q0 -9 -6.5 -15t-15.5 -6zM258 94zM218 94q0 16 11.5 27.5t28 11.5t28 -11.5t11.5 -27.5t-11.5 -27.5t-28 -11.5t-28 11.5t-11.5 27.5zM811 94zM772 94
q0 16 11 27.5t27.5 11.5t28 -11.5t11.5 -27.5q0 -27 -25 -36q-8 -3 -14 -3q-11 0 -20 5t-14 14t-5 20z" />
    <glyph glyph-name="uniE616" unicode="&#xe616;" horiz-adv-x="1756" 
d="M903 766q95 0 176 -47.5t128.5 -128.5t47.5 -176t-47.5 -176t-128.5 -128.5t-176.5 -47.5t-176.5 47.5t-128 128.5t-47 176q0 57 18 111t50.5 97t75.5 75.5t97 50.5t111 18zM903 814q-109 0 -201 -53.5t-145.5 -145.5t-53.5 -201t53.5 -201t145.5 -145.5t200.5 -53.5
t201 53.5t146 145.5t53.5 201t-53.5 201t-146 145.5t-200.5 53.5zM884 626h48v-264h-48v264zM884 291h48v-88h-48v88z" />
    <glyph glyph-name="uniE617" unicode="&#xe617;" horiz-adv-x="1756" 
d="M1236 522h-43v142v8q0 5 -1.5 12.5t-4.5 13.5t-8 10.5t-12 4.5h-166v43h166q10 0 19.5 -3t17 -8.5t13.5 -13.5t10.5 -18.5t6.5 -22.5t2 -26v-142zM597 522h-43v142q0 35 27.5 63.5t62.5 28.5h144v-43h-144q-9 0 -17.5 -4.5t-15 -11t-10.5 -16t-4 -17.5v-142zM788 74h-144
q-29 0 -49 7.5t-28 20t-10.5 21.5t-2.5 18v168h43v-168q0 -24 47 -24h144v-43zM1167 74h-166v43h166q18 0 22 3.5t4 20.5v168h43v-168q0 -40 -19.5 -53.5t-49.5 -13.5zM554 437h682v-43h-682v43z" />
    <glyph glyph-name="uniE618" unicode="&#xe618;" 
d="M778 148l-160 160q51 63 47.5 145.5t-62.5 140.5q-62 62 -150.5 62t-150.5 -62q-31 -31 -47 -70.5t-16 -80t16 -80.5t47 -70q62 -63 151 -63q37 0 71.5 12.5t63.5 35.5l160 -160zM332 323q-50 50 -50 120.5t50 120.5t121 50q13 0 26.5 -2t26 -6.5t24.5 -10.5t23 -13.5
t20 -17.5q50 -50 50 -120.5t-50 -120.5q-16 -16 -35 -27.5t-41 -17t-44 -5.5q-71 0 -121 50z" />
    <glyph glyph-name="uniE619" unicode="&#xe619;" 
d="M958 591q0 46 -32.5 79t-78.5 33h-671q-47 0 -79.5 -33t-32.5 -79v-446q0 -47 32.5 -79.5t79.5 -32.5h671q18 0 35 5.5t30.5 16t24 24t16 30.5t5.5 36v446zM902 144q0 -23 -16.5 -39.5t-39.5 -16.5h-671q-23 0 -39.5 16.5t-16.5 39.5v447q0 23 16.5 39.5t39.5 16.5h671
q23 0 39.5 -16.5t16.5 -39.5v-447zM203 395h308v-55h-308v55zM203 535h391v-55h-391v55zM203 256h197v-56h-197v56zM678 535h140v-168h-140v168z" />
    <glyph glyph-name="uniE61A" unicode="&#xe61a;" 
d="M768 679h-63v49h-49v-49h-287v49h-48v-49h-48q-57 0 -101 -43t-44 -99v-367q0 -55 43.5 -92.5t101.5 -37.5h495q56 0 92 37t36 93v367q0 58 -36.5 100t-91.5 42zM849 170q0 -24 -10 -42.5t-28.5 -29t-42.5 -10.5h-495q-38 0 -67 23.5t-29 58.5v367q0 24 13.5 46t36 35
t46.5 13h48v-63h48v63h287v-63h49v63h63q35 0 58 -28t23 -66v-367zM273 488h96v-48h-96v48zM273 360h96v-48h-96v48zM273 232h96v-48h-96v48zM465 488h95v-48h-95v48zM465 360h95v-48h-95v48zM465 232h95v-48h-95v48zM656 488h97v-48h-97v48zM656 360h97v-48h-97v48z" />
    <glyph glyph-name="uniE61B" unicode="&#xe61b;" 
d="M125 653h171v-43h-171v43zM125 376h171v-43h-171v43zM125 109h608v-42h-608v42zM615 707q-45 0 -87 -14t-76.5 -39.5t-60 -59.5t-39.5 -76.5t-14 -87.5q0 -38 10 -74t28 -66.5t43.5 -56t56 -43.5t66.5 -28t73 -10q115 0 196.5 81.5t81.5 196.5t-81.5 196t-196.5 81z
M615.5 195q-63.5 0 -118 31.5t-86 85.5t-31.5 118q0 97 69 166t166 69t166 -69t69 -166q0 -64 -31.5 -118t-85.5 -85.5t-117.5 -31.5zM661 505l-46 -45l-45 45l-30 -30l45 -45l-45 -45l30 -30l45 45l46 -45l30 30l-45 45l45 45z" />
    <glyph glyph-name="uniE61C" unicode="&#xe61c;" 
d="M620.5 707q-114.5 0 -196 -81.5t-81.5 -196t81.5 -196t196.5 -81.5q75 0 139 37t101 101t37 139q0 115 -81.5 196.5t-196 81.5zM621 194q-48 0 -91.5 19t-75 50.5t-50 75t-18.5 91t18.5 91t50 75t75 50t91.5 18.5q63 0 117.5 -31.5t85.5 -85.5t31 -118q0 -97 -68.5 -166
t-165.5 -69zM125 648h171v-43h-171v43zM125 371h171v-43h-171v43zM582 369l-90 90l-30 -30l120 -120l190 189l-30 30zM125 104h608v-42h-608v42z" />
    <glyph glyph-name="uniE61D" unicode="&#xe61d;" 
d="M619.5 711q-114.5 0 -196 -81.5t-81.5 -196t81.5 -196t195.5 -81.5q76 0 139.5 37t101 101t37.5 139q0 115 -81.5 196.5t-196 81.5zM619 199q-63 0 -117.5 31.5t-86 85.5t-31.5 117q0 48 19 91.5t50.5 75t75 50t90.5 18.5q97 0 166 -68.5t69 -166t-69 -166t-166 -68.5z
M124 652h170v-43h-170v43zM124 375h170v-43h-170v43zM124 108h608v-42h-608v42zM593 588h43v-192h-43v192zM593 343h43v-64h-43v64z" />
    <glyph glyph-name="uniE61E" unicode="&#xe61e;" 
d="M874 143q0 -6 -2 -9.5t-5.5 -4.5t-7 -1t-7 0.5t-4.5 0.5h-653q-2 0 -9 -0.5t-12 -0.5t-11 1t-9.5 5t-3.5 9v327h384v85h-384v51q0 16 18 25.5t27 9.5h403v42h-403q-34 0 -61 -23.5t-27 -53.5v-463q0 -8 2.5 -15t7 -13t10.5 -10.5t13.5 -8t16.5 -6t18.5 -3.5t19.5 -1h653
q69 0 69 57v242h-43v-242zM790 555v128h-43v-128h-128v-42h128v-128h43v128h127v42h-127zM235 277h299v-42h-299v42z" />
    <glyph glyph-name="uniE61F" unicode="&#xe61f;" 
d="M821 583h-144q17 14 30 30t19.5 31t7 29.5t-7.5 25.5q-14 22 -50 22q-45 0 -93 -32q-52 -35 -68 -80q-15 45 -67 80q-48 32 -93 32q-36 0 -50 -22t0 -55t49 -61h-130q-18 0 -35.5 -16.5t-17.5 -34.5v-85q0 -9 6.5 -16.5t16 -11.5t20.5 -6v-307q0 -17 11 -30t27.5 -19.5
t35.5 -6.5h469q13 0 23.5 3.5t20.5 17t10 35.5v307h10q17 0 24.5 8t7.5 26v85q0 21 -8 36t-24 15zM607 654q11 7 23.5 12.5t24 8.5t21.5 3q6 0 14 -2q2 -4 -2 -14t-17.5 -26t-33.5 -29q-32 -21 -62 -24h-15l-6 2q-2 4 2 14t17.5 25.5t33.5 29.5zM394 607q-20 13 -33.5 29
t-17.5 26t-3 13q1 1 2 1.5t2.5 1t4.5 0.5h6q32 0 69 -25q20 -13 33.5 -28.5t17.5 -25.5t3 -14q-1 0 -2.5 -0.5t-3.5 -1.5h-17q-30 3 -61 24zM214 541h240q1 -1 3 -1h6h8l2 1h18v-86h-256h-21v86zM256 106v307h235v-320h-203q-6 0 -11.5 1t-10 3t-7.5 4.5t-3 4.5zM768 106
q0 -9 -2 -12q-2 -1 -9 -1h-223v320h234v-307zM811 455h-22h-255v86h26q1 -1 2 -1h4h2h5l3 1h235v-86z" />
    <glyph glyph-name="uniE620" unicode="&#xe620;" 
d="M512 725q-71 0 -121 -50t-50 -120.5t50 -120.5t121 -50t121 50t50 120.5t-50 120.5t-121 50zM512 299q-35 0 -79 -7t-90.5 -21t-84.5 -33.5t-62.5 -48t-24.5 -61.5v-85h682v85q0 40 -36.5 74t-91.5 54t-111.5 31.5t-101.5 11.5z" />
    <glyph glyph-name="uniE621" unicode="&#xe621;" 
d="M576 189v53q54 31 91 98t37 140q0 39 -0.5 58.5t-2.5 53t-7 50.5t-14 41t-23 36.5t-34 25.5t-48 18t-63 5t-63 -5t-48 -18t-34 -25.5t-23 -36.5t-14 -41t-7 -50.5t-2.5 -53t-0.5 -58.5q0 -73 37 -140t91 -98v-53q-107 -8 -195 -43.5t-138.5 -91t-50.5 -118.5h896
q0 63 -50.5 118.5t-138.5 91t-195 43.5z" />
    <glyph glyph-name="uniE622" unicode="&#xe622;" 
d="M809 520q0 81 -40.5 149.5t-109.5 108t-151 39.5q-124 0 -212 -87t-88 -210q0 -69 30.5 -130t84.5 -103q-96 -48 -156 -137t-68 -197h45q8 102 69 185.5t154 119.5q74 -35 141 -35q68 0 130 30l31 18l25 16q53 42 84 103t31 130zM508 272q-104 0 -177.5 72.5t-73.5 175.5
q0 51 20 97t53.5 79.5t80 53t97.5 19.5q69 0 127 -33.5t91.5 -90.5t33.5 -125q0 -20 -3 -40t-9 -38.5t-15 -35.5t-20 -32.5t-24.5 -29t-29 -24.5t-33 -20t-36.5 -15.5t-39.5 -9.5t-42.5 -3zM763 244l-1 -1q-3 4 -8 6t-10 2q-28 0 -28 -21q0 -8 4 -14t11 -10
q118 -85 131 -253h55q-6 86 -46.5 162t-107.5 129z" />
    <glyph glyph-name="uniE623" unicode="&#xe623;" 
d="M914 93q0 -68 -41.5 -108t-110.5 -40h-500q-69 0 -110.5 40t-41.5 108q0 30 2 59t8 62.5t15 62t24.5 55.5t35.5 46.5t49 31t63 11.5q5 0 24 -12.5t43 -27.5t62 -27.5t76 -12.5t76 12.5t62 27.5t42.5 27.5t24.5 12.5q34 0 63 -11.5t49 -31t35.5 -46.5t24.5 -55.5t15 -62
t8 -62.5t2 -59zM731 603.5q0 -90.5 -64 -155t-155 -64.5t-155 64.5t-64 155t64 155t155 64.5t155 -64.5t64 -155z" />
    <glyph glyph-name="uniE624" unicode="&#xe624;" 
d="M512 128q-13 0 -22.5 9.5t-9.5 22.5v96q0 13 9.5 22.5t22.5 9.5t22.5 -9.5t9.5 -22.5v-96q0 -13 -9.5 -22.5t-22.5 -9.5zM832 -64h-640q-40 0 -68 28t-28 68v352q0 40 28 68t68 28h640q40 0 68 -28t28 -68v-352q0 -40 -28 -68t-68 -28zM192 416q-13 0 -22.5 -9.5
t-9.5 -22.5v-352q0 -13 9.5 -22.5t22.5 -9.5h640q13 0 22.5 9.5t9.5 22.5v352q0 13 -9.5 22.5t-22.5 9.5h-640zM736 416q-13 0 -22.5 9.5t-9.5 22.5v130q0 78 -61 134t-133 56q-74 0 -132 -52.5t-58 -137.5v-130q0 -13 -9.5 -22.5t-22.5 -9.5t-22.5 9.5t-9.5 22.5v130
q0 76 38 135.5t95 89t121 29.5q21 0 41.5 -4t40.5 -11t39.5 -17.5t36.5 -24t32.5 -29.5t28 -35.5t21 -40t13.5 -44.5t5 -48v-130q0 -13 -9.5 -22.5t-22.5 -9.5z" />
    <glyph glyph-name="uniE625" unicode="&#xe625;" 
d="M832 448h-64v192q0 106 -75 181t-181 75t-181 -75t-75 -181v-192h-64q-26 0 -45 -19t-19 -45v-448q0 -26 19 -45t45 -19h640q26 0 45 19t19 45v448q0 26 -19 45t-45 19zM512 64q-27 0 -45.5 18.5t-18.5 45.5t18.5 45.5t45.5 18.5t45.5 -18.5t18.5 -45.5t-18.5 -45.5
t-45.5 -18.5zM640 448h-256v192q0 53 37.5 90.5t90.5 37.5t90.5 -37.5t37.5 -90.5v-192z" />
    <glyph glyph-name="uniE626" unicode="&#xe626;" 
d="M928 -128h-832q-13 0 -22.5 9.5t-9.5 22.5v512q0 13 9.5 22.5t22.5 9.5h96v128q0 133 93.5 226.5t226.5 93.5t226.5 -93.5t93.5 -226.5v-128h96q13 0 22.5 -9.5t9.5 -22.5v-512q0 -13 -9.5 -22.5t-22.5 -9.5zM704 592q0 73 -56 124.5t-136 51.5t-136 -51.5t-56 -124.5
v-144h384v144z" />
    <glyph glyph-name="uniE627" unicode="&#xe627;" horiz-adv-x="1756" 
d="M903 766q95 0 176 -47.5t128.5 -128.5t47.5 -176t-47.5 -176t-128.5 -128.5t-176.5 -47.5t-176.5 47.5t-128 128.5t-47 176q0 57 18 111t50.5 97t75.5 75.5t97 50.5t111 18zM903 814q-109 0 -201 -53.5t-145.5 -145.5t-53.5 -201t53.5 -201t145.5 -145.5t200.5 -53.5
t201 53.5t146 145.5t53.5 201t-53.5 201t-146 145.5t-200.5 53.5zM884 626h48v-264h-48v264zM884 291h48v-88h-48v88z" />
    <glyph glyph-name="uniE628" unicode="&#xe628;" 
d="M872 -99q28 0 47.5 19.5t19.5 47.5v51q0 28 -19.5 47.5t-47.5 19.5h-742q-28 0 -47.5 -19.5t-19.5 -47.5v-51q0 -28 19.5 -47.5t47.5 -19.5h742zM872 214q28 0 47.5 19.5t19.5 47.5v51q0 28 -19.5 47.5t-47.5 19.5h-742q-28 0 -47.5 -19.5t-19.5 -47.5v-51
q0 -28 19.5 -47.5t47.5 -19.5h742zM872 527q28 0 47.5 19.5t19.5 47.5v51q0 28 -19.5 47.5t-47.5 19.5h-742q-28 0 -47.5 -19.5t-19.5 -47.5v-51q0 -28 19.5 -47.5t47.5 -19.5h742z" />
    <glyph glyph-name="uniE629" unicode="&#xe629;" 
d="M888 598q-6 6 -14.5 8t-16.5 -0.5t-14 -9.5l-427 -454l-233 230q-10 9 -23 9t-22.5 -9.5t-9.5 -23t10 -22.5l256 -253h1q1 -1 7 -4l1 -1l2 -2q3 -1 6 -1.5t6 -0.5q6 0 12 3q1 0 2 1t2 1q5 3 7 5v0l449 479q9 9 9 22.5t-10 22.5z" />
    <glyph glyph-name="uniE62A" unicode="&#xe62a;" 
d="M557 383l266 264q9 9 9 22t-9 23q-6 6 -14.5 8.5t-16.5 0t-15 -8.5l-265 -264l-263 264q-9 9 -22.5 9t-23 -9t-9.5 -22.5t10 -22.5l263 -264l-265 -264q-10 -9 -10 -22.5t9.5 -22.5t22.5 -9q6 0 12 2t11 7l265 264l265 -267q10 -9 23 -9q6 0 12 2.5t11 6.5q9 10 9 23
t-9 23z" />
    <glyph glyph-name="uniE62B" unicode="&#xe62b;" 
d="M672 -16q-20 0 -34 14l-352 352q-14 14 -14 34t14 34l352 352q9 9 21.5 12.5t25 0t21.5 -12.5q14 -14 14 -34t-14 -34l-318 -318l318 -318q14 -14 14 -34t-14 -34t-34 -14z" />
    <glyph glyph-name="uniE62C" unicode="&#xe62c;" 
d="M761 364l1 1t1 2q2 4 3 9t1.5 10t-0.5 10t-2.5 9.5t-4.5 9t-7 7.5l-353 334q-10 9 -22 12t-24.5 -0.5t-21.5 -13.5q-5 -5 -8.5 -12t-4.5 -14.5t0.5 -15t5 -14t9.5 -12.5l317 -299l-316 -305q-14 -13 -14.5 -33t13.5 -35q15 -14 35 -14q19 0 33 13l350 338l1 1v1q1 0 1 1
h1q2 2 5 7q1 2 1 3z" />
    <glyph glyph-name="uniE62D" unicode="&#xe62d;" 
d="M832 736h-640q-28 0 -46 -19.5t-18 -44.5v-448q0 -28 19.5 -46t44.5 -18h256v-64h-96q-14 0 -23 -9t-9 -23t9 -23t23 -9h320q14 0 23 9t9 23t-9 23t-23 9h-96v64h256q28 0 46 19.5t18 44.5v448q0 24 -20 44t-44 20zM832 224h-640v448h640v-448z" />
    <glyph glyph-name="uniE62E" unicode="&#xe62e;" 
d="M320 512zM256 512q0 26 19 45t45 19t45 -19t19 -45t-19 -45t-45 -19t-45 19t-19 45zM704 512zM640 512q0 26 19 45t45 19t45 -19t19 -45t-19 -45t-45 -19t-45 19t-19 45zM512 96q-108 0 -190 72q-23 20 -40 43q-9 12 -16.5 25t-17 33.5t-11.5 24.5q-5 14 1.5 27t17.5 18
q13 5 23 -1.5t15 -17.5q7 -25 32 -64q77 -96 186 -96q54 0 102.5 23.5t76.5 66.5q22 32 32 64q5 13 16.5 18.5t21.5 0.5q14 -5 19.5 -16.5t0.5 -22.5q-7 -32 -45 -83q-22 -34 -57.5 -60.5t-78.5 -40.5t-88 -14zM512 -127q-103 0 -197.5 41t-163 109.5t-109.5 163t-41 197.5
q0 59 13.5 116t39 107.5t60.5 95t79.5 79.5t95 60.5t107.5 39t116 13.5t116 -13.5t107.5 -39t95 -60.5t79.5 -79.5t60.5 -95t39 -107.5t13.5 -116q0 -103 -41 -197.5t-109.5 -163t-163 -109.5t-197.5 -41zM512 827q-90 0 -172.5 -35t-141.5 -94t-94 -141.5t-35 -172.5
t35 -172.5t94 -141.5t141.5 -94t172.5 -35t172.5 35t141.5 94t94 141.5t35 172.5t-35 172.5t-94 141.5t-141.5 94t-172.5 35z" />
    <glyph glyph-name="uniE62F" unicode="&#xe62f;" horiz-adv-x="1000" 
d="M734 156v-1q-1 -1 -3 -3.5t-4 -4.5l-5 -5l-6 -8q-3 -3 -7 -7.5t-8 -7.5l220 -216l36 34zM812 389q0 -78 -29 -148t-78.5 -119.5t-117.5 -78t-143 -28.5q-105 2 -189.5 52.5t-131.5 135.5t-47 186q0 97 49.5 180.5t134.5 132.5t184 49t184.5 -49.5t134.5 -133t49 -179.5z
M442 702q-86 0 -159 -42.5t-115.5 -116t-42.5 -160.5q0 -133 93 -226.5t224 -93.5q86 0 160 43t117.5 116.5t43.5 160.5q0 65 -25.5 124.5t-69 102t-102.5 67.5t-124 25z" />
    <glyph glyph-name="uniE630" unicode="&#xe630;" 
d="M940 -15l-274 274q28 46 39.5 99t6 105.5t-29.5 102.5t-64 90q-46 46 -106.5 70.5t-122 24.5t-122 -24.5t-106.5 -70.5q-62 -62 -84.5 -145t0 -166.5t84.5 -145.5q46 -51 116.5 -74t144 -15.5t134.5 42.5l276 -275q14 -14 27.5 -19t26 0t21 11.5t20 18.5t18.5 20.5
t12.5 21.5t1 27t-18.5 28zM539 280q-63 -62 -150.5 -62t-150 62t-62.5 150t62.5 150t150 62t150.5 -62q30 -31 46 -70.5t16 -79.5t-16 -79.5t-46 -70.5z" />
    <glyph glyph-name="uniE631" unicode="&#xe631;" 
d="M21 567q-11 8 -14 13q-3 6 -3 14v9q0 26 13 41t45 15l823 -1q33 0 46 -14t13 -39l1 -11q0 -9 -2 -13q-2 -3 -16 -14l-409 -246q-10 -4 -24 -11t-20 -8q-6 0 -18 6q-3 1 -6 2.5t-6 3.5l-8 4q-3 2 -7 4zM635 162h-5q-2 0 -4.5 -0.5t-5 -0.5t-4.5 -1t-4 -1.5t-4 -1.5
t-3.5 -2t-3.5 -2q-13 -9 -20.5 -23t-9.5 -31q-1 -9 -2 -17.5t-1 -16.5v-70v-12l1 -11h-138q-66 0 -133 1h-108h-69q-36 1 -59 10t-36 24t-18 35t-5 40v370q0 21 10 26q5 3 11 1.5t14 -6.5q5 -3 18 -12q12 -7 31 -19q9 -5 18 -11t19 -13q9 -5 17.5 -10.5t19.5 -12.5
q19 -12 30 -19q13 -8 17 -10q14 -9 16 -22.5t-3 -23.5t-12 -26q-2 -2 -3 -4.5t-2 -4.5t-2.5 -4.5t-2.5 -5t-2.5 -4.5t-2.5 -4.5t-2 -4.5q-3 -5 -5 -9t-4 -7.5t-4.5 -7.5t-4.5 -8q-8 -15 -11 -23q-5 -14 2 -19q1 -1 3.5 -1.5t5 0t6 2t7.5 3.5q3 2 16 16q13 13 28 30
q23 24 29 31q14 14 19 17q9 8 23.5 11.5t24.5 -2.5q8 -4 19 -12q12 -8 27 -17q27 -18 29 -20l27 -18q4 -2 8.5 -4t8.5 -3.5t9 -2.5q7 -1 13 -1h13q12 1 22 5q5 1 9 3l6 3q2 1 4.5 2.5l7.5 4.5l7 5q7 4 14.5 8.5t16.5 9.5q2 1 4 2.5t4 2.5t4 2.5t4 2.5t3.5 2t3.5 2.5t4 2.5
l4 2q6 4 11.5 7.5t9.5 5.5l126 78q2 1 12 8q6 4 12.5 8t13.5 9q5 3 16.5 10.5t17.5 11.5q23 15 35 22q8 5 15.5 10t15.5 10q6 4 8.5 5.5t6 4t5.5 3.5q19 12 29.5 9.5t10.5 -16.5v-260q-28 23 -55 43q-26 20 -48 34q-22 15 -38.5 10.5t-27.5 -19.5q-10 -15 -16 -35
q-5 -20 -5 -36q0 -10 -1 -18v-4v-2v-4v-2q0 -1 -0.5 -2.5t-0.5 -3.5v-2h-15h-102zM1008 57q6 -5 9.5 -12t3.5 -16t-2.5 -15.5t-7.5 -10.5l-35 -28q-20 -16 -42 -34q-18 -14 -42 -33q-18 -16 -37 -30q-21 -18 -30 -18q-8 1 -8 26v44q0 17 -8.5 28.5t-22.5 11.5h-116
q-14 0 -27.5 9.5t-13.5 25.5v51q0 7 0.5 13t2 10t3 7t3.5 4q5 3 13 4.5t19 1.5h20h6h8h7q12 -1 27 -1h42q20 0 28.5 7t8.5 25v44q0 9 1.5 15t4.5 8q6 5 22 -8q15 -11 37 -29q7 -6 14 -11.5t14.5 -11.5t14.5 -11q11 -9 22 -17.5t22 -17.5q20 -16 39 -31zM1008 57z" />
    <glyph glyph-name="uniE632" unicode="&#xe632;" 
d="M682 328v-113h-48v-129h48v-113l188 177zM551 215v-129h17v129h-17zM584 215v-129h33v129h-33zM967 146q0 -55 -21.5 -104t-58.5 -87q-9 -9 -19 -17t-20.5 -15.5t-22 -14t-23.5 -11.5q-25 -11 -50.5 -16t-53.5 -5q-14 0 -27.5 1t-26.5 4t-26 7t-25 9q-48 21 -85 58
q-37 38 -58 87q-20 49 -20 104q0 57 20 106q21 50 58 86q36 37 85 59q50 21 105 21t104 -21q24 -11 45.5 -25.5t40 -33t33 -40t24.5 -46.5q22 -49 22 -106zM493 394zM970 327v313q0 33 -18 61l-261 -228h3h4q84 0 155.5 -39.5t116.5 -106.5zM910 740q-26 14 -54 14h-685
q-5 0 -11 -0.5t-11.5 -1.5t-11 -3t-10.5 -4t-10 -5l383 -335q36 28 79 45zM457 366l-54 48l-292 -326q28 -18 60 -18h211q-10 39 -10 77q0 126 85 219zM75 701q-4 -7 -7.5 -14t-5.5 -14.5t-3.5 -15.5t-1.5 -17v-456q0 -14 4 -28t11 -27l288 323z" />
    <glyph glyph-name="uniE633" unicode="&#xe633;" 
d="M957 644l-9 12q-2 1 -3.5 2t-3.5 2t-4 1.5t-4 0.5h-4q-5 0 -9 -1l-836 -259q-4 -1 -7 -3t-5 -4.5t-4 -5.5t-3 -6t-1 -7q-1 -20 16 -28l289 -140l-4 -136q-1 -8 3.5 -15.5t11.5 -11.5q7 -3 15 -3q9 0 16 5l132 69h1l4 4q2 2 4 4.5t3 5t1 5.5q2 12 -5 22q-4 6 -10.5 9.5
t-13.5 3.5q-9 0 -17 -5l-84 -38l3 98q1 20 -16 28l-241 116l723 221l-75 -573l-189 113q-3 2 -7 3t-8 1q-5 0 -10 -1.5t-9 -5t-7 -7.5q-6 -11 -3 -23q1 -3 2.5 -6.5t4.5 -6.5t6 -5l230 -136q7 -4 15 -4q7 0 13 3q15 7 17 23l84 665q1 7 -2 14zM837 479q9 9 9 21.5t-9 21.5
q-2 2 -4.5 4t-5.5 3t-6 1.5t-6 0.5q-12 0 -21 -9l-304 -260l-1 -1q-9 -9 -9 -21.5t9 -21.5t22 -9t22 9z" />
    <glyph glyph-name="uniE634" unicode="&#xe634;" 
d="M523 577q-119 0 -204 -85t-85 -204t85 -204t204 -85t204 85t85 204q0 59 -23 112.5t-62 92t-92 61.5t-112 23zM523 23q-72 0 -133 35.5t-96.5 96.5t-35.5 133q0 110 77.5 187.5t187.5 77.5t187.5 -77.5t77.5 -187.5q0 -72 -35.5 -133t-96.5 -96.5t-133 -35.5zM492 245
q0 -6 -1.5 -12.5t-2.5 -9.5t-5 -10t-4 -9q-8 -16 -10 -39q-1 -8 -3 -15t-5.5 -13.5t-8 -12t-10.5 -10.5q-9 -9 -22 -14.5t-30 -5.5q11 6 8 20q-1 2 -1.5 4t-2 3.5t-2.5 3t-2.5 4t-3.5 5.5q-7 14 -7.5 29.5t9.5 36.5q14 22 38 29.5t48 -3.5q0 2 -2 6.5t-3 6.5q-11 18 -31 21
q-6 1 -11.5 0t-10 -2.5t-11 -2.5t-13.5 0q-19 2 -34 14q-9 8 -15 19q-5 8 -6 20q-1 2 -1 4v4v4q0 2 0.5 4t0.5 4v4q1 8 -0.5 14.5t-4.5 11.5q-7 12 -18 18q-3 2 -6.5 3.5t-7 2t-7.5 1.5h-1h1q35 20 74 15q14 -1 26.5 -5.5t24 -12t22.5 -17.5q2 -2 4.5 -5t4.5 -5.5t4 -5.5
t3.5 -6t3.5 -6t3 -5.5t2 -4.5q6 -14 10.5 -24t10.5 -28.5t6 -27.5zM753 383q-35 20 -75 15q-41 -5 -72 -35q-5 -5 -10.5 -12t-8.5 -13.5t-6 -12.5q-6 -14 -10.5 -24t-10.5 -28.5t-6 -27.5q0 -5 0.5 -9.5t2.5 -9t3 -7.5t3.5 -7.5t3.5 -7.5q4 -8 6.5 -17t3.5 -22
q2 -16 8.5 -28.5t18.5 -22.5q9 -9 22 -14.5t30 -5.5q-11 6 -8 20q1 4 5.5 10.5t6.5 9.5q7 14 7.5 29.5t-9.5 36.5q-14 22 -38 29.5t-48 -3.5q1 6 5 13q6 9 13 14t18 7q9 1 22 -2.5t24 -2.5q19 2 34 14q9 8 15 19q4 7 6 20q1 2 1 4v4v4q0 2 -0.5 4t-0.5 4v4q-1 4 -1 8l2 6
q0 4 1.5 6.5t2.5 5.5q6 12 18 18q9 6 21 7v0zM523 357v0q7 0 12 5.5t5 12.5t-5 12t-12 5v0q-5 0 -9 -2t-6.5 -6t-2.5 -9q0 -7 5.5 -12.5t12.5 -5.5zM554 211q-3 4 -5 9t-4 12q-4 17 3 34q8 16 7 29q-1 17 -20 34q-2 2 -4 4.5t-4 5.5t-3 6q0 1 -1 1v0q-1 0 -1 -1
q-2 -4 -5 -8.5t-6 -7.5q-19 -17 -20 -34v-3v-4q0 -2 1 -4v-4l2 -4q0 -2 1 -4.5t3 -5.5q7 -17 3 -34q-2 -7 -4 -12t-5 -9q-1 -2 -2 -3.5t-2 -3.5t-2 -3.5t-2 -4.5v-4q-1 -3 -1.5 -6t-0.5 -6q-1 -13 4.5 -23t13.5 -18q22 -20 22 -55q0 -2 1 -3v0q1 1 1 3q0 35 22 55
q19 19 18 41q0 3 -0.5 6t-1.5 6v4q-1 3 -2 4.5t-2 3.5t-2 3.5t-2 3.5z" />
    <glyph glyph-name="uniE635" unicode="&#xe635;" 
d="M942 -27q0 -18 -12.5 -30.5t-30 -12.5t-30 12.5t-12.5 30.5v1v1v1q0 104 -71 178v1q-12 12 -12 29t11.5 28.5t28.5 11.5q9 0 16.5 -3t12.5 -9q47 -46 73 -108t26 -130v-1zM605 232h-1q-105 0 -179 -75t-74 -181v-2v-1q0 -12 -5.5 -21.5t-15.5 -15.5t-21 -6
q-18 0 -30.5 12.5t-12.5 30.5v1q0 101 55 184t144 124q-24 20 -42 46t-28 57.5t-10 65.5q0 90 64 154.5t155 64.5t155 -64.5t64 -155t-64 -154.5t-154 -64zM604 590q-38 0 -70 -18.5t-50.5 -50.5t-18.5 -70q0 -58 40.5 -98.5t98.5 -40.5t98.5 40.5t40.5 98.5t-40.5 98.5
t-98.5 40.5zM345 552q-35 -10 -57.5 -39t-22.5 -66q0 -31 16 -56.5t43 -39.5t30 -45q1 -12 -1 -23.5t-10 -22.5t-21 -15q-71 -19 -117 -76.5t-48 -130.5v-1v-4q0 -16 -11 -27t-26.5 -11t-26.5 11t-11 27v1v0q0 93 49.5 165t130.5 105q-33 26 -52.5 63.5t-19.5 80.5
q0 54 30 98.5t79 66.5q22 9 37 1.5t19 -24.5q3 -12 0.5 -20.5t-6.5 -13.5z" />
    <glyph glyph-name="uniE636" unicode="&#xe636;" 
d="M528.5 -49q-134.5 0 -230 95t-95.5 230q0 103 59 187q58 82 151 117q7 2 13 1t11.5 -5t7.5 -10q3 -10 -1 -19t-13 -13q-80 -30 -129 -101t-49 -157q0 -114 80.5 -195t195 -81t195 81t80.5 195q0 86 -49 157t-129 101q-9 4 -13.5 13t-0.5 18.5t13 14t19 0.5
q93 -35 150 -117q59 -84 59 -187q0 -135 -95 -230t-229.5 -95zM528.5 333q-15.5 0 -26.5 11t-11 26v255q0 7 1.5 12.5t5 10.5t8.5 8.5t10.5 5t11.5 1.5q16 0 27 -11t11 -27v-255q0 -15 -11 -26t-26.5 -11z" />
    <glyph glyph-name="uniE637" unicode="&#xe637;" 
d="M707 -35q-84 0 -143 59t-59 143q0 55 27 101.5t73.5 73.5t101.5 27q84 0 143 -59t59 -143q0 -93 -71 -153q-57 -49 -131 -49zM707 279q-46 0 -79 -33t-33 -79t33 -78.5t79 -32.5t79 32.5t33 78.5q0 15 -4.5 29.5t-11.5 27t-17.5 22.5t-22.5 17.5t-26.5 11.5t-29.5 4z
M509 896q-75 -4 -140 -42.5t-106 -101.5t-48 -138q-4 -39 1.5 -76t19 -70.5t34.5 -63t48 -53.5q-32 -19 -60 -44t-50.5 -54t-40 -62.5t-29 -69.5t-17.5 -74.5t-6 -78.5v-93h460v102h-358q3 112 63.5 200.5t161.5 115.5l58 16h2l1 1v57l-56 22q-68 28 -104.5 92t-23.5 138
q5 32 20 61.5t37.5 52t51.5 37.5t61 21q98 17 172 -46.5t74 -160.5q0 -36 -12 -70.5t-35 -62.5l78 -65q71 86 71 198q0 87 -44 160.5t-120 114.5t-164 37zM885 -128l-150 160l74 69z" />
    <glyph glyph-name="uniE638" unicode="&#xe638;" 
d="M651 31h-278q-23 0 -43.5 9t-35.5 24t-24 36t-9 43v278q0 23 9 43.5t24 35.5t35.5 24t43.5 9h278q46 0 79 -33t33 -79v-278q0 -46 -33 -79t-79 -33zM373 494q-12 0 -23 -3.5t-20 -10.5t-15.5 -16t-10.5 -20t-4 -23v-278q0 -30 21.5 -51t51.5 -21h278q10 0 19.5 2.5
t17.5 7t14.5 11.5t11 15t7.5 17.5t3 18.5v278q0 15 -6 28.5t-15.5 23t-23 15.5t-28.5 6h-278zM675 494q-8 0 -13.5 5.5t-5.5 14.5v40q0 59 -42.5 101t-101.5 42t-101.5 -42t-42.5 -101v-40q0 -4 -1.5 -8t-4 -6.5t-6 -4t-7.5 -1.5q-8 0 -14 5.5t-6 14.5v40q0 50 24.5 92
t66.5 66.5t92 24.5q76 0 129.5 -53.5t53.5 -129.5v-40q0 -9 -6 -14.5t-14 -5.5zM511.5 141q-20.5 0 -35 14.5t-14.5 35.5v93q-29 23 -29 61q0 32 23 55.5t56 23.5t56 -23.5t23 -55.5q0 -18 -8 -34.5t-22 -27.5v-92q0 -21 -14.5 -35.5t-35 -14.5zM512 384q-16 0 -28 -11.5
t-12 -27.5q0 -23 19 -34l10 -6v-114q0 -5 3 -8t7.5 -3t7.5 3t3 8v114l10 5q20 12 20 35q0 16 -12 27.5t-28 11.5z" />
    <glyph glyph-name="uniE639" unicode="&#xe639;" 
d="M588 32q-16 0 -19 15q-7 27 -22.5 43.5t-34.5 16.5t-34.5 -16.5t-22.5 -43.5q-2 -8 -9 -12t-15 -2q-59 13 -111 46q-7 4 -8.5 12t2.5 15q14 24 14.5 46.5t-12.5 35.5q-12 13 -34 13q-23 0 -48 -15l-4 -2q-2 -1 -4 -1h-5q-2 0 -4 1l-4 2q-2 1 -3.5 2.5t-2.5 3.5
q-7 11 -12.5 21.5t-10.5 21.5t-9.5 22t-8 23t-5.5 23q-2 8 2 15t12 9q27 7 43.5 22.5t16.5 34.5q0 12 -7.5 23.5t-21 20t-31.5 13.5q-8 2 -12 9t-2 15q6 29 17.5 57t28.5 54q4 7 12 9t15 -3q25 -15 48 -15q9 0 18 3t16 10q7 6 10 15.5t3 20t-4 22.5t-11 24q-3 4 -3 9.5
t2.5 10t6.5 7.5q52 33 111 46q8 2 15 -2t9 -12q3 -13 9 -24.5t13.5 -19t16.5 -12t18 -4.5q19 0 34.5 16.5t22.5 43.5q2 8 9 12t15 2q8 -1 16.5 -3.5t16.5 -5.5l16 -6q8 -3 16 -6.5t16 -7.5l14 -8q8 -4 16 -9q7 -4 8.5 -12t-2.5 -15q-9 -16 -12.5 -31.5t-1 -28.5t11.5 -22
q12 -13 34 -13q23 0 48 15q2 2 4.5 2.5t5 0.5t5 -0.5t5 -1.5t4.5 -3t3 -4q33 -52 46 -111q2 -8 -2 -15t-12 -9q-18 -5 -31.5 -13.5t-21 -20t-7.5 -23.5q0 -19 16.5 -34.5t43.5 -22.5q8 -2 12 -9t2 -15q-13 -59 -46 -111q-4 -7 -12 -8.5t-15 2.5q-12 7 -24.5 11t-23.5 4
q-22 0 -34 -13q-7 -6 -10 -15.5t-3 -20t4 -22.5t11 -24q4 -7 2.5 -15t-8.5 -12q-52 -33 -111 -46q-3 -1 -5 -1zM512 147q29 0 53 -19t37 -52q34 10 65 27q-15 32 -11.5 62.5t23.5 51.5q20 19 51 22.5t63 -10.5q8 16 15 32.5t12 32.5q-22 9 -38 22.5t-24.5 31t-8.5 36.5
q0 29 19 53t52 37q-10 33 -27 65q-21 -10 -42 -11.5t-39.5 4.5t-32.5 19q-20 21 -23.5 51.5t11.5 62.5q-16 8 -32.5 15t-32.5 12q-13 -33 -37 -52t-53 -19t-53 19t-37 52q-33 -10 -65 -27q15 -32 11.5 -62.5t-23.5 -51.5q-20 -19 -51 -22.5t-63 10.5q-17 -32 -27 -65
q22 -9 38 -22.5t24.5 -31t8.5 -36.5q0 -29 -19 -53t-52 -37q10 -33 27 -65q21 10 42 11.5t39.5 -4.5t32.5 -19q10 -11 16 -24t7.5 -27.5t-1.5 -30.5t-10 -32q32 -17 65 -27q13 33 37 52t53 19zM512 240q-59 0 -101.5 42.5t-42.5 101.5t42.5 101.5t101.5 42.5q39 0 72 -19.5
t52.5 -52.5t19.5 -72q0 -59 -42.5 -101.5t-101.5 -42.5zM512 488q-43 0 -73.5 -30.5t-30.5 -73.5q0 -21 8.5 -40t22.5 -33t33 -22.5t40 -8.5q43 0 73.5 30.5t30.5 73.5q0 28 -14 52t-38 38t-52 14z" />
    <glyph glyph-name="uniE63A" unicode="&#xe63a;" 
d="M1024 768q0 -14 -9.5 -23t-22.5 -9h-960q-13 0 -22.5 9t-9.5 23q0 13 9.5 22.5t22.5 9.5h960q9 0 16 -4.5t11.5 -12t4.5 -15.5zM1024 384q0 -14 -9.5 -23t-22.5 -9h-960q-13 0 -22.5 9t-9.5 23q0 13 9.5 22.5t22.5 9.5h960q9 0 16 -4.5t11.5 -12t4.5 -15.5zM1024 0
q0 -14 -9.5 -23t-22.5 -9h-960q-13 0 -22.5 9t-9.5 23q0 13 9.5 22.5t22.5 9.5h960q13 0 22.5 -9.5t9.5 -22.5z" />
    <glyph glyph-name="uniE63B" unicode="&#xe63b;" 
d="M861 286q0 -24 -17 -41.5t-41 -17.5h-583q-16 0 -29 8t-21 21.5t-8 29.5v28q0 8 2 15.5t6 14t9.5 12t11.5 9t13.5 6t15.5 2.5h583q24 0 41 -17.5t17 -41.5v-28zM526 650q24 0 41 -17.5t17 -40.5v-584q0 -23 -17 -40.5t-41 -17.5h-29q-24 0 -41 17.5t-17 40.5v584
q0 23 17 40.5t41 17.5h29z" />
    <glyph glyph-name="uniE63C" unicode="&#xe63c;" 
d="M217 729l637 -643l-45 -45l-637 643zM170 85l637 643l45 -45l-637 -643z" />
    <glyph glyph-name="uniE63D" unicode="&#xe63d;" 
d="M810 622l-238 -238l238 -238l-60 -60l-238 238l-238 -238l-60 60l238 238l-238 238l60 60l238 -238l238 238z" />
    <glyph glyph-name="uniE63E" unicode="&#xe63e;" 
d="M512 42q140 0 241 101t101 241t-101 241t-241 101t-241 -101t-101 -241t101 -241t241 -101zM512 810q176 0 301 -125t125 -301t-125 -301t-301 -125t-301 125t-125 301t125 301t301 125zM554 598v-172h172v-84h-172v-172h-84v172h-172v84h172v172h84z" />
    <glyph glyph-name="uniE63F" unicode="&#xe63f;" 
d="M902 300q0 -5 -3 -9l-7 -6l-234 -202v1q10 6 10 17v104q16 13 17 33v124q0 21 -17 33v106q0 7 -4 12l229 -198l6 -6q3 -4 3 -9zM850 145v-208q0 -21 -10.5 -39.5t-28.5 -29t-40 -10.5h-518q-11 0 -21 3t-19 8t-16 12t-12 16t-8 19t-3 21v726q0 33 23 56t56 23h518
q33 0 56 -23t23 -56v-205l-70 64v141q0 9 -9 9h-518q-10 0 -10 -9v-726q0 -9 10 -9h356l3 -3l2 3h157q4 0 6.5 2.5t2.5 6.5v144zM685 362v-124q0 -21 -17 -33v190q5 -4 9 -9t6 -11t2 -13zM668 205v-104q0 -11 -10 -17l1 116q5 2 9 5zM668 395v-190q-4 -3 -9 -5v199
q5 -1 9 -4zM668 501v-106q-4 3 -9 4v118l5 -4q4 -5 4 -12zM664 513l-5 4v-118q-7 3 -13 3h-29v99q0 6 3.5 11t9.5 8t13 3q10 0 18 -7q2 -1 3 -3zM659 399v-199q-4 -1 -7 -1.5t-6 -0.5h-29v204h29q3 0 6.5 -0.5t6.5 -2.5zM659 200l-1 -116q-7 -5 -15 -5q-6 0 -10.5 1.5
t-7.5 4.5q-8 7 -8 16v97h29q6 0 13 2zM617 402v-204h-204q-16 0 -27.5 11.5t-11.5 28.5v124q0 17 11.5 28.5t27.5 11.5h204z" />
    <glyph glyph-name="uniE640" unicode="&#xe640;" 
d="M1024 473l-502 -501l-26 4l-4 26l502 502zM83 385h-11h11zM832 142v-290h-768v469h558v64h-475h-16h-59h-15q-15 0 -28.5 -6.5t-21 -18t-7.5 -24.5v-498q0 -14 7.5 -25.5t21 -18t28.5 -6.5h782q15 0 28.5 6.5t21 18t7.5 25.5v304h-64zM273 768q-81 -43 -133 -116.5
t-64 -157.5t12 -173l62 2q-41 112 1 224t149 169q58 31 122 36t122 -13t108.5 -58.5t80.5 -97.5l52 27q-36 68 -95.5 116t-128 69.5t-144.5 15t-144 -42.5z" />
    <glyph glyph-name="uniE641" unicode="&#xe641;" 
d="M512 480q-80 0 -136 -56t-56 -136t56 -136t136 -56t136 56t56 136t-56 136t-136 56zM512 160q-53 0 -90.5 37.5t-37.5 90.5t37.5 90.5t90.5 37.5t90.5 -37.5t37.5 -90.5t-37.5 -90.5t-90.5 -37.5zM960 384h-76q-14 52 -41 99l54 54q19 19 18.5 45.5t-18.5 44.5l-46 46
q-12 12 -28.5 16.5t-33 0t-28.5 -16.5l-54 -54q-15 9 -31 16.5t-33.5 13.5t-34.5 11v76q0 27 -18.5 45.5t-45.5 18.5h-64q-27 0 -45.5 -18.5t-18.5 -45.5v-76q-52 -14 -99 -41l-54 54q-12 12 -28.5 16.5t-33 0t-28.5 -16.5l-46 -46q-19 -19 -18.5 -45t18.5 -45l54 -54
q-9 -15 -16.5 -31t-13.5 -33t-11 -35h-76q-27 0 -45.5 -18.5t-18.5 -45.5v-64q0 -27 18.5 -45.5t45.5 -18.5h76q14 -52 41 -99l-54 -54q-19 -19 -18.5 -45.5t18.5 -44.5l46 -46q19 -19 45 -19t45 19l54 54q47 -27 99 -41v-76q0 -27 18.5 -45.5t45.5 -18.5h64q18 0 32.5 8.5
t23 23.5t8.5 32v76q52 14 99 41l54 -54q19 -19 45.5 -18.5t44.5 18.5l46 46q19 19 19 45t-19 45l-54 54q27 47 41 99h76q27 0 45.5 18.5t18.5 45.5v64q0 27 -18.5 45.5t-45.5 18.5zM960 256h-130q-4 -48 -22.5 -91t-47.5 -79l91 -92l-45 -45l-92 91q-36 -29 -79 -47.5
t-91 -22.5v-130h-64v130q-96 9 -170 70l-92 -91l-45 45l91 92q-61 74 -70 170h-130v64h130q9 96 70 170l-91 92l45 45l92 -91q36 29 79 47.5t91 22.5v130h64v-130q96 -9 170 -70l92 91l45 -45l-91 -92q61 -74 70 -170h130v-64z" />
    <glyph glyph-name="uniE642" unicode="&#xe642;" 
d="M512 480q-74 0 -126.5 -53t-52.5 -127q0 -49 24 -90t65.5 -65t89.5 -24q74 0 126.5 52.5t52.5 126.5q0 37 -14 70t-38 57t-57 38.5t-70 14.5zM512 171q-21 0 -40.5 6.5t-35.5 18.5t-28 28t-18.5 35.5t-6.5 40.5q0 53 38 91t91 38t91 -38t38 -91q0 -26 -10 -50
t-27.5 -41.5t-41.5 -27.5t-50 -10zM903 432h-21l-3 7v1l-1 1q-2 6 -4 11l-4 10l-3 6l15 16q4 4 8 8.5t7 9.5l6 10q3 5 5 10l4 12q2 5 3 11t1.5 12t0.5 12q0 12 -2.5 23.5t-7 22t-11 20.5t-14.5 19l-17 16q-35 36 -85 36q-24 0 -45.5 -9.5t-38.5 -26.5l-16 -15l-6 3
q-10 5 -23 10l-7 2v22q0 50 -35 85t-85 35h-24q-49 0 -84.5 -35t-35.5 -85v-22l-6 -2q-13 -5 -23 -10l-7 -3l-15 15q-17 17 -39 26.5t-46 9.5t-46 -9.5t-39 -26.5l-17 -16q-35 -36 -35 -85q0 -16 4 -31.5t12 -29t19 -24.5l16 -16l-3 -6q-4 -9 -9 -21q0 -1 -1 -2l-2 -7h-22
q-50 0 -85 -35t-35 -85v-24q0 -49 35 -84.5t85 -35.5h22l2 -7q1 -1 1 -2q5 -11 9 -21l3 -6l-16 -16q-35 -35 -35 -84.5t35 -85.5l17 -16q9 -9 18.5 -15.5t20.5 -11t22.5 -7t23.5 -2.5q50 0 85 36l15 15l7 -3q10 -5 23 -9l6 -3v-22q0 -49 35.5 -84.5t84.5 -35.5h24
q50 0 85 35.5t35 84.5v22l7 3q13 4 23 9l6 3l16 -15q17 -17 38.5 -26.5t45.5 -9.5t46 9.5t39 26.5l17 16q35 36 35 85.5t-35 84.5l-15 16l3 6q0 2 1 4l2 4q1 2 2 4.5t1.5 4.5t1.5 5q1 0 1 1l3 7h21q50 0 85 35.5t35 84.5v24q0 33 -16 60.5t-43.5 43.5t-60.5 16zM973 288
q0 -7 -1 -13q-1 -2 -2 -5v-1v-1l-2 -6l-3 -6l-1 -1v-1q-1 -2 -2 -3q-1 -2 -2.5 -4t-3.5 -4v-1q-1 -1 -2 -1q-3 -4 -8 -8h-1q-8 -6 -17 -9.5t-18 -4.5h-1h-1q-3 -1 -5 -1h-59q-12 -49 -40 -95l42 -42q17 -17 20 -40v-1q0 -3 0.5 -6t0.5 -5q0 -1 -1 -1v-1v-1q0 -6 -1 -10
q0 -1 -1 -3v-1l-1 -2q-1 -4 -2 -6t-3 -5v-1q0 -1 -0.5 -1t-0.5 -1l-2 -3q-4 -6 -9 -11l-16 -17q-2 -1 -3.5 -2.5t-3.5 -3t-4 -2.5v-1q-1 0 -4 -2h-1l-1 -1q-3 -2 -5.5 -3t-6.5 -2h-1v0q-1 0 -1 -1h-4l-9 -2h-1h-2h-1h-1q-4 0 -9 1h-1q-6 0 -11.5 2t-10.5 4.5t-9.5 5.5
t-8.5 7l-42 42q-46 -28 -95 -40v-59q0 -2 -1 -5v-1q-2 -20 -13 -35l-1 -1q-1 -2 -2.5 -3.5t-2.5 -3t-3 -2.5l-1 -1h-1l-7 -6q-1 -1 -2 -1.5t-2 -0.5q0 -1 -1 -1q-4 -2 -7 -3q-2 -1 -6 -2l-1 -1h-1q-3 -1 -4 -1q-3 -1 -5 -1t-4.5 -0.5t-4.5 -0.5h-24q-3 0 -6.5 0.5t-6.5 1.5
q-2 0 -4 1h-1h-1l-1 1q-4 1 -6 2l-6 3h-1l-1 1q-2 1 -3 2q-4 2 -8 5v1q-1 1 -2 1q-4 4 -8 9v1q-12 15 -14 35v1v5v59q-49 12 -96 40l-42 -42q-16 -16 -39 -19h-1q-5 -1 -9 -1h-3h-2v0q-3 0 -5.5 0.5t-4.5 1.5h-3l-1 1h-1h-1l-6 2l-6 3l-1 1h-1q-2 2 -4 3q-6 3 -10 8l-17 17
q-5 5 -9 11q-1 1 -2 3q0 1 -1 2v1q-2 3 -3 5t-2 6v2q-1 0 -1 1q-1 2 -1 3q-1 4 -1 10v1v2v3v4v4v1q4 24 20 40l42 42q-28 46 -40 95h-59q-2 0 -5 1h-1q-20 2 -36 14h-1l-8 8q-1 0 -1 1l-1 1l-6 8v1q-1 1 -1 2l-1 1l-1 1l-3 6l-1 6l-1 1v1q-1 3 -1 5q-2 6 -2 13v24q0 7 2 14
v2q0 1 1 2v1v1h1l1 6q1 3 3 6l1 1q0 1 1 1q1 2 1 4q2 2 3 3.5t3 3.5l1 1q0 1 1 1l8 8q1 0 1 1q5 3 11 6t12 5t13 2h1l5 1h59q12 49 40 95l-42 42q-8 8 -13 18.5t-7 21.5v1q-1 6 0 11v3q0 6 1 10q0 1 0.5 1.5t0.5 1.5t1 1v2l2 6l3 6l1 1v1q1 2 2 3q4 6 9 11l17 17q4 5 10 9
l4 2h1l1 1l6 3q2 1 6 2h1q1 0 2 1l3 1q4 0 10 1h2h3h2h4h2q1 0 2 -1q23 -3 39 -19l42 -42q47 28 96 40v59v5v1q2 20 14 36v0l8 9l2 1v1l8 6q1 0 3 1l1 1h1l6 4q1 0 2.5 0.5t3.5 0.5l1 1h1q3 1 5 1q7 2 13 2h24q7 0 14 -2q1 0 4 -1v0h1l1 -1q4 -1 6 -1q3 -1 7 -4q1 0 1 -1
q2 -1 3 -1l8 -6l1 -1l1 -1q4 -4 8 -9h1q11 -16 13 -36v-1q1 -3 1 -5v-59q24 -6 48 -16t47 -24l42 42q8 8 18 13t22 6l1 1h4h5h2h2h1q2 0 4.5 -0.5t4.5 -0.5l4 -1q0 -1 1 -1h1q4 -1 6.5 -2t5.5 -3l1 -1h1q3 -1 4 -2q6 -4 11 -9l16 -17q2 -1 4 -3l2 -4l3 -3l2 -4l1 -1v-2
q2 -3 3 -5t2 -6l1 -2v-1q1 -2 1 -3q1 -3 1 -5v-5q1 -2 1 -3q0 -5 -1 -11v-1q-1 -8 -3.5 -15t-6.5 -13t-10 -12l-42 -42q28 -46 40 -95h59q2 0 5 -1h1q10 -1 19 -4.5t17 -8.5q0 -1 1 -1l4 -4l4 -4q1 0 1 -0.5t1 -0.5v-1l2 -2q1 -1 2 -3l2 -2l2 -4v-1l1 -1q2 -3 3 -6
q1 -2 2 -6v-1v-1q1 -3 2 -4q0 -4 0.5 -7.5t0.5 -6.5v-24z" />
    <glyph glyph-name="uniE643" unicode="&#xe643;" horiz-adv-x="1025" 
d="M512 -128q-104 0 -197.5 38.5t-165.5 110.5t-110.5 165.5t-38.5 197.5q0 52 10 102t28.5 96t46.5 87.5t64 77.5q72 72 165.5 110.5t197.5 38.5q41 0 81.5 -6t78.5 -18.5t73.5 -30.5t68.5 -41.5t61 -52.5q72 -72 110.5 -165.5t38.5 -197.5t-38.5 -197.5t-110.5 -165.5
t-165.5 -110.5t-197.5 -38.5zM512 836q-93 0 -177 -35.5t-144 -95.5t-95.5 -144t-35.5 -177q0 -125 59.5 -229t163.5 -163.5t229 -59.5q93 0 177 35.5t144 95.5t95.5 144t35.5 177q0 125 -59.5 229t-163.5 163.5t-229 59.5zM500 58q-38 0 -64.5 26.5t-26.5 63.5v3q-1 1 -2 1
l-2 -2q-26 -26 -64 -26q-18 0 -34.5 6.5t-29.5 19.5l-10 10q-27 27 -27 64.5t27 64.5l2 1q-1 2 -1 3h-3q-38 0 -64.5 26.5t-26.5 63.5v15q0 38 26.5 64.5t64.5 26.5h2l1 2l-1 2q-27 26 -27 64t28 64l10 10q12 13 29 20t35 7q38 0 64 -27l2 -2q1 0 2 0.5t2 1.5v2q0 18 7.5 35
t19.5 29t29 19.5t35 7.5h15q24 0 45 -12.5t33 -33t12 -45.5v-3h1l2 -1l3 2q26 26 63 26q38 0 64 -27l11 -10q26 -26 26 -64q0 -18 -7 -34.5t-19 -29.5l-2 -2q1 -2 1 -3h2q13 0 25.5 -3.5t23 -10t18.5 -15.5q24 -27 20 -61v-14q0 -37 -26.5 -63.5t-63.5 -26.5h-3l-1 -3l2 -1
q26 -27 26 -64q0 -10 -1.5 -18.5t-5 -16.5t-8.5 -15.5t-11 -14.5l-10 -10q-27 -26 -65 -26q-9 0 -17.5 1.5t-17 5t-15.5 8.5t-14 11l-1 2q-1 -1 -3 -1v-3q0 -18 -7 -35t-19 -29t-29 -19t-35 -7h-15zM498 119q1 -1 4 -1h15h3l1 1q3 1 5 1v0h1l4 4h3l1 1l3 4q5 6 6 13v52l12 3
q13 3 26.5 9t28.5 14l10 7l36 -36l2 -2q1 -1 2.5 -2t3 -1.5t3.5 -1t4 -0.5h8h1q1 0 2.5 0.5t2.5 0.5h1l2 1l2 2h2l3 3l1 1l1 1l10 8l2 3v12h5h1v0v2v4v3q-2 9 -8 15l-35 36l6 11q8 13 14 26.5t9 27.5l3 12h52q7 1 13 5l1 1l1 1l3 3h1v1v0l1 1l2 6l1 1v2q0 1 1 2v1v1v4v14v4
l-1 2v2v2l-2 2l-2 2v3v1l-1 1l-3 2l-1 1l-1 1q-2 1 -3.5 2t-3.5 1.5t-3.5 1t-3.5 0.5h-52l-3 12q-6 27 -23 55l-5 9l30 39v1q6 6 8 15v8v1v1l-1 5l-1 1l-3 3v3q-1 0 -3 2l-11 11l-1 1h-11v5q-1 0 -2 1h-2h-7q-10 -2 -15 -8l-36 -35l-11 6q-26 17 -54 23l-12 3v52q-1 8 -6 13
l-3 5l-1 1h-4l-3 3l-1 1q-3 0 -5 1h-4h-15h-4q-3 -1 -5 -1v0q-2 -2 -4 -3l-3 -1h-1h-1v-1l-3 -5q-5 -5 -6 -13v-52l-12 -3q-26 -6 -55 -23l-10 -6l-36 35q-6 6 -15 8h-8h-1q-3 -1 -5 -2h-1l-3 -3h-2q-1 0 -3 -3l-11 -10q0 -1 -1 -1.5t-1 -2.5q-1 -3 -3 -6v-1l-2 -5v-2v-4v-3
q2 -10 8 -16l36 -35l-7 -11q-8 -13 -14 -26.5t-9 -27.5l-3 -12h-52q-4 -1 -7 -2t-6 -3l-1 -1l-2 -1l-3 -3l-1 -1q0 -4 -2 -8h-1v-2v-2l-1 -1v-5v-15v-4q1 -2 1 -5h1l1 -2l2 -2v-4l1 -1q1 -2 2 -2l2 -1v-1q7 -4 14 -5h52l3 -13q6 -26 23 -54l6 -11l-35 -35q-6 -7 -8 -15v-8
v-1q2 -3 2 -6l1 -2l2 -2v-2l1 -2l2 -2l10 -11q1 -1 3 -2h11v-5h2h1h1h8q3 0 5.5 1t5 2.5t4.5 3.5l35 36l11 -7q8 -5 17.5 -9.5t18.5 -8t18 -5.5l13 -3v-52q0 -6 4 -12l1 -1l1 -1l3 -3l1 -1h4l3 -4h1q3 0 5 -1zM509 261q-53 0 -90.5 37.5t-37.5 90.5q0 17 4.5 33t13 30.5
t20.5 26.5q37 38 90 38q35 0 64.5 -17.5t46.5 -47t17 -63.5q0 -17 -4.5 -33.5t-12.5 -31t-20 -26.5q-19 -18 -42 -27.5t-49 -9.5zM509 454q-27 0 -46 -19t-19 -45.5t19 -45.5t46 -19t46 19t19 45.5t-19 45.5t-46 19z" />
    <glyph glyph-name="uniE644" unicode="&#xe644;" 
d="M807 -58h-42h-546q-34 0 -59 23t-25 57v42v316v42q0 33 24 56t58 24h44v0v38v83v2q0 1 1 1q0 49 20 93t53.5 75.5t80 50.5t97.5 19q104 0 177.5 -70t73.5 -170v0h-3v-1v-1q0 -17 -12 -28.5t-30 -11.5q-11 0 -20.5 5.5t-15.5 14.5t-6 20v1q0 3 0.5 5.5t1.5 6.5
q-5 62 -52.5 105t-113.5 43q-69 0 -118 -46.5t-50 -112.5v-1v-121h463q34 0 58 -23t25 -55v-403q0 -21 -11 -39.5t-30.5 -29t-42.5 -10.5zM807 22v63v-63h-49h49zM807 422v-27v27zM723 421l39 1h-457h-1h-2h-26l27 -1q-35 0 -52 -6t-24.5 -22.5t-7.5 -51.5l1 81h-1v-401
l511 1q46 0 61.5 15.5t15.5 61.5v251q-1 44 -18 57.5t-66 13.5zM219 103q0 -51 16.5 -66.5t67.5 -15.5l-83 1z" />
    <glyph glyph-name="uniE645" unicode="&#xe645;" 
d="M832 -128h-637q-32 0 -58.5 17t-42 46.5t-15.5 64.5v320q0 53 34 90.5t82 37.5v96q0 72 25 137t67.5 112t101.5 75t124 28q52 0 100.5 -18t88 -50.5t69 -75.5t45.5 -97t16 -111v-2h-1q0 -13 -8.5 -21.5t-20 -8.5t-19.5 8.5t-9 21.5v2q0 119 -76.5 203.5t-184.5 84.5
t-184 -84.5t-76 -203.5v-96h579q48 0 82 -37.5t34 -90.5v-320q0 -35 -15.5 -64.5t-42.5 -46.5t-58 -17zM890 320q0 17 -8 32t-21.5 23.5t-28.5 8.5h-637q-24 0 -41 -18.5t-17 -45.5v-320q0 -17 7.5 -32t21 -23.5t29.5 -8.5h637q24 0 41 18.5t17 45.5v320zM542 134v-102
q0 -13 -8.5 -22.5t-20.5 -9.5t-20.5 9.5t-8.5 22.5v102q-17 7 -30 20t-20.5 31.5t-7.5 38.5q0 26 12 48t32 35t43 13q36 0 61.5 -28t25.5 -68q0 -20 -7.5 -38.5t-20.5 -31.5t-30 -20zM513 256q-12 0 -20.5 -9.5t-8.5 -22.5t8.5 -22.5t20.5 -9.5t20.5 9.5t8.5 22.5
q0 24 -20 31q-5 1 -9 1z" />
    <glyph glyph-name="uniE646" unicode="&#xe646;" 
d="M647 431q39 31 61.5 76t22.5 96q0 26 -5.5 50.5t-16.5 46t-26 41t-34 34.5t-40.5 25.5t-46 16.5t-50.5 6q-91 0 -155 -64.5t-64 -155.5q0 -51 22.5 -96t61.5 -76q-68 -27 -120 -77t-81.5 -118.5t-29.5 -144.5v-73q0 -15 11 -25.5t26 -10.5h658q15 0 26 10.5t11 25.5v73
q0 114 -64 206.5t-167 133.5zM511.5 750q60.5 0 103.5 -43t43 -104q0 -29 -11.5 -56t-31 -47t-46.5 -31.5t-57 -11.5t-57 11.5t-46.5 31.5t-31 47t-11.5 56q0 61 42.5 104t103 43zM805 55h-586v36q0 121 86 207t207 86t207 -86t86 -207v-36zM267 418l2 7q0 3 1 4q0 4 -1 9v2
v2q0 1 -1 2q0 2 -2 5q-3 5 -5 9h-1l-1 1q-4 5 -11 8q-30 13 -47.5 40t-17.5 60q0 38 23.5 68t60.5 38q15 4 22.5 17t4 27.5t-16.5 22.5t-27 5q-62 -15 -101 -65t-39 -113q0 -70 47 -123q-101 -52 -140 -160q-17 -48 -17 -99v-57q0 -15 10.5 -26t26 -11t26 11t10.5 26v57
q0 50 21 94t58.5 75t86.5 43q9 1 16.5 6.5t11.5 14.5zM867 444q47 53 47 123q0 30 -10 59t-27.5 52t-43 40.5t-54.5 24.5q-10 3 -19.5 0.5t-16 -9.5t-9.5 -16.5t-0.5 -19t9.5 -16.5t17 -9q36 -10 58.5 -39.5t22.5 -66.5q0 -33 -17.5 -60t-47.5 -40q-7 -3 -12 -8v-1h-1l-5 -9
l-1 -1l-1 -4l-2 -2v-2l1 -2q-1 -5 -1 -9q0 -1 1 -3v-1q0 -1 1 -2l1 -5q4 -9 11.5 -14.5t16.5 -6.5q73 -18 119.5 -77.5t46.5 -134.5v-57q0 -10 4.5 -18.5t13 -13.5t18.5 -5q15 0 26 11t11 26v57q0 83 -42.5 152.5t-114.5 106.5z" />
    <glyph glyph-name="uniE647" unicode="&#xe647;" 
d="M258 74q-48 0 -83.5 3.5t-70.5 12t-54 25t-19 41.5q0 27 25 55.5t68.5 50.5t93.5 33q9 2 12 12q2 6 0.5 12t-6.5 11l-1 1q-17 17 -29 40.5t-18.5 50t-6.5 53.5q0 64 35.5 105.5t90.5 41.5q27 0 50.5 -11t40 -30.5t26 -46.5t9.5 -59q0 -42 -15 -81t-41 -65q-9 -10 -5 -22
q3 -10 12 -13q61 -12 111 -42q6 -4 8 -11.5t-2 -13.5q-3 -5 -7 -7t-9 -2t-10 3q-43 26 -99 37q-15 4 -25.5 14t-14.5 24q-10 33 14 59q14 14 24 33.5t16 42t6 44.5q0 32 -11.5 57t-31.5 39t-46 14q-39 0 -64 -30.5t-25 -79.5q0 -34 12.5 -66.5t32.5 -52.5l1 -2q1 0 1 -1
q5 -6 8.5 -13t5 -14t1.5 -14.5t-2 -15.5q-10 -31 -40 -38q-46 -9 -83.5 -28.5t-55.5 -39t-18 -34.5q0 -4 1.5 -7.5t7 -8t14 -8t23 -7.5t34 -7t47.5 -5t63 -2q7 0 12.5 -5.5t5.5 -13.5q0 -5 -2.5 -9.5t-7 -6.5t-9.5 -2zM634 -74q-38 0 -69.5 1t-65.5 2.5t-61 5.5t-53.5 9.5
t-45.5 13.5t-34 18.5t-22.5 25t-7.5 32.5q0 55 74 109.5t179 75.5q5 1 9.5 4.5t7.5 8t5 10.5q3 10 0.5 20t-10.5 19q-1 0 -1 1q-34 35 -53.5 87.5t-19.5 108.5q0 42 12.5 79t34.5 62.5t53 40t68 14.5q74 0 120.5 -55t46.5 -141q0 -22 -3.5 -45t-10 -44.5t-15.5 -41t-21 -37
t-25 -30.5q-16 -18 -9 -38q5 -19 22 -23q105 -21 179.5 -75.5t74.5 -109.5q0 -28 -20.5 -48t-52 -31.5t-81 -18t-96.5 -8.5t-109 -2zM569 303q29 -32 17 -72q-3 -9 -8 -17t-11 -14t-14 -10.5t-17 -6.5q-97 -20 -160.5 -66.5t-63.5 -82.5q0 -71 321.5 -71t321.5 71
q0 16 -15.5 37.5t-43.5 42.5t-71.5 40t-93.5 29q-38 9 -50 48q-4 13 -3 26t6.5 25.5t14.5 22.5q30 30 47.5 77t17.5 96q0 34 -9.5 64t-26.5 50.5t-41.5 32.5t-52.5 12q-58 0 -94.5 -44.5t-36.5 -114.5q0 -32 8 -64.5t22.5 -60t33.5 -47.5q1 -1 2 -3z" />
    <glyph glyph-name="uniE648" unicode="&#xe648;" 
d="M512 42q140 0 241 101t101 241t-101 241t-241 101t-241 -101t-101 -241t101 -241t241 -101zM512 810q176 0 301 -125t125 -301t-125 -301t-301 -125t-301 125t-125 301t125 301t301 125zM622 554l60 -60l-110 -110l110 -110l-60 -60l-110 110l-110 -110l-60 60l110 110
l-110 110l60 60l110 -110z" />
    <glyph glyph-name="uniE649" unicode="&#xe649;" horiz-adv-x="1000" 
d="M499 755h29q80 -3 148 -31q49 -19 92 -50t77.5 -71t58.5 -87q45 -88 47 -190v-16q-2 -101 -46 -188q-14 -29 -32.5 -55.5t-41 -49.5t-47.5 -43q-79 -62 -176 -84q-33 -7 -80 -10h-29q-57 3 -103 16q-126 35 -212 134q-59 67 -87 153q-19 60 -21 127v16q2 123 68 226
q71 112 191 165q25 12 52.5 20t55.5 12.5t56 5.5zM416 662q-35 -43 -61 -118q11 -3 63 -10q49 -5 78 -6v96v95q-16 -4 -31 -12.5t-26.5 -19.5t-22.5 -25zM531 528q14 1 27 1.5t26.5 1.5t26.5 2.5t26 4.5q9 1 18 2.5t17 3.5q-31 89 -75 135q-31 32 -66 40v-95v-96zM381 698
q-95 -33 -163 -107q47 -24 103 -39q33 100 87 154q-2 -1 -4 -1t-4 -1t-3.5 -1.5t-4 -1t-4 -1t-4 -1.5t-3.5 -1zM620 706l4 -4q3 -3 5.5 -6t4.5 -5.5t4.5 -5.5t4.5 -6q10 -14 19.5 -29.5t17.5 -31.5t14.5 -32t11.5 -34q28 7 53.5 17t49.5 22q-38 42 -86.5 71.5t-102.5 43.5z
M195 564q-79 -102 -83 -229h175q1 96 24 184q-64 17 -116 45zM716 519q23 -88 25 -184h44h43h45h43q-5 128 -83 229q-51 -28 -117 -45zM322 335h58h58h58v158q-11 1 -21.5 1t-21.5 1l-22 2q-11 1 -21.5 2.5t-21.5 3t-21.5 3.5t-21.5 4q-21 -82 -23 -175zM531 493v-158h88h87
q-2 93 -24 175q-36 -8 -74 -12t-77 -5zM112 300q5 -127 83 -228l12 6q6 3 13 6l12 6l14 6l12 4q7 3 14 5l12 4l14 4q6 2 13 4q-11 44 -17.5 90t-6.5 93h-175zM322 300q2 -93 23 -175q36 8 74 12t77 5v54v50v54h-87h-87zM531 300v-158q80 -1 151 -17q23 86 24 175h-110h-65z
M741 300q-2 -94 -25 -183q32 -8 61 -19.5t56 -25.5q78 101 83 228h-88h-87zM355 91q31 -88 76 -135q30 -32 65 -39v95v95q-75 -1 -141 -16zM531 107v-95v-95q24 5 44 20t37 36q34 44 60 118q-7 2 -16.5 4t-15 2.5t-17.5 2.5t-15 2q-16 2 -26 2.5t-24.5 1.5t-26.5 1zM218 44
q79 -85 190 -115q-54 55 -87 154q-54 -13 -103 -39zM706 83q-33 -99 -86 -154q110 30 189 115q-23 13 -49 22.5t-54 16.5z" />
    <glyph glyph-name="uniE64A" unicode="&#xe64a;" 
d="M956 -53h-887q-7 0 -10 6.5t2 11.5l303 359q3 4 7.5 4t8.5 -3l132 -108l133 112l4 2q2 1 4 0.5t4 -1.5l4 -2l304 -363q4 -5 1 -11.5t-10 -6.5zM92 -31h841l-282 336l-131 -111q-7 -6 -14 0l-132 108zM992 -52q-5 0 -8 4l-319 380l-2 4q-1 2 -0.5 4t1.5 4t2 3l319 270
q3 2 6 2.5t6 -1.5q6 -2 6 -9v-650q0 -4 -2 -6.5t-5 -4.5h-2h-2zM689 337l292 -348v596zM513 231q-4 0 -7 2l-477 402q-3 2 -4 5t0 7q3 7 11 7h954q3 0 6 -2t4 -5.5t0 -6.5t-3 -5l-477 -402q-2 -1 -3.5 -1.5t-3.5 -0.5zM65 632l448 -376l447 376h-895zM32 -52h-4q-3 2 -5 4.5
t-2 6.5v650q0 7 6 9q3 2 6.5 1.5t5.5 -2.5l319 -270q8 -7 1 -15l-319 -380q-3 -4 -8 -4zM43 585v-596l292 349z" />
    <glyph glyph-name="uniE64B" unicode="&#xe64b;" 
d="M870 467h-717q-21 0 -38.5 -10t-28 -28t-10.5 -38v-461q0 -32 22.5 -54.5t54.5 -22.5h717q31 0 53.5 22.5t22.5 54.5v461q0 31 -22.5 53.5t-53.5 22.5zM128 -70v451l226 -226h-1l-225 -226v1zM165 416h693l-347 -347zM390 119l121 -122l123 122l215 -214h-674zM671 155
h-2l226 226v-451z" />
    <glyph glyph-name="uniE64C" unicode="&#xe64c;" 
d="M896 684h-768q-53 0 -90.5 -37.5t-37.5 -90.5v-512q0 -53 37.5 -90.5t90.5 -37.5h768q53 0 90.5 37.5t37.5 90.5v512q0 53 -37.5 90.5t-90.5 37.5zM928 620l-416 -320l-416 320h832zM64 44v512l288 -224l-285 -306q-3 9 -3 18zM114 -18l289 307l109 -82l105 83l293 -308
q-2 -1 -200 -1h-396q-198 0 -200 1zM960 44q0 -5 -1 -9.5t-2 -8.5l-285 306l288 224v-512z" />
    <glyph glyph-name="uniE64D" unicode="&#xe64d;" 
d="M530 456h239l102 120l-102 119h-239v68h-34v-68h-307v-239h307v-34h-239l-103 -119l103 -120h239v-341h34v341h307v239h-307v34zM223 490v171h530l73 -85l-73 -86h-530zM803 388v-171h-530l-74 86l73 85h531zM257 627h170v-34h-170v34zM598 354h171v-35h-171v35z" />
    <glyph glyph-name="uniE64E" unicode="&#xe64e;" 
d="M512 812q-104 0 -199 -40.5t-163.5 -109t-109 -163.5t-40.5 -199t40.5 -199t109 -163.5t163.5 -109t199 -40.5t199 40.5t163.5 109t109 163.5t40.5 199q0 188 -122 332q-116 136 -292 171q-49 9 -98 9zM947 316h-168q-1 35 -5.5 65t-11.5 53.5t-20 58.5q9 4 17 8
t16.5 8.5t14 8t14 10t12.5 9.5t14.5 11t14.5 12q51 -57 75 -112.5t27 -131.5zM494 -135q-15 13 -27.5 27.5t-24 33.5t-18 32t-18.5 39t-18 38l12 4q9 3 11.5 3.5t9.5 2.5t10 3t9.5 2.5t10 2t9.5 1.5t11 1.5t11.5 1t13.5 0.5v-192h-2zM530 735q46 -38 82.5 -88t61.5 -110
q-3 -1 -8 -3q-20 -6 -29 -9t-23.5 -7t-28.5 -5.5t-31 -1.5l-26 224h2zM584 730q66 -11 129 -43.5t110 -77.5q-5 -4 -15.5 -12.5t-15 -12t-13.5 -9.5t-15 -9.5t-15 -8.5t-19 -9q-5 13 -13 26.5t-15 24.5t-18.5 24.5t-18.5 22.5t-21 23t-20 20.5t-21 21t-19 19.5zM496 735
v-224q-24 1 -45.5 5t-32.5 7t-42 14q3 8 10.5 26t11 25.5t10.5 23.5t11 24t11.5 21.5t13.5 22t14 19t17 19.5t19 17h1h1zM320 548q-29 12 -52.5 26t-49.5 35q105 101 222 121q-37 -38 -67.5 -84t-52.5 -98zM363 482l47 -16q13 -4 36.5 -8t49.5 -5v-137h-168q1 33 5.5 61
t11 49.5t18.5 55.5zM496 258v-143q-19 -1 -33 -2.5t-30.5 -5.5t-25 -6.5t-32.5 -10.5q-4 10 -15 34.5t-13.5 32.5t-8.5 26t-7.5 35t-2.5 40h168zM440 -130q-119 20 -211 99q49 34 103 55q42 -88 108 -154zM528 -135l26 192q7 0 13 -0.5t11.5 -1t11.5 -1.5t9.5 -1.5t10 -2
t9 -2.5t10 -3t10 -2.5t11.5 -3.5l12 -4q-13 -25 -27.5 -48.5t-31 -45t-35 -40.5t-38.5 -36h-1h-1zM718 24q16 -6 27.5 -14.5t24.5 -20.5t25 -20q-92 -79 -211 -99q6 7 33 33t40.5 40t32 37t28.5 44zM675 90q-31 10 -43 13.5t-33 7t-45 4.5v143h167q-1 -64 -26 -122
q-3 -5 -7 -16q-9 -19 -13 -30zM554 316v137q26 1 49.5 5t37 8.5t45.5 15.5q12 -34 18.5 -55.5t11 -49.5t5.5 -61h-167zM196 560q56 -44 112 -67q-19 -53 -27.5 -90t-10.5 -87h-193q2 72 31.5 125.5t87.5 118.5zM77 258h193q1 -20 3 -37.5t4 -29t8 -28.5t8.5 -24t12 -29
t13.5 -31q-30 -12 -58.5 -27.5t-55.5 -34.5q-28 27 -43 43.5t-33 40.5t-27.5 45t-16.5 50t-8 62zM819 17q-12 8 -27.5 22t-29 23.5t-31.5 16.5q4 10 10 24.5t9.5 22t8 19t7 19.5t5 19.5t4 22t3 24t1.5 28.5h168q-1 -41 -10 -74t-28 -62.5t-37.5 -50t-52.5 -54.5z" />
    <glyph glyph-name="uniE64F" unicode="&#xe64f;" 
d="M510 751q-91 0 -174 -35.5t-143 -95.5t-95.5 -143t-35.5 -174t35.5 -174t95.5 -143t143 -95.5t174 -35.5q73 0 141.5 22.5t123.5 64t96.5 96.5t64.5 123.5t23 141.5q0 91 -35.5 174t-96 143t-143.5 95.5t-174 35.5zM665 -63q-37 -15 -75.5 -23t-79.5 -8q-81 0 -154 31
q-71 30 -126 85h-1q37 86 113.5 136.5t169.5 50.5q91 0 168 -50.5t114 -133.5l-1 -1l-2 -2q-55 -55 -126 -85zM512 280q-53 0 -90.5 37.5t-37.5 90t37.5 90t90.5 37.5t90.5 -37.5t37.5 -90.5q0 -34 -17 -63.5t-46.5 -46.5t-64.5 -17zM830 68q-20 38 -48.5 70.5t-64.5 57.5
q-8 6 -16 11t-16.5 9.5t-17 8.5t-17.5 7l-16 8q-9 3 -18 5.5t-18 4.5q42 24 67.5 65.5t25.5 91.5q0 75 -52.5 127.5t-126.5 52.5t-126.5 -52.5t-52.5 -127.5q0 -50 25.5 -91.5t67.5 -65.5q-31 -7 -60 -20t-56 -32q-76 -52 -117 -133q-30 39 -49 84q-31 73 -31 154t31 155
q31 71 86 126t126 85q73 31 154 31q27 0 53.5 -3.5t51.5 -10.5t50 -17q23 -10 45 -23t42.5 -28.5t38.5 -33.5q27 -28 48.5 -59.5t36.5 -66.5q31 -74 31 -155t-31 -154q-18 -44 -46 -81z" />
    <glyph glyph-name="uniE650" unicode="&#xe650;" 
d="M529 439h235l101 118l-101 117h-235v67h-34v-67h-302v-235h302v-34h-235l-101 -116l101 -119h235v-335h34v335h302v235h-302v34zM227 473v167h521l72 -83l-72 -84h-521zM797 372v-168h-521l-72 85l72 83h521zM260 607h168v-34h-168v34zM596 338h168v-33h-168v33z" />
    <glyph glyph-name="uniE651" unicode="&#xe651;" 
d="M851 575h-676q-28 0 -48 -20t-20 -48v-414q0 -28 20 -48t48 -20h676q28 0 48 20t20 48v414q0 19 -9 34.5t-25 24.5t-34 9v0zM817 517l-255 -225q-16 -15 -28.5 -22.5t-20.5 -7.5q-16 0 -49 30l-254 225h607v0zM166 115v359l202 -177l-202 -182v0zM216 84l196 174l33 -28
q28 -25 68 -25q14 0 26 3t23 8.5t20 13.5l32 28l197 -174h-595v0zM860 115l-202 182l202 177v-359v0zM860 115z" />
    <glyph glyph-name="uniE652" unicode="&#xe652;" 
d="M830 356l-74 -148q-4 -4 -9 -6t-10 -2h-150v-200q0 -21 -8 -39.5t-21.5 -32t-32 -21t-38.5 -7.5h-50q-27 0 -50 13t-36.5 36t-13.5 51v200h-100q-11 0 -20 4t-15.5 10.5t-10.5 16t-4 19.5v250q0 21 14.5 35.5t35.5 14.5h100v50q0 42 29 71t71 29h50q16 0 31.5 -5
t27.5 -14t21.5 -21.5t14.5 -27.5t5 -32v-50h149q6 1 11 -1t9 -6l74 -148l2 -4q6 -10 5 -16v-3q0 -1 -0.5 -2.5t-1.5 -3.5l-2 -4zM387 0q0 -21 14.5 -35.5t35.5 -14.5h50q14 0 25.5 6.5t18 18t6.5 25.5v200h-150v-200zM537 600q0 21 -14.5 35.5t-35.5 14.5h-50
q-10 0 -19.5 -4t-16 -10.5t-10.5 -15.5t-4 -20v-50h150v50zM726 495q-7 5 -14 5h-450q-7 0 -13 -3t-9 -9t-3 -13v-200q0 -10 7 -17.5t18 -7.5h450q7 0 14 4l60 121z" />
    <glyph glyph-name="uniE653" unicode="&#xe653;" 
d="M819 -46h-614q-26 0 -44.5 18.5t-18.5 44.5v401q0 26 18.5 44.5t44.5 18.5h614q26 0 44.5 -18.5t18.5 -44.5v-401q0 -26 -18.5 -44.5t-44.5 -18.5zM205 447q-12 0 -20.5 -8.5t-8.5 -20.5v-401q0 -12 8.5 -20.5t20.5 -8.5h614q12 0 20.5 8.5t8.5 20.5v401q0 8 -4 15
t-10.5 10.5t-14.5 3.5h-614zM819 -46h-614q-19 0 -35.5 11t-23.5 29q-4 11 5 19l240 214q2 2 5.5 3t6.5 1t6 -1.5t5 -4.5q5 -5 4.5 -12t-5.5 -11l-229 -205q4 -4 9.5 -6.5t11.5 -2.5h614q12 0 21 9l-232 207q-5 5 -5.5 12t4.5 12t12 5.5t12 -4.5l242 -216q9 -8 5 -19
q-5 -12 -14 -21t-20.5 -14t-24.5 -5zM512 106q-3 0 -6 1t-5 3l-350 312q-9 8 -5 19q7 18 23.5 29t35.5 11h614q10 0 19 -3t16.5 -8t13.5 -12.5t10 -16.5q1 -5 0 -10.5t-5 -8.5l-350 -312q-2 -2 -5 -3t-6 -1zM184 438l328 -293l328 293q-8 9 -21 9h-614q-13 0 -21 -9z" />
    <glyph glyph-name="uniE654" unicode="&#xe654;" 
d="M512 812q-138 0 -256 -69t-187 -187t-69 -256t69 -256t187 -187t256 -69t256 69t187 187t69 256t-69 256t-187 187t-256 69zM512 -148q-187 0 -317.5 130.5t-130.5 317.5t130.5 317.5t317.5 130.5t317.5 -130.5t130.5 -317.5t-130.5 -317.5t-317.5 -130.5zM512 652
q-91 0 -157.5 -66.5t-66.5 -157.5t66.5 -157.5t157.5 -66.5t157.5 66.5t66.5 157.5t-66.5 157.5t-157.5 66.5zM512 268q-67 0 -113.5 46.5t-46.5 113.5t46.5 113.5t113.5 46.5t113.5 -46.5t46.5 -113.5t-46.5 -113.5t-113.5 -46.5zM205 -39q24 106 110.5 174.5t196.5 68.5
t196.5 -68.5t110.5 -174.5h64q-29 131 -134.5 219t-242.5 88q-139 0 -244 -86t-134 -221h77z" />
    <glyph glyph-name="uniE655" unicode="&#xe655;" 
d="M147 721h728q34 0 59 -25q25 -24 25 -59v-666q0 -34 -25 -59q-12 -12 -27 -18.5t-32 -6.5h-726q-17 0 -32 6.5t-27 18.5t-18.5 27t-6.5 32v668q0 34 25 58l2 2q23 22 55 22zM875 661h-728q-8 0 -14 -5l-1 -1q-7 -7 -7 -16v-668q0 -10 7 -17v0q7 -7 17 -7h726q10 0 17 7v0
q2 2 3 4l2 4q1 2 1.5 4.5t0.5 4.5v666q0 2 -1 4v4q-1 2 -1.5 3.5t-1.5 3t-3 2.5v0q-8 7 -17 7zM214 483q-12 0 -20.5 8.5t-8.5 21.5q0 8 4 14.5t10.5 10.5t14.5 4h596q4 0 7.5 -1t7 -3t6 -4.5t4.5 -6t3 -7t1 -7.5q0 -8 -4 -15t-10.5 -11t-14.5 -4h-596zM233 364h200
q20 0 34.5 -14.5t14.5 -35.5v-199q0 -20 -14 -35q-2 -2 -4.5 -4t-5.5 -3.5t-6 -2.5l-6 -2q-3 -1 -6.5 -1.5t-6.5 -0.5h-199q-5 0 -10 1t-9.5 3t-8.5 4.5t-7 5.5q-4 5 -7.5 10.5t-5 12t-1.5 12.5v200q0 20 14 34q3 4 7 6.5t8.5 4.5t9 3t9.5 1zM423 304h-179v-178h179v178z
M631 306q-12 0 -21 8.5t-9 21.5q0 6 2.5 11.5t6.5 9.5t9.5 6t11.5 2h179q8 0 14.5 -4t10.5 -10.5t4 -14.5q0 -13 -8.5 -21.5t-20.5 -8.5h-179zM631 127q-3 0 -5 1h-6l-4 2l-4 4q-2 1 -3.5 3t-3 4.5t-2.5 4.5t-1.5 5t-0.5 5q0 13 9 21.5t21 8.5h179q12 0 20.5 -8.5t8.5 -21.5
q0 -8 -4 -14.5t-10.5 -10.5t-14.5 -4h-179z" />
    <glyph glyph-name="uniE656" unicode="&#xe656;" 
d="M900 -50h-776q-5 0 -9 2.5t-6 6.5t-2 9v775q0 5 2 9t6 6.5t9 2.5h776q7 0 12 -5.5t5 -12.5v-775q0 -8 -5 -13t-12 -5zM142 -14h740v739h-740v-739zM887 518h-750q-5 0 -9 2t-6.5 6.5t-2.5 9t2.5 8.5t6.5 6.5t9 2.5h750q5 0 9 -2.5t6.5 -6.5t2.5 -9q0 -7 -5.5 -12
t-12.5 -5zM229 679q-17 0 -28.5 -11.5t-11.5 -28.5q0 -8 3.5 -15t8.5 -12.5t12.5 -8.5t15.5 -3q16 0 27.5 11.5t11.5 27.5q0 8 -3 15.5t-8.5 12.5t-12.5 8.5t-15 3.5zM342 679q-16 0 -27.5 -11.5t-11.5 -28.5q0 -8 3 -15t8 -12.5t12.5 -8.5t15.5 -3q16 0 27.5 11.5t11.5 28
t-11.5 28t-27.5 11.5zM455 679q-11 0 -20 -5.5t-14 -14.5t-5 -19.5t5 -20t14 -14.5t20 -5q16 0 27.5 11.5t11.5 27.5q0 6 -1.5 11t-4 9t-6 8t-7.5 6.5t-9.5 4t-10.5 1.5zM512 375h-243q-4 0 -7 1.5t-5.5 3.5t-4 5.5t-1.5 7.5t2.5 8.5t6.5 6.5t9 2h243q7 0 12.5 -5t5.5 -12.5
t-5.5 -12.5t-12.5 -5zM512 262h-243q-8 0 -13 5.5t-5 12.5t5 12.5t13 5.5h243q7 0 12.5 -5.5t5.5 -13t-5.5 -12.5t-12.5 -5zM512 149h-243q-8 0 -13 5.5t-5 12.5t5 12.5t13 5.5h243q7 0 12.5 -5.5t5.5 -12.5t-5.5 -12.5t-12.5 -5.5zM755 149h-154q-15 0 -17 15l-1 3v226
q0 7 5.5 12t12.5 5h154q4 0 7.5 -1t5.5 -3.5t3.5 -6t1.5 -6.5v-226q0 -7 -5 -12.5t-13 -5.5zM619 185h119v190h-119v-190z" />
    <glyph glyph-name="uniE657" unicode="&#xe657;" 
d="M485 625q11 23 27 23t27 -23l64 -136q11 -23 37 -42.5t52 -23.5l138 -21q25 -4 30.5 -20t-12.5 -34l-102 -104q-18 -19 -28 -50.5t-6 -56.5l25 -150q4 -25 -9.5 -34.5t-35.5 3.5l-125 68q-15 8 -35 11t-40 0t-35 -11l-125 -68q-22 -13 -35.5 -3.5t-9.5 34.5l25 150
q4 25 -6 56.5t-28 50.5l-102 104q-18 18 -12.5 34t30.5 20l138 21q26 4 52 23.5t37 42.5z" />
    <glyph glyph-name="uniE658" unicode="&#xe658;" 
d="M355 436h306v-275h-306v275z" />
    <glyph glyph-name="uniE659" unicode="&#xe659;" 
d="M352 287.5q0 -66.5 47 -113t113.5 -46.5t113 46.5t46.5 113t-46.5 113.5t-113 47t-113.5 -47t-47 -113.5z" />
    <glyph glyph-name="uniE65A" unicode="&#xe65a;" 
d="M783 765h-512l-64 -64v-576h640v576zM335 189q-8 0 -16.5 2.5t-15.5 6.5t-13 10t-10 13t-6.5 15t-2.5 17q0 27 19 45.5t45.5 18.5t45 -18.5t18.5 -45.5q0 -17 -8.5 -32t-23 -23.5t-32.5 -8.5zM719 189q-17 0 -32 8.5t-23.5 23.5t-8.5 32q0 27 19 45.5t45 18.5q13 0 25 -5
t20.5 -13.5t13.5 -20.5t5 -25q0 -26 -18.5 -45t-45.5 -19zM783 381h-512v256l64 64h384l64 -64v-256zM781 -131h130l-126 192h-130l42 -64h-340l42 64h-129l-127 -192h130l42 64h424z" />
    <glyph glyph-name="uniE65B" unicode="&#xe65b;" 
d="M895 462h-227l-132 290q-8 14 -12 19.5t-13.5 15.5t-22.5 13.5t-31 3.5q-9 0 -14.5 -0.5t-16.5 -2.5t-18 -7t-14.5 -13t-11 -22.5t-3.5 -33.5l26 -263l-188 1l-66 109q-7 12 -15.5 17.5t-19.5 4.5h-6h-10q-6 0 -12 -1.5t-11 -4.5t-8 -8.5t-3 -13.5l23 -182l-23 -181
q0 -17 12 -23t38 -6q9 0 15.5 3t8.5 6l10 15l67 107l187 1l-26 -263q0 -19 3.5 -33t11 -22.5t14.5 -13.5t18 -7t16.5 -2.5t15.5 -0.5q17 0 30 4t22.5 14t13.5 15.5t12 19.5l133 289h227q35 1 62 23t27 54.5t-27 55.5t-62 23zM900 348h-266l-140 -301q-3 -6 -8 -12t-10 -9.5
t-10.5 -6t-8.5 -2.5q-34 0 -32 29l45 301h-285l-69 -121q0 6 2 24.5t5 41t6 44t5 36.5l2 15q0 1 -3 23t-7 48.5t-7 52t-3 30.5l67 -115l287 -3l-45 300q-1 9 7 19t25 10q4 0 9 -2.5t10 -6.5t9.5 -10t7.5 -12l141 -299l266 -3q14 0 25.5 -11.5t11.5 -24.5q0 -6 -3.5 -12
t-8 -11t-11.5 -8.5t-14 -3.5z" />
    <glyph glyph-name="uniE65C" unicode="&#xe65c;" 
d="M737 -148h91l-124 160q30 14 52.5 37t35 53t12.5 62v38v295v37q0 46 -24 85.5t-66 62t-92 22.5h-219q-75 0 -128.5 -49.5t-53.5 -120.5v-37v-295v-38q0 -20 5 -39.5t14.5 -36.5t22.5 -32t29.5 -26.5t34.5 -19.5l-121 -158h90l80 103h282zM272 164v38v295v37
q0 50 38.5 84.5t92.5 34.5h219q69 0 108 -51q23 -31 23 -68v-37v-295v-38q0 -49 -38 -84t-93 -35h-219q-35 0 -65.5 16t-48 43.5t-17.5 59.5zM368 373h290q16 0 26.5 11t10.5 26v44v21v44q0 16 -10.5 27t-26.5 11h-290q-16 0 -27 -11t-11 -27v-44v-21v-44q0 -7 3 -14t8 -12
t12 -8t15 -3zM386 205zM330 205.5q0 23.5 16.5 39.5t39.5 16t39.5 -16t16.5 -40q0 -15 -7.5 -28t-20.5 -20.5t-28 -7.5q-23 0 -39.5 16.5t-16.5 40zM639 205zM583 205.5q0 23.5 16.5 39.5t40 16t39.5 -16t16 -40q0 -11 -4.5 -21.5t-12 -18t-17.5 -12t-22 -4.5
q-23 0 -39.5 16.5t-16.5 40z" />
    <glyph glyph-name="uniE65D" unicode="&#xe65d;" 
d="M570 710q6 -18 17.5 -49.5t23 -64t22 -62.5t16.5 -49l7 -19h274q13 0 23.5 -2.5t18 -6.5t12 -9.5t5 -12.5t-1.5 -14.5t-9 -16t-18 -17.5q-23 -19 -78.5 -64t-99.5 -81l-45 -35q66 -207 84 -264q9 -28 1 -46.5t-24.5 -20t-35.5 9.5q-228 164 -235 167q-189 -135 -233 -167
q-33 -22 -53 -2t-9 56q15 46 85 267q-186 150 -224 181q-19 15 -25 33.5t6 32t42 13.5h281q7 20 18.5 52.5t34.5 98.5t32 92q17 49 44 48.5t44 -48.5zM527 708q-91 -254 -94 -265q-3 -8 -11 -13.5t-17 -5.5h-292l234 -188q10 -7 12.5 -16.5t-0.5 -19.5l-88 -277l240 171
q16 11 32 -1l240 -170q-84 265 -89 278q-7 20 9 32q8 6 238 192h-293q-3 0 -6 0.5t-5.5 1.5t-4.5 2.5t-4 3.5t-3.5 4.5t-3.5 5.5q-1 3 -11 31t-23.5 66.5t-27 76.5t-23.5 65z" />
    <glyph glyph-name="uniE65E" unicode="&#xe65e;" 
d="M16 104v391q0 7 -0.5 17.5t3 42t12 59.5t30 63t52.5 59.5t83.5 42t120.5 17.5h391l49 -2q146 -16 210 -125q41 -71 41 -174v-391l-2 -49q-16 -146 -125 -210q-70 -41 -173 -41h-391h-17q-11 0 -42.5 5t-59.5 14.5t-63 31.5t-59.5 52.5t-42 81.5t-17.5 115zM359.5 386
q-12.5 0 -23.5 -6t-17 -16.5t-6 -22.5q0 -4 1 -8.5t2.5 -8.5t4 -7.5t5.5 -6.5t7 -5.5t8 -4.5t8.5 -3t9.5 -1q10 0 18.5 4t14.5 10t10 14t4 17q0 12 -6.5 22.5t-17 16.5t-23 6zM506 386q-12 0 -23 -6t-17 -16.5t-6 -22.5q0 -18 13.5 -31.5t33 -13.5t33 13.5t13.5 32
t-13.5 31.5t-33.5 13zM653.5 386q-19.5 0 -33 -13t-13.5 -31.5t14 -32t33 -13.5t32.5 13.5t13.5 32t-13.5 31.5t-33 13zM821 31l-56 56q13 15 20 33.5t7 38.5q0 23 -11 46q34 62 34 132v16q0 75 -36.5 138t-99.5 99.5t-138 36.5h-69q-56 0 -106.5 -21.5t-87.5 -58
t-58.5 -87.5t-21.5 -107v-16q0 -82 45.5 -151t121.5 -101l-15 -82q-1 -7 3 -12q8 -14 22 -18q3 -1 5 -1q15 0 117 91h44q15 0 30.5 1.5t30.5 5.5q3 0 8 5q32 -27 71 -27q27 0 56 17l59 -59q6 -6 13 -6q3 0 6.5 1.5t5.5 4.5q4 3 5 7.5t0 9t-5 8.5zM570 159q0 -15 4.5 -28.5
t12.5 -27.5q-26 -5 -46 -5h-51q-1 0 -2.5 -1l-1.5 -1h-3q-3 -1 -4 -2q-25 -22 -50 -43.5t-40 -33.5l12 70l-1 6q1 7 -2 12.5t-9 7.5q-34 13 -63.5 35.5t-49.5 52t-31.5 64.5t-11.5 72v16q0 99 70 169t169 70h69q49 0 93 -19t76 -51t51 -76t19 -93v-16q0 -47 -23 -98
q-33 31 -76 31q-46 0 -78.5 -32.5t-32.5 -78.5zM605 159q0 31 22.5 53.5t53.5 22.5t53.5 -22.5t22.5 -53.5q0 -17 -7.5 -32.5t-20.5 -26.5q-21 -17 -48 -17q-15 0 -29 6t-24.5 16t-16.5 24t-6 30z" />
    <glyph glyph-name="uniE65F" unicode="&#xe65f;" 
d="M515 744q-56 1 -109.5 -21.5t-92 -60.5t-61.5 -90t-22 -108q0 -85 98 -241q74 -118 152 -222q14 -17 35 -17q22 0 35 17q84 113 152 222q45 72 71.5 136t26.5 105q2 74 -37 139.5t-105.5 104t-142.5 36.5v0zM535 67q-7 -10 -20 -10q-3 0 -5.5 0.5t-5.5 1.5t-5 3t-3 5
q-99 134 -156.5 240.5t-57.5 156.5q0 95 69 162q34 33 75 50t89 17q96 0 165 -67t69 -162q0 -50 -58 -157q-27 -51 -66 -110.5t-90 -129.5v0zM513 -151q-159 0 -258 26q-53 14 -81 33q-18 11 -27.5 25t-9.5 30q0 40 32 62q19 12 48.5 18.5t70.5 6.5v-37q-66 0 -98 -20
q-7 -5 -11 -12.5t-4 -17.5q0 -8 9 -16.5t30 -18t51 -17.5q49 -12 111.5 -18.5t136.5 -6.5q148 0 248 25q43 11 65.5 25t22.5 27q0 10 -11 22q-32 31 -97 31h-3l-1 38q43 0 75 -12q32 -11 52 -31q11 -11 17 -23t6 -25q0 -33 -36 -55q-28 -19 -81 -33q-97 -26 -257 -26v0z
M307 33q0 -8 -5 -14t-13 -6l-28 -2q-8 0 -13.5 5t-5.5 12q-1 8 4.5 14t13.5 6l28 2q14 0 18 -13q1 -3 1 -4zM783 33q-1 -8 -6.5 -13t-12.5 -5l-28 1q-8 0 -13.5 5.5t-5.5 13.5q1 8 6.5 13t12.5 5l28 -1q6 0 10 -2.5t6.5 -7t2.5 -9.5zM439 453.5q0 30.5 21.5 52t51.5 21.5
t51.5 -21.5t21.5 -52.5q0 -12 -3.5 -23t-10.5 -20t-16 -16t-20 -10.5t-23 -3.5q-30 0 -51.5 21.5t-21.5 52z" />
    <glyph glyph-name="uniE660" unicode="&#xe660;" 
d="M513 748q-60 0 -118 -15.5t-106.5 -44.5t-89.5 -70t-69.5 -89.5t-44.5 -106t-16 -118.5q0 -90 35 -172.5t94.5 -142t142 -94.5t172.5 -35t172.5 35t142 94.5t94.5 142t35 172.5t-35 172.5t-94.5 142t-142 94.5t-172.5 35zM708 472q11 -10 0 -20l-82 -83q-10 -10 -20.5 0
t-0.5 21l83 82q3 3 6.5 4t7.5 0t6 -4zM563 432l83 82q10 10 20 0t0 -20l-82 -82q-13 -14 -13 -32.5t13 -32t32 -13.5t32 14l82 82q10 10 20.5 0t0.5 -21q-2 -1 -4 -3.5t-9 -9t-14 -12.5l-14 -16l-16 -15l-13 -13l-9 -10l-4 -3q-21 -22 -52 -22t-52.5 22t-21.5 52.5t21 52.5z
M350 69q-9 -10 -22.5 -10t-23 9.5t-9.5 23t10 22.5l135 135l45 -45zM747.5 68.5q-6.5 -6.5 -14.5 -8.5t-16.5 0t-14.5 9l-145 145q-11 -10 -26 -10t-25 10l-199 198q-10 11 -10 26v48q-1 14 9 24q6 6 14.5 8t16.5 0t14 -8l397 -396q6 -6 8 -14.5t0 -16.5t-8.5 -14.5z" />
    <glyph glyph-name="uniE661" unicode="&#xe661;" 
d="M516 695q-64 0 -123.5 -19.5t-107.5 -56t-84.5 -85t-56 -108.5t-19.5 -124q0 -106 52.5 -196t142.5 -141.5t196 -51.5t196 51.5t142.5 141.5t52.5 196.5t-52 197t-142.5 143t-196.5 52.5zM516 -47q-95 0 -176 47t-128 128t-47 176t47 176t128 128t176 47t176 -47
t128 -128t47 -176t-47 -176t-128 -128t-176 -47zM372 359q0 -8 3 -15.5t8.5 -13t13 -8.5t15.5 -3t15.5 3t13 8.5t8.5 13t3 15.5t-3 15.5t-8.5 13t-13 9t-15.5 3.5q-11 0 -20.5 -5.5t-14.5 -15t-5 -20.5zM476 359q0 -16 12 -28t29 -12q10 0 19.5 5.5t15 14.5t5.5 20
q0 17 -12 29t-28 12q-11 0 -20.5 -5.5t-15 -15t-5.5 -20.5zM581 359q0 -16 12 -28t28 -12q11 0 20.5 5.5t15 14.5t5.5 20q0 17 -12 29t-29 12q-11 0 -20 -5.5t-14.5 -15t-5.5 -20.5zM509 543q-100 0 -170.5 -56t-70.5 -136q0 -31 12 -60.5t34.5 -53t52 -41t66.5 -27.5
t76 -10q33 0 64 7q8 -27 -29 -69q19 -2 38 8.5t33 26t25 32t16.5 27.5t5.5 12q41 27 65 65.5t24 82.5q0 80 -71 136t-171 56zM509 201q-83 0 -142 44t-59 106q0 41 27 75.5t73.5 54.5t100.5 20q84 0 143 -44t59 -106q0 -17 -5.5 -34t-15.5 -32t-23.5 -28t-31 -23
t-37.5 -17.5t-42.5 -11.5t-46.5 -4z" />
    <glyph glyph-name="uniE662" unicode="&#xe662;" 
d="M512 726l107 -309l341 -2l-263 -208l103 -333l-288 198l-288 -198l97 337l-257 204l341 2z" />
    <glyph glyph-name="uniE663" unicode="&#xe663;" 
d="M535 26q-9 -11 -23 -11t-23 11q-34 46 -65 92t-63 110.5t-32 100.5q0 50 24.5 92t66.5 66.5t92 24.5t92 -24.5t66.5 -66.5t24.5 -92q0 -85 -151 -290q-5 -7 -9 -13zM513 479q-62 0 -105.5 -44t-43.5 -106q0 -33 36.5 -102t100.5 -158q4 -6 12 -6t12 6q43 58 73.5 109
t47.5 90t17 61q0 62 -44.5 106t-105.5 44zM435 340q0 33 23 55.5t55 22.5q16 0 30.5 -6t25 -16.5t16.5 -25t6 -30.5q0 -32 -23 -54.5t-55 -22.5q-11 0 -21 2.5t-18.5 7.5t-15.5 12.5t-12 16t-8 18.5t-3 20zM557 340.5q0 18.5 -13 31t-31 12.5t-31 -12.5t-13 -31t13 -31.5
t31 -13t31 13t13 31.5z" />
    <glyph glyph-name="uniE664" unicode="&#xe664;" 
d="M411 79l-50 85q-9 -5 -14 -7.5t-6 -1.5q-2 2 9 20l-86 50l34 11l89 -5q11 15 23.5 32t26.5 35.5t29.5 39t32.5 41.5l2 2l1 2l-202 161l59 -4l61 -27q7 10 15.5 13.5t13.5 -1.5q9 -9 -5 -22l49 -22q7 10 15.5 14t13.5 -1q9 -9 -5 -23l45 -20q55 56 100 80.5t62.5 7
t-7.5 -62.5t-81 -99l20 -45q14 13 23 5q5 -6 1.5 -14t-13.5 -15l21 -49q4 4 8 6t8 1.5t7 -2.5q5 -6 1.5 -14t-13.5 -15l27 -61l3 -60l-160 203q-1 0 -2 -1l-3 -3q-83 -65 -148 -111l6 -90z" />
    <glyph glyph-name="uniE665" unicode="&#xe665;" 
d="M934 420l-216 -81l-273 146q-27 12 -32 13t-24 -5l-97 -36q-18 -10 -15 -18.5t32 -39.5q2 -2 2.5 -3t2 -2.5t3 -2.5t3 -3t2.5 -3l137 -144l-344 -130q22 -3 79 -7t123 -4t87 8l567 214q14 5 23 16t11 24.5t-3 27.5q-8 20 -27.5 29t-40.5 1zM285 197l-115 60
q-26 14 -43 13.5t-56 -14.5l-52 -20l99 -102zM285 197z" />
    <glyph glyph-name="uniE666" unicode="&#xe666;" 
d="M297 32q-12 0 -21 7q-20 15 -12 38l75 231l-196 142q-21 15 -13 39t33 24h242l75 230q8 24 33 24t33 -24l75 -230h242q12 0 21 -6.5t12 -17.5q8 -24 -12 -39l-196 -142l75 -231q7 -23 -13 -38t-41 0l-196 142l-196 -142q-4 -3 -9.5 -5t-10.5 -2zM513 259q6 0 11 -2t9 -5
l131 -95l-50 153q-8 24 13 39l130 95h-161q-11 0 -20.5 6.5t-12.5 17.5l-50 153l-50 -153q-2 -7 -7 -12.5t-11.5 -8.5t-14.5 -3h-161l131 -95q20 -15 12 -39l-49 -153l130 95q9 7 20 7z" />
    <glyph glyph-name="uniE667" unicode="&#xe667;" 
d="M505 836q-76 0 -147 -23.5t-128.5 -66.5t-101 -100.5t-67 -128.5t-23.5 -147q0 -95 37 -181.5t99.5 -149t149 -99.5t181.5 -37t181 37t148.5 99.5t99.5 149t37 181.5t-37 181t-99.5 148.5t-148.5 99.5t-181 37zM632 582q24 0 43.5 -11t30.5 -30.5t11 -43.5
q0 -36 -24.5 -60.5t-60.5 -24.5q-18 0 -33.5 6.5t-27 18t-18 27t-6.5 33.5q0 36 25.5 60.5t59.5 24.5zM406 582q24 0 43 -11t30.5 -30.5t11.5 -43.5q0 -36 -24.5 -60.5t-60.5 -24.5t-60.5 24.5t-24.5 60.5q0 51 43 75q20 10 42 10zM236 186q0 59 31 107t82 63q8 2 24.5 2
t36.5 -1t24 -1q70 0 111.5 -48.5t41.5 -121.5h-351zM655 186q0 19 -3.5 39t-10 39.5t-16 37t-22.5 31.5t-27 23q0 1 12 1t34 -0.5t33 -0.5q47 0 87.5 -23t64 -62t23.5 -85h-175z" />
    <glyph glyph-name="uniE668" unicode="&#xe668;" 
d="M715 830q-7 0 -11.5 -4.5t-4.5 -10.5v-863q0 -7 4.5 -11.5t11.5 -4.5q4 0 7.5 2t5.5 5.5t2 8.5v863q0 4 -2 7.5t-5.5 5.5t-7.5 2zM625 830q-6 0 -10.5 -4.5t-4.5 -10.5v-863q0 -5 2 -8.5t5.5 -5.5t7.5 -2q7 0 11.5 4.5t4.5 11.5v863q0 3 -1.5 6t-3.5 5t-5 3t-6 1z
M485 804q-29 25 -61 25q-5 0 -10.5 -1t-10.5 -2t-10 -4l-10 -4q-5 -3 -10 -6.5t-10 -7.5q-6 -5 -11.5 -11t-10.5 -13t-10 -15t-9 -17q-34 -65 -34 -123q0 -47 29 -89q27 -37 65 -52v-504q0 -18 12.5 -30t29.5 -12q11 0 21 5.5t15.5 15t5.5 21.5v504q38 15 65 52q29 42 29 89
q0 58 -34 123q-9 18 -19.5 32t-21.5 24zM447 509q-11 -3 -11 -14v-515q0 -5 -3.5 -8.5t-8.5 -3.5t-8.5 3.5t-3.5 8.5v515q0 11 -11 14q-16 5 -31.5 17t-26.5 27.5t-18 34.5t-7 37q0 20 8 50.5t23 58.5q33 64 74.5 64t75.5 -64q15 -28 23 -58.5t8 -50.5q0 -37 -25 -71.5
t-58 -44.5z" />
    <glyph glyph-name="uniE669" unicode="&#xe669;" 
d="M467 578q0 59 42 101t101.5 42t101 -42t41.5 -101q0 -24 -7 -45.5t-20.5 -39.5t-31 -31t-39 -20.5t-45.5 -7.5q-29 0 -55.5 11.5t-45.5 30.5t-30.5 45.5t-11.5 56.5v0zM273 128q5 0 8.5 3.5t3.5 8.5v102q0 3 -1.5 6t-4.5 4.5t-6 1.5h-11q-5 0 -8.5 -3.5t-3.5 -8.5v-102
q0 -5 3.5 -8.5t8.5 -3.5h11zM267 244q10 0 10 -9q0 -2 -1 -4t-2 -3t-3 -2t-3.5 -1t-3.5 1t-3 2t-2 3t-1 4q0 3 3 6t6 3zM258 143q0 9 9 9q4 0 7 -2.5t3 -6.5q0 -9 -9.5 -9t-9.5 9zM258 143zM454 128q5 0 8.5 3.5t3.5 8.5v102q0 2 -1 4.5t-2.5 4t-3.5 2.5t-5 1h-11
q-2 0 -4 -0.5t-3.5 -2t-2.5 -3t-1.5 -3t-0.5 -3.5v-102q0 -2 1 -4.5t2.5 -4t3.5 -2.5t5 -1h11zM448 244q10 0 10 -9q0 -4 -3 -7t-7 -3q-9 0 -9 9.5t9 9.5zM439 143q0 9 10 9q3 0 6 -2.5t3 -6.5q0 -9 -9.5 -9t-9.5 9zM439 143zM542 355h-111v32q0 8 -5.5 13t-12.5 5h-111
q-5 0 -9 -2.5t-6.5 -6.5t-2.5 -9v-32h-112q-5 0 -8.5 -3.5t-3.5 -8.5v-115q0 -3 1.5 -6t4.5 -4.5t6 -1.5h66v40q0 8 8 8h43q3 0 5.5 -2.5t2.5 -5.5v-40h122v40q0 8 8 8h43q8 0 8 -8v-40h64q5 0 9 3.5t4 8.5v115q-1 5 -4.5 8.5t-8.5 3.5zM296 387q0 6 6 6h111q6 0 6 -6v-31
h-123v31zM296 387zM478 196v-74q0 -4 -2.5 -6t-5.5 -2h-43q-8 0 -8 8v74h-122v-74q0 -8 -8 -8h-43q-3 0 -5.5 2t-2.5 6v74h-74h-2h-2v-122q0 -5 3.5 -8.5t8.5 -3.5h370q4 0 6.5 2t4.5 4.5t2 5.5v123q-2 -1 -5 -1h-72zM478 196zM671 420h-121q-33 0 -60 -6.5t-49 -21.5v-25
h103q12 0 20.5 -8.5t8.5 -20.5v-249q0 -8 -3.5 -14.5t-10 -10.5t-14.5 -4q0 -5 -2 -7q46 -5 83 -5q60 0 115 10.5t73.5 17.5t29.5 12l9 4h2v149q0 50 -24.5 91t-67 64.5t-92.5 23.5z" />
    <glyph glyph-name="uniE66A" unicode="&#xe66a;" 
d="M823 124q80 99 96.5 225t-38.5 242q-53 109 -152 172t-216 65q-76 -1 -147 -30.5t-124 -79t-90.5 -116t-46.5 -142t7 -156.5q24 -98 87 -173.5t144.5 -113t178 -37t182.5 46.5q46 -24 155 -82q17 -9 29.5 4t4.5 31q-11 22 -24.5 50.5t-21 43.5t-24.5 50zM320.5 311
q-29.5 0 -50.5 21.5t-21 52.5t21 52.5t50 21.5q15 0 28 -5.5t22.5 -15.5t15.5 -24t6 -29q0 -31 -21 -52.5t-50.5 -21.5zM535 311q-29 0 -50 21.5t-21 52.5t21 52.5t50.5 21.5t50 -21.5t20.5 -52.5q0 -44 -37 -65q-17 -9 -34 -9zM750 311q-7 0 -14 1.5t-13.5 4.5t-12.5 7
t-10.5 9t-8.5 11t-7 12.5t-4 14t-1 14.5q0 31 21 52.5t50 21.5q20 0 36.5 -9.5t26 -27t9.5 -37.5t-9.5 -37t-26 -27t-36.5 -10z" />
    <glyph glyph-name="uniE66B" unicode="&#xe66b;" 
d="M528 393zM301 392.5q0 93.5 66.5 160t160.5 66.5q101 0 168 -75q57 -66 58 -151q0 -94 -66.5 -160.5t-160 -66.5t-160 66.5t-66.5 160z" />
    <glyph glyph-name="uniE66C" unicode="&#xe66c;" 
d="M512 -58q-65 0 -120 11t-92.5 36.5t-37.5 61.5q0 41 50 69t116 36h4l-110 177l-10 20l-3 6v3q-8 18 -11.5 38t-3.5 40q0 44 17.5 84.5t46.5 70t69.5 46.5t84.5 17q90 0 154 -64t64 -154q0 -40 -15 -78l-1 -4l-1 -2q-1 -3 -2.5 -6t-3 -5.5t-2.5 -5t-3 -5.5l-190 -317
l-45 74h-2q-49 -4 -85 -16t-47 -22l-2 -2l2 -2q15 -14 62 -26.5t113 -12.5h8q66 0 113 12.5t62 26.5l2 2l-2 2q-23 20 -92 33l39 61q60 -13 92 -38t32 -58q0 -11 -3.5 -21.5t-10.5 -19t-16.5 -16.5t-21.5 -14.5t-26.5 -12t-30 -9.5t-32.5 -7t-35 -5t-36.5 -3t-37.5 -1z
M512 558q-38 0 -65.5 -27.5t-27.5 -66t27.5 -66t65.5 -27.5t65.5 27.5t27.5 66t-27.5 66t-65.5 27.5zM512 558z" />
    <glyph glyph-name="uniE66D" unicode="&#xe66d;" 
d="M512 6q-54 0 -99 9t-75.5 30t-30.5 50q0 18 12 33t31.5 25.5t43.5 17.5t49 10h4l-91 146q-2 3 -4 7.5t-4 8.5l-2 5l-1 2q-12 31 -12 64q0 74 52.5 126.5t126.5 52.5t126 -52.5t52 -126.5q0 -11 -1 -22t-4 -21.5t-7 -20.5l-1 -3l-1 -2q-2 -5 -4 -9.5t-4 -8.5l-156 -260
l-37 61h-2q-40 -4 -69 -13.5t-39 -17.5l-1 -2l1 -1q8 -7 25 -14t49 -12.5t69 -5.5h7q54 0 92.5 10t50.5 21l2 2l-2 2q-18 16 -75 27l32 50q12 -3 23 -6t20.5 -7t17.5 -8.5t14.5 -9.5t11.5 -10.5t8 -11.5t5 -12.5t2 -13.5q0 -22 -17.5 -39.5t-47 -28.5t-65.5 -16t-75 -5v0z
M512 510q-32 0 -54 -22t-22 -54q0 -15 6 -29.5t16 -24.5t24 -16t30 -6q21 0 38.5 10t27.5 27.5t10 38.5q0 32 -22.5 54t-53.5 22v0zM512 510z" />
    <glyph glyph-name="uniE66E" unicode="&#xe66e;" 
d="M512 513zM399 512.5q0 46.5 33 80t80 33.5t80 -33.5t33 -79.5q0 -47 -33 -80t-80 -33t-80 33t-33 79.5zM47 288v-1v1zM512 804q-29 0 -56.5 -5t-53 -14.5t-49 -23t-44 -31t-38 -38t-31 -44t-23 -49t-14.5 -53.5t-5 -56q0 -135 231 -425q47 -59 83 -99q7 7 18 20t43.5 53
t62.5 79t66 92.5t62.5 100t44 95t17.5 84.5q0 42 -11 83t-31.5 75.5t-49.5 63.5t-63.5 49t-75 31.5t-83.5 11.5zM512 359q-43 0 -79 21t-57 57t-21 79q0 65 46 111t111 46t111 -46t46 -111q0 -32 -12.5 -61t-33.5 -50t-50 -33.5t-61 -12.5zM512 359zM583 23l-19 -34
q151 -2 254 -20t103 -43q0 -26 -118.5 -44.5t-285.5 -18.5q-404 0 -404 63q0 24 100 42t248 21l-19 34q-64 -2 -122 -8t-104.5 -15t-80.5 -20t-53 -25t-19 -28q0 -97 449 -97q186 0 317.5 28.5t131.5 68.5q0 18 -29 34.5t-79 29t-120 21.5t-150 11z" />
    <glyph glyph-name="uniE66F" unicode="&#xe66f;" 
d="M438 662q-7 0 -11.5 -4.5t-4.5 -10.5v-126q-1 -5 -6.5 -8.5t-12.5 -3.5t-12 4t-6 10v124q0 6 -5 10.5t-11.5 4.5t-11 -4.5t-4.5 -10.5v-124q-1 -6 -6 -10t-13 -4q-15 0 -18 12v126q0 6 -5 10.5t-11.5 4.5t-11 -4.5t-4.5 -10.5v-154v-1v0v-1v-46q0 -17 16.5 -37.5
t32.5 -22.5v-422q0 -15 10.5 -25.5t25.5 -10.5t25.5 10.5t10.5 25.5v422q11 1 22.5 11.5t19 24t7.5 24.5v46l-1 1h1v1v154q0 4 -2.5 7.5t-6 5.5t-7.5 2zM740 523q0 18 -5 39t-15 42.5t-23 39t-29.5 28t-33.5 10.5q-21 0 -41.5 -16.5t-34.5 -41t-22.5 -52t-8.5 -49.5
q0 -33 18.5 -59.5t47.5 -38.5v-457q0 -18 11 -30.5t26.5 -12.5t27 12.5t11.5 30.5v454q31 11 51 38.5t20 62.5z" />
    <glyph glyph-name="uniE670" unicode="&#xe670;" 
d="M477 461q0 -7 -3.5 -13t-9.5 -9t-13 -3q-10 0 -17.5 7t-7.5 18v236h-60v-236q0 -7 -3.5 -13t-9 -9t-12.5 -3q-11 0 -18 7t-7 18v236h-56l2 -241q0 -2 0.5 -5.5t2 -13t5 -18t10.5 -19.5t16 -18.5t23.5 -12.5t33.5 -5l-2 -361h92v362q25 0 43.5 9.5t27 23t13 26.5t5.5 23v9
v241h-55v-236zM627 496q0 -58 12 -113.5t23 -81.5l12 -26v-272h91v724q-37 0 -73 -32q-65 -60 -65 -199z" />
    <glyph glyph-name="uniE671" unicode="&#xe671;" 
d="M511 521h-1l-366 -295l45 -37l322 261l322 -261l45 37l-366 295h-1zM227 141v-223h225v214h120v-214h222v223l-288 230z" />
    <glyph glyph-name="uniE672" unicode="&#xe672;" 
d="M469 85h86v86h-86v-86zM299 597h85v86h-85v-86zM469 256h86v85h-86v-85zM299 427h85v85h-85v-85zM299 256h85v85h-85v-85zM469 427h86v85h-86v-85zM640 256h85v85h-85v-85zM811 469h-128v299q0 18 -12.5 30.5t-30.5 12.5h-427q-8 0 -16 -3.5t-14 -9.5t-9 -13.5t-3 -16.5
v-811h128h85h469v470q0 17 -12.5 29.5t-29.5 12.5zM811 0h-427v128h-85v-128h-86v768h427v-299v-42h43h128v-427zM640 85h85v86h-85v-86zM469 597h86v86h-86v-86z" />
    <glyph glyph-name="uniE673" unicode="&#xe673;" 
d="M1024 620v192h-1024v-192q0 -53 37.5 -90.5t90.5 -37.5h768q53 0 90.5 37.5t37.5 90.5zM256 556v64l256 128l256 -128v-64l-256 128z" />
    <glyph glyph-name="uniE674" unicode="&#xe674;" 
d="M0 300q0 -139 68.5 -257t186.5 -186.5t257 -68.5t257 68.5t186.5 186.5t68.5 257t-68.5 257t-186.5 186.5t-257 68.5t-257 -68.5t-186.5 -186.5t-68.5 -257zM945 300q0 -118 -58 -217.5t-157.5 -157.5t-217.5 -58t-217.5 58t-157.5 157.5t-58 217.5t58 217.5t157.5 157.5
t217.5 58t217.5 -58t157.5 -157.5t58 -217.5zM484 446l-197 -197q-6 -5 -9 -12.5t-3 -15t3 -15t9 -13.5q12 -11 28.5 -11t27.5 11l169 169l169 -169q5 -5 12.5 -8t15 -3t15 3t13.5 8q5 5 7.5 10.5t3.5 11.5t0 12t-3.5 12t-7.5 10l-197 197q-11 12 -28 12q-5 0 -10 -1.5
t-9.5 -4t-8.5 -6.5z" />
    <glyph glyph-name="uniE675" unicode="&#xe675;" 
d="M0 812v-1024h1024v1024h-1024zM960 -148h-896v896h896v-896zM704 236h64v-64h-64v64zM576 364h64v-64h-64v64zM768 172h64v-64h-64v64zM512 428h64v-64h-64v64zM640 300h64v-64h-64v64zM256 172h64v-64h-64v64zM320 236h64v-64h-64v64zM448 364h64v-64h-64v64zM384 300
h64v-64h-64v64z" />
    <glyph glyph-name="uniE676" unicode="&#xe676;" 
d="M818 213l-272 273q-10 9 -23 9q-14 -1 -23 -9l-273 -273q-10 -10 -10 -23.5t9.5 -23t23 -9.5t23.5 10l250 250l249 -250q7 -6 15 -8.5t16.5 0t14.5 8.5q10 9 10 22.5t-10 23.5zM523 788q-182 0 -320 -119q-131 -114 -161 -285q-7 -42 -7 -84q0 -99 38.5 -189.5t104 -156
t155.5 -104t189.5 -38.5t190 38.5t155.5 104t104 156t39 189.5t-39 189.5t-104 156t-155.5 104t-189.5 38.5zM523 -123q-86 0 -164.5 33.5t-135 90t-90 135t-33.5 164.5q0 115 56.5 212.5t154 154t212.5 56.5t212 -56.5t154 -154t57 -212.5q0 -163 -110 -284
q-106 -117 -263 -136q-25 -3 -50 -3zM523 -123z" />
    <glyph glyph-name="uniE677" unicode="&#xe677;" 
d="M512 747q-91 0 -174 -35t-143 -95t-95 -143t-35 -174t35 -174t95 -143t143 -95t174 -35t174 35t143 95t95 143t35 174q0 73 -22.5 141t-64 123t-96.5 96.5t-123 64t-141 22.5zM512 -80q-77 0 -147.5 30t-121.5 81t-81 121.5t-30 147.5q0 103 51 190.5t138.5 138.5
t190.5 51t190.5 -51t138.5 -138.5t51 -190.5t-51 -190.5t-138.5 -138.5t-190.5 -51zM533 452q-9 8 -21 8t-21 -8l-207 -207q-8 -8 -8 -20.5t8.5 -21t21 -8.5t20.5 9l186 185l186 -186q8 -8 20.5 -8t21.5 8q5 6 7 13.5t0 15t-7 13.5l-207 207v0z" />
    <glyph glyph-name="uniE678" unicode="&#xe678;" 
d="M2 810v-1022h1022v1022h-1022zM960 -148h-895v894h895v-894zM704 235h64v-64h-64v64zM576 363h64v-64h-64v64zM768 171h64v-64h-64v64zM513 427h63v-64h-63v64zM640 299h64v-64h-64v64zM257 171h64v-64h-64v64zM321 235h64v-64h-64v64zM449 363h64v-64h-64v64zM385 299
h64v-64h-64v64z" />
    <glyph glyph-name="uniE679" unicode="&#xe679;" 
d="M512 832q-122 0 -225 -60t-163 -163t-60 -225t60 -225t163 -163t225 -60t225 60t163 163t60 225t-60 225t-163 163t-225 60zM512 -8q-162 0 -277 115t-115 277t115 277t277 115t277 -115t115 -277t-115 -277t-277 -115zM537 511q-13 13 -25 11q-4 0 -8.5 -1t-8.5 -3.5
t-8 -6.5l-214 -214q-8 -9 -8 -20.5t8 -19.5t19.5 -8t20.5 8l199 199l199 -199q9 -8 20.5 -8t19.5 8q5 5 7 12.5t0 14.5t-7 13zM537 511z" />
    <glyph glyph-name="uniE67A" unicode="&#xe67a;" 
d="M496 -45q2 -3 6 -4.5t9 -1.5q8 0 15 6h-30zM526 -45l403 386q14 13 13.5 31.5t-14 31t-32 12.5t-32.5 -12l-353 -339l-354 339q-13 12 -32 12t-32.5 -12.5t-13.5 -31t13 -31.5l404 -386h30zM495 255q3 -3 7 -4.5t8 -1.5q9 0 15 6h-30zM525 255l404 386q13 13 12.5 31.5
t-13.5 31t-32 12.5t-32 -12l-354 -339l-353 339q-9 8 -20.5 11t-23.5 0t-20.5 -11.5t-12 -20t-0.5 -22.5t11 -20l404 -386h30z" />
    <glyph glyph-name="uniE67B" unicode="&#xe67b;" 
d="M286 285l-46 -45l272 -272l272 272l-46 45l-226 -226zM286 605l-46 -45l272 -272l272 272l-46 45l-226 -226z" />
    <glyph glyph-name="uniE67C" unicode="&#xe67c;" 
d="M528 35l-249 249l45 45l249 -249zM483 80l249 249l45 -45l-249 -249zM528 259l-249 249l45 45l249 -249zM483 304l249 249l45 -45l-249 -249z" />
    <glyph glyph-name="uniE67D" unicode="&#xe67d;" horiz-adv-x="1025" 
d="M512 812q-104 0 -199 -40.5t-163.5 -109t-109 -163.5t-40.5 -199t40.5 -199t109 -163.5t163.5 -109t199 -40.5t199 40.5t163.5 109t109 163.5t40.5 199t-40.5 199t-109 163.5t-163.5 109t-199 40.5zM512 -132q-117 0 -216.5 58t-157.5 157.5t-58 216.5t58 216.5
t157.5 157.5t216.5 58q70 0 136 -22t119 -62t93 -93t62 -119t22 -136q0 -166 -111 -289q-107 -119 -266 -140q-28 -3 -55 -3zM512 252l-160 160l-64 -64l224 -224l224 224l-64 64z" />
    <glyph glyph-name="uniE67E" unicode="&#xe67e;" 
d="M485 248l26 -27h1l26 27l421 420l-26 26l-421 -420l-421 421l-26 -26zM932 379l-421 -420l-420 421l-26 -26l420 -421l26 -26v0l26 26l421 420z" />
    <glyph glyph-name="uniE67F" unicode="&#xe67f;" 
d="M481 334q12 -12 30 -11q4 0 7.5 0.5t7.5 1.5t7.5 3.5t6.5 5.5l331 332q11 11 11 26.5t-11 26.5q-4 4 -9.5 7t-11 3.5t-11.5 0t-11 -3.5t-10 -7l-307 -308l-308 308q-11 11 -26.5 11t-26.5 -11q-5 -4 -7.5 -9.5t-3.5 -11.5t0 -11.5t3.5 -11t7.5 -9.5zM946 344
q-11 11 -26.5 11t-26.5 -11l-382 -384l-383 384q-11 11 -26.5 11t-26.5 -11q-4 -4 -6.5 -8.5t-3.5 -9t-1 -9.5t1 -9.5t3.5 -9t6.5 -7.5l406 -407q12 -12 30 -11q4 0 7.5 0.5t7.5 1.5t7.5 3.5t6.5 5.5l406 407q11 11 11 26.5t-11 26.5z" />
    <glyph glyph-name="uniE680" unicode="&#xe680;" 
d="M496 39q6 -6 15 -6q4 0 8 1.5t7 4.5h-30zM526 39l403 386q9 9 12 20t-0.5 22.5t-12.5 19.5q-13 13 -31.5 13t-32.5 -12l-353 -339l-354 339q-9 8 -20.5 11t-23 0t-20.5 -12q-14 -12 -14 -30.5t13 -31.5l404 -386h30zM495 339q3 -3 7 -4.5t8 -1.5q9 0 15 6h-30zM525 339
l404 386q9 9 11.5 20t-0.5 22.5t-12 20.5q-13 12 -32 12t-32 -12l-354 -339l-353 339q-9 8 -20.5 11t-23.5 0t-20 -11q-14 -13 -14.5 -31.5t12.5 -31.5l404 -386h30z" />
    <glyph glyph-name="uniE681" unicode="&#xe681;" 
d="M521 737q-2 3 -4.5 4.5t-5.5 1.5t-6 -1.5t-5 -4.5l-211 -294q-2 -4 -2.5 -7.5t2.5 -5.5t8 -2h108q5 0 9.5 -2.5t7.5 -6.5t3 -9l6 -40q1 -7 7.5 -12.5t13.5 -5.5h41h36h40q4 0 7.5 1.5t6.5 4t5 5.5t2 7l6 40q1 7 7 12.5t14 5.5h108q7 0 9.5 4.5t-2.5 10.5zM460 300
q-8 0 -12.5 -5.5t-3.5 -12.5l4 -28q1 -5 4 -9t7.5 -6.5t9.5 -2.5h24h36h23q8 0 14 5.5t7 12.5l4 28q1 7 -3.5 12.5t-11.5 5.5h-33h-36h-33zM493 68q-7 0 -11.5 -5.5t-3.5 -12.5l2 -12q1 -7 6 -12.5t11 -5.5h28q6 0 10.5 5.5t5.5 12.5l2 12q1 7 -3 12.5t-12 5.5h-35zM477 184
q-4 0 -7 -1.5t-5 -4t-3 -5.5t-1 -7l4 -28q2 -7 8 -12.5t13 -5.5h7h36h6q8 0 14 5.5t7 12.5l4 28q1 7 -3.5 12.5t-11.5 5.5h-16h-36h-16z" />
    <glyph glyph-name="uniE682" unicode="&#xe682;" 
d="M512 806q-103 0 -196 -40.5t-160 -108t-106.5 -161t-39.5 -196.5t40 -196.5t107.5 -161t161.5 -108t196.5 -40.5t196 40.5t161 108t108 161t40.5 196.5q-1 46 -9.5 90.5t-24 85.5t-38 79t-50.5 70.5t-61 61t-71 50t-79 37t-85.5 24t-90.5 8.5zM730 -20l-218 131
l-218 -131l55 246l-189 170l253 22l99 234l99 -234l253 -22l-192 -166z" />
    <glyph glyph-name="uniE683" unicode="&#xe683;" horiz-adv-x="1025" 
d="M512 553q-58 137 -170 181q-104 41 -199 -13q-102 -59 -132 -194q-11 -47 -11 -97q0 -37 8 -70t21 -58.5t34 -50.5t41 -43t48 -38t49.5 -33t51 -31.5t47.5 -29.5q81 -54 141.5 -122.5t71.5 -106.5q8 35 71 105t140 126q20 14 53.5 35t58.5 37.5t56 39t52.5 46.5t41 53
t29 65.5t9.5 77.5q-1 130 -63.5 213t-145.5 99t-170.5 -33t-132.5 -158z" />
    <glyph glyph-name="uniE684" unicode="&#xe684;" 
d="M513 263l134 192l-134 -192l220 -87l-220 87l-1 -262l1 262l-222 -87l222 87l-136 192zM512 812q-14 0 -27 -5t-23 -15t-16 -23l-115 -248l-264 -41q-20 -3 -36 -16.5t-22.5 -33.5t-2 -40t19.5 -35l193 -201l-45 -280q-3 -21 5 -40.5t25 -31.5q19 -14 43 -14q18 0 35 9
l230 125l230 -125q17 -9 36 -9q4 0 8.5 0.5t8.5 1.5t8.5 3t8.5 4t8 5q17 12 25 31.5t5 40.5l-45 279l193 202q31 32 17 75q-4 13 -12.5 23.5t-20.5 17.5t-25 9l-264 41l-115 248q-4 10 -11 18t-15.5 13.5t-18.5 8.5t-21 3v0zM512 812z" />
    <glyph glyph-name="uniE685" unicode="&#xe685;" 
d="M512 828q-72 0 -139.5 -22.5t-122 -63.5t-95 -95.5t-63 -122.5t-22.5 -140q0 -90 35.5 -172.5t95 -142t142 -94.5t172.5 -35t172 35t142 94.5t95 142t35 172.5q-1 72 -24 140t-64.5 122.5t-96 95.5t-122.5 63.5t-140 22.5zM703 103l-191 115l-191 -115l48 216l-166 149
l222 20l87 205l87 -205l222 -20l-168 -146z" />
    <glyph glyph-name="uniE686" unicode="&#xe686;" 
d="M504 708q-108 0 -200 -48t-145.5 -131t-53.5 -181q0 -90 45.5 -167.5t124.5 -127.5v-174l154 116q37 -7 75 -7q109 0 201 48.5t145.5 131t53.5 180.5q0 73 -31.5 140t-85 115t-127.5 76.5t-156 28.5zM504 28q-44 0 -89 11l-91 -65l1 97q-40 21 -73.5 50.5t-57 64.5
t-36.5 76.5t-13 85.5q0 87 48 160.5t131 116.5t180 43q74 0 140.5 -25.5t114.5 -68t76.5 -102t28.5 -124.5q0 -128 -100 -221q-102 -95 -249 -98q-6 0 -11 -1zM740 422q0 -4 -2 -8.5t-4.5 -7.5t-6.5 -5t-9 -2h-424q-8 0 -14.5 7t-6.5 16v10q0 9 6.5 16t14.5 7h424q6 0 11 -3
t8 -8.5t3 -11.5v-10zM683 250q0 -10 -5 -16.5t-11 -6.5h-321q-7 0 -11.5 6.5t-4.5 16.5v9q0 10 4.5 16.5t11.5 6.5h321q3 0 6 -1.5t5 -4.5t3.5 -7.5t1.5 -9.5v-9z" />
    <glyph glyph-name="uniE687" unicode="&#xe687;" 
d="M512 -152q-145 0 -267 70l-208 -59l48 210q-14 21 -25 43.5t-19.5 45t-14 46t-8.5 48t-3 48.5q0 92 39.5 175.5t106 144t158.5 96.5t192.5 36t192.5 -36t158.5 -96.5t106 -144t39.5 -175.5q0 -167 -120 -294q-117 -125 -294 -152q-41 -6 -82 -6zM253 -23l10 -6
q112 -69 249 -69q119 0 221 53.5t161 145t59 199.5t-59 199.5t-161 144.5t-221.5 53t-221.5 -53t-161 -144.5t-59 -199.5q0 -113 67 -210l6 -9l-32 -144zM405 298q0 -21 -15.5 -36.5t-37 -15.5t-37 15.5t-15.5 37t15.5 37t36.5 15.5q11 0 21 -4t17 -11t11 -17t4 -21z
M589 298q0 -21 -15.5 -36.5t-37.5 -15.5q-11 0 -20.5 4t-16.5 11t-11.5 17t-4.5 20q0 22 15.5 37.5t37.5 15.5q9 0 17 -2.5t14.5 -7.5t11.5 -11.5t7.5 -14.5t2.5 -17zM773 298q0 -21 -15.5 -36.5t-37.5 -15.5t-37.5 15.5t-15.5 37t15.5 37t37.5 15.5q14 0 26 -7t19.5 -19
t7.5 -27z" />
    <glyph glyph-name="uniE688" unicode="&#xe688;" 
d="M877 148q76 112 76 247q0 183 -132 313t-318 130q-52 0 -102.5 -12t-95 -33.5t-83.5 -52t-70 -69t-53 -82t-34 -93.5t-12 -101q0 -168 113 -293q110 -122 273 -145q32 -5 64 -5q121 0 225 59q51 -19 86 -30t52.5 -13t24 -1t12.5 3l4 2l4 3q16 14 13 39q-5 36 -47 134z
M806 150l8 -19q5 -12 10.5 -25t10.5 -25.5t9.5 -24.5t8.5 -22l-33 11q-18 6 -37.5 13t-38.5 14l-17 7l-15 -10q-9 -6 -19 -11t-19.5 -10t-20 -9t-20.5 -7.5t-20.5 -6.5t-21.5 -5.5t-22 -4.5t-22 -3t-22 -1.5t-22 -0.5q-106 0 -196 51.5t-142.5 140t-52.5 193.5q0 52 14 102
t39 92.5t61.5 78t79.5 60t93.5 38.5t103.5 14t104 -14t94 -38.5t79 -60t61.5 -78t39.5 -92.5t14 -102q0 -127 -77 -229zM387 395q0 -13 -7 -24.5t-18 -18t-25 -6.5q-20 0 -34.5 14.5t-14.5 34.5q0 6 1 11t3.5 10t6 9t8 7.5t9 6t10 3.5t11.5 1q21 0 35.5 -14t14.5 -34z
M337 346q-5 0 -10 1t-9.5 3t-8.5 4.5t-7 5.5l-6 8q-3 3 -5 7.5t-3 9.5t-1 10q0 20 15 34.5t35 14.5q33 0 46 -29q4 -10 4 -20q0 -8 -2.5 -15.5t-7 -13.5t-10.5 -10.5t-14 -7t-16 -2.5zM337 443q-20 0 -34.5 -14t-14.5 -34q0 -13 6.5 -24t18 -17.5t24.5 -6.5q20 0 34.5 14
t14.5 34t-14.5 34t-34.5 14zM551 395q0 -10 -4 -19t-10.5 -15.5t-15.5 -10.5t-19 -4q-21 0 -35.5 14.5t-14.5 34.5q0 10 4 19t10.5 15.5t15.5 10t19.5 3.5t19.5 -3.5t15.5 -10t10.5 -15.5t4 -19zM502 346q-21 0 -35.5 14.5t-14.5 34.5q0 10 4 19t10.5 15.5t15.5 10.5t20 4
q8 0 15.5 -2.5t13.5 -7t10.5 -10.5t7 -13.5t2.5 -15.5q0 -6 -1 -11.5t-3.5 -10t-6 -9t-8 -8t-9 -6t-10.5 -3.5t-11 -1zM502 443q-21 0 -35 -14t-14 -34q0 -13 6.5 -24t17.5 -17.5t25 -6.5q9 0 18.5 3.5t16 10t10 15.5t3.5 19t-3.5 18.5t-10 15t-16 10.5t-18.5 4zM717 395
q0 -13 -6.5 -24.5t-18 -18t-24.5 -6.5q-32 0 -45 29q-5 9 -5 20q0 10 4 19t10.5 15.5t16 10t19.5 3.5q20 0 34.5 -14t14.5 -34zM668 346q-21 0 -35.5 14.5t-14.5 34.5q0 13 6.5 24.5t18 18t25.5 6.5q20 0 35 -14.5t15 -34.5q0 -8 -2.5 -15.5t-7.5 -13.5t-11 -10.5t-13.5 -7
t-15.5 -2.5zM668 443q-10 0 -19 -4t-15.5 -10.5t-10.5 -15t-4 -18.5q0 -20 14.5 -34t34.5 -14t34.5 14t14.5 34t-14.5 34t-34.5 14z" />
    <glyph glyph-name="uniE689" unicode="&#xe689;" 
d="M512 831q-122 0 -224.5 -51t-162.5 -140t-60 -195t58.5 -199t157.5 -149l50 -142q18 -34 63 -7l136 74q7 5 13.5 8.5t12.5 6.5q111 11 204 69t146 148t53 191q0 40 -9 78.5t-26 73t-41.5 65.5t-54.5 57t-66 47t-76 35.5t-84 22t-90 7.5zM543 76l-152 -84q-18 -12 -22 -11
t-12 20l-42 123q-95 51 -154.5 138t-59.5 183q0 93 56.5 173t151.5 127t203 47q65 0 127 -17.5t112.5 -50t89.5 -75.5t60.5 -96t21.5 -108q0 -137 -113 -247t-267 -122zM506 488q-17 0 -29.5 -13.5t-12.5 -31.5t12 -31q3 -3 5.5 -5t5.5 -3.5t6 -2.5t6.5 -2t6.5 -1
q5 0 10.5 1.5t10.5 4.5t9 8q12 13 12 31q0 4 -1 8.5t-2.5 8.5t-4 8t-4.5 7q-6 6 -14 9.5t-16 3.5zM697 488q-3 0 -5.5 -0.5t-5.5 -1.5l-4 -2l-6 -2l-4 -4q-3 -1 -4 -3q-13 -14 -13 -32q1 -19 13 -31q12 -14 29 -14q8 0 16 3.5t14 10.5q12 13 12 31q0 6 -1.5 11.5t-4 10.5
t-6.5 9.5t-9 7.5t-10 4.5t-11 1.5zM327 488q-17 0 -29.5 -13.5t-12.5 -31.5q0 -9 3.5 -17t8.5 -14q13 -14 30 -14q8 0 16 3.5t13 10.5q13 13 13 31q0 9 -3.5 17t-9.5 15q-3 4 -8 7t-10.5 4.5t-10.5 1.5z" />
    <glyph glyph-name="uniE68A" unicode="&#xe68a;" 
d="M126 482q-19 -4 -39.5 -14.5t-41.5 -29.5t-34 -51t-11 -72q0 -13 9.5 -22.5t23.5 -9.5h1q14 0 23 10.5t9 23.5q-1 23 6 41.5t16 28.5t21 17t18 9t11 3q14 3 21.5 14.5t5.5 24.5q-2 9 -8 15.5t-14 9.5t-17 2zM1025 521q-4 21 -11 39.5t-16 33t-20 27t-23.5 21.5t-24.5 16
t-24 12t-22.5 7.5t-20.5 3.5q-13 2 -24 -6.5t-12.5 -22.5t7 -24.5t22.5 -12.5q4 0 10 -1.5t22 -8.5t28.5 -17t25.5 -31t17 -47q2 -12 11.5 -20t21.5 -8h2t4 1q13 2 21 13t6 25zM760 489q-20 0 -37 -12q-7 21 -24.5 33t-37.5 12q-28 0 -47 -20l-2 -3q-20 25 -50 25
q-17 0 -33 -9v100q0 21 -8 36t-23 22.5t-35 7.5q-30 0 -48.5 -18t-18.5 -48v-306q-52 28 -91 28q-46 0 -69 -36q-9 -15 -12 -29t-1 -25t10 -23.5t15 -20.5t21.5 -19t22.5 -16.5t24 -14.5q22 -15 33.5 -22.5t29.5 -22t27 -26.5t16 -29t7 -36v-66v-33h34h297h34v33v62
q33 123 33 170v233q0 33 -20.5 53t-46.5 20zM794 183q0 -44 -34 -166v-66h-297v66q0 32 -14 59.5t-35.5 46t-46.5 36.5t-48 31t-40 29t-21.5 29.5t6.5 34.5q13 21 41 21q23 0 54.5 -13.5t50.5 -27.5l20 -13v365q0 18 9.5 25.5t23.5 7.5q15 0 24 -7t9 -26v-232h33v66
q0 20 10 31t23.5 11t23 -11t9.5 -31v-66h33v66q0 8 2 14.5t5 11t7.5 8t9 5t9.5 1.5q6 0 12 -2.5t11 -7.5t7.5 -12.5t2.5 -17.5v-66h33v33q0 19 10 29.5t23 10.5q9 0 16.5 -4.5t12.5 -14t5 -21.5v-233z" />
    <glyph glyph-name="uniE68B" unicode="&#xe68b;" 
d="M512 -148q-91 0 -174 35.5t-143 95.5t-95.5 143t-35.5 174t35.5 174t95.5 143t143 95.5t174 35.5q73 0 141.5 -22.5t123.5 -64t96.5 -96.5t64 -123.5t22.5 -141.5q0 -91 -35.5 -174t-95.5 -143t-143 -95.5t-174 -35.5zM512 664q-59 0 -115 -18.5t-100.5 -52t-78 -78
t-52 -100.5t-18.5 -115q0 -99 48.5 -183t132.5 -132.5t183 -48.5q74 0 141.5 29t116 77.5t77.5 116t29 141.5q0 99 -48.5 183t-132.5 132.5t-183 48.5zM414 216l-126 308l322 -126l126 -322zM512 342q-11 0 -21 -5.5t-15.5 -15.5t-5.5 -21q0 -17 12.5 -29.5t29.5 -12.5
q11 0 21 5.5t15.5 15.5t5.5 21q0 17 -12.5 29.5t-29.5 12.5z" />
    <glyph glyph-name="uniE68C" unicode="&#xe68c;" 
d="M512 748q-91 0 -174 -35.5t-143 -95.5t-95.5 -143t-35.5 -174q0 -40 7.5 -80t21 -76t33 -69.5t44.5 -62.5t54 -54t62.5 -44t69.5 -33t75.5 -21t80.5 -7q91 0 173.5 35.5t142.5 95.5t95.5 142.5t35.5 173.5t-35.5 174t-95.5 143t-142.5 95.5t-173.5 35.5zM512 -75
q-77 0 -146.5 29.5t-120 80t-80 120t-29.5 145.5q0 102 50.5 188.5t137 137t188.5 50.5t188.5 -50.5t136.5 -137t50 -188.5q0 -149 -102 -257q-101 -107 -246 -118h-27zM512 554q-105 0 -179.5 -74.5t-74.5 -179.5t74.5 -179t179.5 -74q68 0 126.5 34t92.5 92.5t34 126.5
q0 105 -74 179.5t-179 74.5zM511.5 118q-75.5 0 -128.5 53.5t-53 128.5q0 37 14.5 71t38.5 58t58 38.5t71 14.5t70.5 -14.5t58 -38.5t39 -58t14.5 -71q0 -75 -53.5 -128.5t-129 -53.5z" />
    <glyph glyph-name="uniE68D" unicode="&#xe68d;" horiz-adv-x="1045" 
d="M382 502l360 -231l-230 16l-110 -213zM338 577l4 -77l20 -428l7 -149l167 322l360 -25zM522 730q90 0 171.5 -35t141 -94.5t94.5 -141t35 -171.5t-35 -171.5t-94.5 -141t-141 -94.5t-171.5 -35q-72 0 -139.5 22.5t-121.5 63.5t-95 95t-63.5 121.5t-22.5 139.5
q0 90 35 171.5t94.5 141t141 94.5t171.5 35zM522 790q-102 0 -195 -40t-160 -107t-107 -160t-40 -195t40 -195t107 -160t160 -107t195 -40t195 40t160.5 107t107 160t39.5 195t-39.5 195t-107 160t-160.5 107t-195 40z" />
    <glyph glyph-name="uniE68E" unicode="&#xe68e;" 
d="M512 750q-73 0 -142 -23t-124 -64.5t-96.5 -96.5t-64.5 -124t-23 -142q0 -91 36 -174.5t96 -143.5t143.5 -96t174.5 -36t174.5 36t143.5 96t96 143.5t36 174.5q0 171 -114 299q-109 123 -272 146q-32 5 -64 5zM512 -75q-102 0 -188 50.5t-136.5 136.5t-50.5 188t50.5 188
t136.5 136.5t188 50.5t188 -50.5t136.5 -136.5t50.5 -188q0 -61 -19 -118t-53.5 -103.5t-81 -81t-103.5 -53.5t-118 -19zM428 234l93 -224l207 524l-525 -207zM454 263l-155 64l362 143z" />
    <glyph glyph-name="uniE68F" unicode="&#xe68f;" 
d="M882 456q-21 48 -51 87t-69 68.5t-88 50.5q-29 12 -59.5 19.5t-61.5 10t-62 0t-61.5 -10t-59.5 -19.5q-147 -63 -209 -206q-15 -36 -23 -74.5t-8 -77t8 -77t23 -73.5q63 -144 209 -206q152 -65 304 0q49 20 88.5 50t69 69t50.5 87q31 72 31 151t-31 151zM575 218
l-383 -105l282 279l384 105zM481 262.5q18 -17.5 42.5 -17.5t42.5 17q7 7 11.5 16t5.5 18t0 18t-5.5 17.5t-11.5 15.5q-9 9 -20 13.5t-22.5 4.5t-22.5 -4.5t-20 -13.5q-18 -17 -18 -42t18 -42.5z" />
    <glyph glyph-name="uniE690" unicode="&#xe690;" horiz-adv-x="1025" 
d="M512 -162q-91 0 -174.5 35.5t-144 96t-96 144t-35.5 174.5t35.5 174.5t96 144t144 96t174.5 35.5t174.5 -35.5t144 -96t96 -144t35.5 -174.5t-35.5 -174.5t-96 -144t-144 -96t-174.5 -35.5zM512 717q-50 0 -98 -11t-90.5 -32.5t-80 -50.5t-66.5 -66.5t-50.5 -80
t-32.5 -90.5t-11 -98q0 -116 57.5 -215t156.5 -156.5t215 -57.5t215 57.5t156.5 156.5t57.5 215q0 87 -34 166.5t-91.5 137t-137 91.5t-166.5 34zM187 465v-360h305v-82h-54v-28h151v28h-54v82h304v360h-652zM216 174v262h596v-262h-596z" />
    <glyph glyph-name="uniE691" unicode="&#xe691;" 
d="M717 635h-410q-21 0 -36.5 -15.5t-15.5 -37.5v-297q0 -22 15.5 -37.5t36.5 -15.5h189v-67h-107q-7 0 -11.5 -4.5t-4.5 -11.5t4.5 -11.5t11.5 -4.5h244q6 0 11 4.5t5 11.5t-5 11.5t-11 4.5h-105v67h189q21 0 36.5 15.5t15.5 37.5v297q0 22 -15.5 37.5t-36.5 15.5zM737 285
q0 -8 -6 -14.5t-14 -6.5h-410q-8 0 -14 6.5t-6 14.5v37h450v-37zM737 354h-450v228q0 6 2.5 10.5t7.5 7.5t10 3h410q8 0 14 -6t6 -15v-228zM512 -74q-93 0 -177.5 36.5t-146 98t-98 146t-36.5 177.5t36.5 177.5t98 146t146 98t177.5 36.5t177.5 -36.5t146 -98t98 -146
t36.5 -177.5t-36.5 -177.5t-98 -146t-146 -98t-177.5 -36.5zM512 810q-69 0 -134 -21.5t-117.5 -61t-92 -92t-61 -117.5t-21.5 -134q0 -116 57 -214t155 -155t214 -57t214 57t155 155t57 214t-57 214t-155 155t-214 57z" />
    <glyph glyph-name="uniE692" unicode="&#xe692;" 
d="M808 777h-592q-26 0 -48.5 -13t-35.5 -35.5t-13 -49.5v-394q0 -40 28.5 -69t68.5 -29h264v-131h-165v-65h395v65h-164v131h262q40 0 68.5 29t28.5 69v394q0 40 -28.5 69t-68.5 29zM839 253h-654v458h654v-458zM807 679h-590v-394h590v394zM774 318h-524v328h524v-328z
" />
    <glyph glyph-name="uniE693" unicode="&#xe693;" 
d="M512 832q-122 0 -225 -60t-163 -163t-60 -225t60 -225t163 -163t225 -60t225 60t163 163t60 225t-60 225t-163 163t-225 60zM745 324h-1v0h-112v-171q0 -19 -13.5 -32t-31.5 -13h-142q-8 0 -14.5 2.5t-12 6.5t-10 9.5t-6.5 12.5t-2 14v171h-114h1q-14 1 -23.5 10.5
t-9.5 22.5q0 11 6 19l2 3l209 264q17 23 45 23q9 0 18 -3t16 -8.5t12 -12.5l208 -263h-1q9 -9 9 -22q0 -6 -3 -12.5t-7 -10.5t-10.5 -7t-12.5 -3z" />
    <glyph glyph-name="uniE694" unicode="&#xe694;" 
d="M512 832q-122 0 -225 -60t-163 -163t-60 -225t60 -225t163 -163t225 -60t225 60t163 163t60 225t-60 225t-163 163t-225 60zM712 231q-8 0 -16.5 2.5t-15.5 6.5l-2 -2l-166 146l-162 -145l-2 1q-15 -8 -32 -8q-27 0 -46.5 19t-19.5 47q0 17 8 32l-2 2l11 10q6 6 11 10
l188 169h2q18 18 45 18q6 0 12.5 -1t12 -3.5t10.5 -5.5t10 -8h1l191 -169l6 -4q3 -2 5 -5l12 -10l-3 -3q9 -15 9 -32q0 -14 -5.5 -26t-14 -21t-21 -14.5t-26.5 -5.5z" />
    </font>
</defs>
</svg>
