<svg xmlns="http://www.w3.org/2000/svg" width="22" height="21.995" viewBox="0 0 22 21.995">
  <g id="英国国旗" transform="translate(-5.69 -5.917)">
    <path id="路径_2545" data-name="路径 2545" d="M15.245,24.729A10.9,10.9,0,0,0,15.68,26.3h.907l-.727.472a11.123,11.123,0,0,0,.969,1.837L20.377,26.3h2.558l-5.263,3.431q.23.267.475.519l4.87-3.174v6.091a10.963,10.963,0,0,0,1.313.287V24.729Zm12.5,8.728a10.963,10.963,0,0,0,1.313-.287V27.146l4.83,3.147a11.155,11.155,0,0,0,1.335-1.649l-3.6-2.343h2.558l1.733,1.13c.1-.2.188-.4.272-.6l-.811-.529h1.016a10.807,10.807,0,0,0,.435-1.575H27.745v8.731ZM24.329,11.719a10.963,10.963,0,0,0-1.313.287v6.219L18.07,15a11.286,11.286,0,0,0-1.256,1.587l3.505,2.284H17.761l-1.634-1.065q-.163.341-.3.692l.573.373H15.68a10.776,10.776,0,0,0-.435,1.572h9.084Zm12.5,8.728a10.779,10.779,0,0,0-.435-1.572h-.821l.658-.428a11.1,11.1,0,0,0-.959-1.839l-3.478,2.267H29.234l5.2-3.391c-.153-.18-.309-.353-.475-.524l-4.9,3.2V12.008a10.964,10.964,0,0,0-1.313-.287v8.726H36.83Z" transform="translate(-9.347 -5.676)" fill="#fff"/>
    <path id="路径_2546" data-name="路径 2546" d="M35.271,39.327c.057.161.119.316.183.472l.727-.472Zm.141-7.8q-.074.185-.141.373h.714Zm18.141-3.54a10.994,10.994,0,0,0-4.9-2.951V31.18ZM42.608,25.032a11,11,0,0,0-4.946,2.993l4.946,3.223Zm-4.87,18.243a10.982,10.982,0,0,0,4.87,2.917V40.1ZM55.986,31.9q-.078-.215-.163-.428l-.658.428ZM48.649,46.192a10.99,10.99,0,0,0,4.83-2.875l-4.83-3.147v6.022Zm7.131-6.338q.109-.262.205-.529H54.97Z" transform="translate(-28.938 -18.7)" fill="#002377"/>
    <path id="路径_2547" data-name="路径 2547" d="M18.4,27.781V19.055h9.084a11.139,11.139,0,0,0,0-4.281H18.4V6.048a10.82,10.82,0,0,0-1.634-.131h-.148a11.092,11.092,0,0,0-1.634.131v8.726H5.9a11.139,11.139,0,0,0,0,4.281h9.084v8.726a10.8,10.8,0,0,0,1.634.131h.146a11.5,11.5,0,0,0,1.636-.131Z" transform="translate(0)" fill="#c2121f"/>
    <path id="路径_2548" data-name="路径 2548" d="M71.25,195.819l3.6,2.343a11.108,11.108,0,0,0,.7-1.214l-1.733-1.13Zm.168-7.426,3.478-2.267A10.951,10.951,0,0,0,74.06,185l-5.2,3.392h2.558Zm-11.472,0-3.505-2.284a11.353,11.353,0,0,0-.69,1.219l1.634,1.065ZM60,195.819l-3.545,2.309a11.308,11.308,0,0,0,.84,1.12l5.263-3.431H60Z" transform="translate(-48.973 -175.194)" fill="#c2121f"/>
  </g>
</svg>
