<svg xmlns="http://www.w3.org/2000/svg" width="22" height="22" viewBox="0 0 22 22">
  <g id="中国国旗" transform="translate(-0.74 -0.15)">
    <path id="路径_2543" data-name="路径 2543" d="M.74,11.15a11,11,0,1,0,11-11A11,11,0,0,0,.74,11.15Z" fill="#de2910"/>
    <path id="路径_2544" data-name="路径 2544" d="M138.878,190.442l1.061,3.129h3.43L140.59,195.6l1.029,3.1-2.737-1.845-2.741,1.845,1.029-3.1-2.758-2.034h3.43l1.036-3.129Zm11.008,6.241.343,1.012h1.113l-.9.662.336,1-.889-.6-.886.6.333-1-.893-.662h1.11l.336-1.012h0Zm-.746-4.624.76.756.994-.49-.515.987.746.756-1.057-.144-.532.928-.147-1.047-1.1-.2,1-.49-.15-1.061Zm-3.626-2.65,1.008.364.693-.868-.046,1.117.991.368-1.019.319-.088,1.064-.578-.886-1.075.287.7-.868-.585-.9Zm0,11.009,1.008.368.693-.868-.046,1.117.991.368-1.019.319-.088,1.068-.578-.889-1.075.284.7-.868-.585-.9Z" transform="translate(-130.798 -184.696)" fill="#ffdc00"/>
  </g>
</svg>
