<svg xmlns="http://www.w3.org/2000/svg" xmlns:xlink="http://www.w3.org/1999/xlink" width="22" height="22" viewBox="0 0 22 22">
  <defs>
    <clipPath id="clip-path">
      <circle id="椭圆_1272" data-name="椭圆 1272" cx="11" cy="11" r="11" transform="translate(648 734)" fill="#868686"/>
    </clipPath>
  </defs>
  <g id="蒙版组_357" data-name="蒙版组 357" transform="translate(-648 -734)" clip-path="url(#clip-path)">
    <g id="slovenian-flag-01" transform="translate(649.5 734)">
      <rect id="矩形_2606" data-name="矩形 2606" width="44" height="22" transform="translate(-4.5)" fill="#ec2126"/>
      <rect id="矩形_2607" data-name="矩形 2607" width="44" height="14.667" transform="translate(-4.5)" fill="#005ea5"/>
      <rect id="矩形_2608" data-name="矩形 2608" width="44" height="7.333" transform="translate(-4.5)" fill="#fff"/>
      <path id="路径_2700" data-name="路径 2700" d="M115.131,55.3l.231-3.409a6.647,6.647,0,0,0-5.692,0L109.9,55.3a3.691,3.691,0,0,0,2.615,3.284,3.69,3.69,0,0,0,2.615-3.284" transform="translate(-106.002 -47.585)" fill="#005ea5"/>
      <path id="路径_2701" data-name="路径 2701" d="M119.478,86.642a3.276,3.276,0,0,0,2.134,2.39,3.278,3.278,0,0,0,2.135-2.39l-1.067-1.423-.429.572-.644-1.281-.64,1.281-.429-.572-1.067,1.423" transform="translate(-115.101 -78.464)" fill="#fff"/>
      <g id="wave" transform="translate(4.472 8.534)">
        <path id="路径_2702" data-name="路径 2702" d="M120.91,119.28a.71.71,0,0,0,.972.26h0a.715.715,0,0,1,.712,0,.71.71,0,0,0,.711,0,.715.715,0,0,1,.715,0,.71.71,0,0,0,.972-.26h0v.205a.71.71,0,0,1-.972.26h0a.715.715,0,0,0-.715,0,.71.71,0,0,1-.711,0,.715.715,0,0,0-.712,0,.71.71,0,0,1-.972-.26h0Z" transform="translate(-120.91 -119.28)" fill="#005ea5"/>
      </g>
      <g id="wave-2" data-name="wave" transform="translate(4.469 8.943)">
        <path id="路径_2703" data-name="路径 2703" d="M120.864,125a.71.71,0,0,0,.972.26h0a.715.715,0,0,1,.712,0,.71.71,0,0,0,.711,0,.715.715,0,0,1,.715,0,.71.71,0,0,0,.968-.26h0v.205a.711.711,0,0,1-.972.261h0a.711.711,0,0,0-.715,0,.715.715,0,0,1-.711,0,.711.711,0,0,0-.712,0,.715.715,0,0,1-.972-.26h0Z" transform="translate(-120.86 -125)" fill="#005ea5"/>
      </g>
      <g id="s" transform="translate(6.28 5.065)">
        <path id="路径_2704" data-name="路径 2704" d="M146.411,70.8l.054.175.177-.041-.124.134.124.134-.177-.041-.054.175-.054-.175-.177.041.124-.134-.124-.134.177.041Z" transform="translate(-146.18 -70.8)" fill="#fedc00"/>
      </g>
      <g id="s-2" data-name="s" transform="translate(5.48 3.998)">
        <path id="路径_2705" data-name="路径 2705" d="M135.23,55.88l.054.175.177-.041-.124.133.124.134-.175-.041-.054.175-.053-.175-.178.041.124-.134L135,56.014l.178.041Z" transform="translate(-135 -55.88)" fill="#fedc00"/>
      </g>
      <g id="s-3" data-name="s" transform="translate(7.081 3.998)">
        <path id="路径_2706" data-name="路径 2706" d="M157.6,55.88l.053.175.178-.041-.124.133.124.134-.178-.041-.053.175-.054-.175-.177.041.124-.134-.124-.133.177.041Z" transform="translate(-157.37 -55.88)" fill="#fedc00"/>
      </g>
      <path id="路径_2707" data-name="路径 2707" d="M109.83,58.93l.236,3.486a3.486,3.486,0,0,0,2.41,3.082,3.486,3.486,0,0,0,2.41-3.082l.236-3.486c.066.031.132.062.2.091l-.228,3.409a3.69,3.69,0,0,1-2.615,3.284,3.691,3.691,0,0,1-2.615-3.284l-.234-3.409c.067-.029.134-.059.2-.091" transform="translate(-105.965 -54.714)" fill="#ec2126"/>
    </g>
  </g>
</svg>
