<svg id="克罗地亚" xmlns="http://www.w3.org/2000/svg" width="22" height="22" viewBox="0 0 22 22">
  <path id="路径_2685" data-name="路径 2685" d="M22,315.874a10.985,10.985,0,0,0-.684-3.827L11,311.57l-10.316.477a11.044,11.044,0,0,0,0,7.653L11,320.178l10.316-.478A10.984,10.984,0,0,0,22,315.874" transform="translate(0 -304.874)" fill="#f0f0f0"/>
  <path id="路径_2686" data-name="路径 2686" d="M42.146,697.066a11,11,0,0,0,10.316-7.174H31.83a11,11,0,0,0,10.316,7.174" transform="translate(-31.146 -675.066)" fill="#0052b4"/>
  <path id="路径_2687" data-name="路径 2687" d="M31.83,7.174H52.462a11,11,0,0,0-20.632,0" transform="translate(-31.146)" fill="#d80027"/>
  <path id="路径_2688" data-name="路径 2688" d="M340.5,203.6h-1.913l.318-2.391,1.275-.957,1.276.957v1.913Zm-5.739,0h1.913l-.318-2.391-1.276-.957-1.276.957v1.913Z" transform="translate(-326.629 -195.951)" fill="#338af3"/>
  <path id="路径_2689" data-name="路径 2689" d="M455.041,203.6H452.49v-2.391l1.276-.957,1.275.957Z" transform="translate(-442.766 -195.951)" fill="#0052b4"/>
  <path id="路径_2690" data-name="路径 2690" d="M333.821,333.807v5.261a3.823,3.823,0,0,0,1.538,3.065l.669-.167.845.85a3.851,3.851,0,0,0,.773.078,3.805,3.805,0,0,0,.769-.078l.964-.8.554.118a3.819,3.819,0,0,0,1.538-3.063v-5.261Z" transform="translate(-326.647 -326.633)" fill="#f0f0f0"/>
  <path id="路径_2691" data-name="路径 2691" d="M333.8,333.785h1.531v1.531H333.8Zm3.061,0h1.53v1.531h-1.53Zm3.061,0h1.531v1.531h-1.531Z" transform="translate(-326.629 -326.612)" fill="#d80027"/>
  <path id="路径_2692" data-name="路径 2692" d="M335.334,405.022h1.531v1.531h-1.531Zm3.061,0h1.53v1.531H338.4Zm-4.592,1.53h1.531v1.531H333.8Zm1.531,1.531h1.531v1.531h-1.531Z" transform="translate(-326.629 -396.318)" fill="#d80027"/>
  <path id="路径_2693" data-name="路径 2693" d="M341.364,476.2h1.53v1.531h-1.53Zm3.061,0h1.531v1.531h-1.531Zm-1.53,1.531h1.53v1.531h-1.53Zm-1.531,1.53h1.53V480.8h-1.53Zm-1.531,0H338.4a3.809,3.809,0,0,0,.744,1.53h.688Zm4.591,1.53h.688a3.811,3.811,0,0,0,.744-1.53h-1.432Zm-4.591,0v.668a3.811,3.811,0,0,0,1.531.691V480.8Zm3.061,0v1.358a3.8,3.8,0,0,0,1.53-.691V480.8Z" transform="translate(-331.129 -465.971)" fill="#d80027"/>
</svg>
