<svg xmlns="http://www.w3.org/2000/svg" width="22" height="21.991" viewBox="0 0 22 21.991">
  <g id="西班牙" transform="translate(-89.06 -86.214)">
    <path id="路径_2554" data-name="路径 2554" d="M90.63,289.595a.936.936,0,0,1-.239-.367,10.372,10.372,0,0,1-.876-2.1,11.067,11.067,0,0,1,.688-8.038,8.848,8.848,0,0,1,.612-1.062.5.5,0,0,1,.3-.043h17.9a.518.518,0,0,1,.281.039,8.781,8.781,0,0,1,.844,1.551,10.88,10.88,0,0,1,.877,5.406,10.762,10.762,0,0,1-1.424,4.494c-.027.045-.045.1-.1.119" transform="translate(0 -186.782)" fill="#fdc200"/>
    <path id="路径_2555" data-name="路径 2555" d="M168.943,102.823c.048,0,.1,0,.143-.006a.812.812,0,0,1-.2.373,10.912,10.912,0,0,1-3.928,3.654,10.782,10.782,0,0,1-3.6,1.227,11.051,11.051,0,0,1-4.292-.171,10.81,10.81,0,0,1-3.957-1.854,11.072,11.072,0,0,1-2.7-2.879.839.839,0,0,1-.181-.348l18.717,0ZM150.468,91.164A10.959,10.959,0,0,1,158,86.335a11.3,11.3,0,0,1,2.642-.078,10.931,10.931,0,0,1,7.1,3.5,9.369,9.369,0,0,1,1.111,1.434.409.409,0,0,1-.248.029H153.124c-.826,0-1.651,0-2.477,0-.062,0-.144.036-.18-.057Z" transform="translate(-59.575)" fill="#c40b1e"/>
    <path id="路径_2556" data-name="路径 2556" d="M498.216,524.168a3.065,3.065,0,0,1,.026-.706.212.212,0,0,1,.011-.052,2.022,2.022,0,0,1,.182-.239.863.863,0,0,1,.544-.21.289.289,0,0,0,.1-.031.816.816,0,0,1,.632.678c.013.067.02.14.1.17.366.032.732.011,1.1.012.409,0,.34.031.343.336s-.013.6,0,.892a1.622,1.622,0,0,1-.291,1.11.034.034,0,0,1-.027.01,2.132,2.132,0,0,1-.514.262l0,0a1.041,1.041,0,0,1-.47.042c-.064,0-.127,0-.191,0a.743.743,0,0,1-.492-.232.37.37,0,0,1-.051-.05c-.051-.075-.114-.141-.169-.213-.064-.1-.453.258-.513.156a6.719,6.719,0,0,1-.043-.767c0-.063-.023-.831-.032-.894" transform="translate(-398.5 -425.359)" fill="#aa1619"/>
    <path id="路径_2557" data-name="路径 2557" d="M526.229,460.128c-.067-.03-.051-.094-.063-.149-.063-.283-.163-.541-.484-.623-.047-.012-.057-.1-.126-.056-.1,0-.168-.048-.168-.164,0-.466,0-.932,0-1.4a.22.22,0,0,1,.018-.077.239.239,0,0,1,.232-.108c.643-.018,1.285.026,1.927.013.139,0,.161.078.167.2.021.424.008.85.017,1.274a.983.983,0,0,1-.018.592h0a2.03,2.03,0,0,1,0,.425c.005.067-.041.088-.1.087-.466-.007-.931.013-1.4-.011Z" transform="translate(-424.979 -361.677)" fill="#dadada"/>
    <path id="路径_2558" data-name="路径 2558" d="M462.744,418.324Zm1.911.683c-.055.049.078.148.093.2.054.186-.243.1-.336.138-.027.011.558-.023.53.006.3,0,.074-.018.373-.018.247,0,.246,0,.247.254q0,.621.008,1.242a.023.023,0,0,1-.037,0c-.009-.424-.022-.848-.023-1.272,0-.128-.045-.166-.166-.166-.643,0-3.271,0-3.688,0-.311-.123.039-.469-.039-.384h3.039Z" transform="translate(-362.776 -323.473)" fill="#9f8604"/>
    <path id="路径_2559" data-name="路径 2559" d="M429.079,360.753a.307.307,0,0,1,.106-.007.968.968,0,0,1,.3.061,1.711,1.711,0,0,1,.369-.087c.251-.031.425.129.625.228.024.012.023.056.071.043a1.06,1.06,0,0,1,.778.1.648.648,0,0,1,.366.59,2.191,2.191,0,0,1-.978,1.22h-3.039c-.228-.028-1.231-1.274-.949-1.69" transform="translate(-328.834 -267.364)" fill="#9f8604"/>
    <path id="路径_2560" data-name="路径 2560" d="M427.694,359.274c.227-.491,1.111-.271,1.179-.265.095.008.18-.132.242-.208,0,0,.247-.166.4-.066a.715.715,0,0,0,.559.056" transform="translate(-329.826 -265.402)" fill="#9f8604"/>
    <path id="路径_2561" data-name="路径 2561" d="M615.894,512.349c-.038-.015-.06-.072-.109-.052a2.318,2.318,0,0,1-.5.074.193.193,0,0,0-.152.117,3.314,3.314,0,0,1,0-.594h.037l.658-.039a.247.247,0,0,1,.075-.029.719.719,0,0,1,.213.007c.166.052.345-.015.508.061.116.121.286.144.42.235.111.075.156.151.1.277a1.1,1.1,0,0,0-.043.136.42.42,0,0,1-.441.349" transform="translate(-512.378 -414.538)" fill="#ab2c17"/>
    <path id="路径_2562" data-name="路径 2562" d="M631.764,540.329c.045.017.09.032.134.05.385.164.338.26.252.609-.027.108-.17.123-.2.238,0,.016-.046-.011-.058-.034a.206.206,0,0,1-.021-.211c.072-.115.017-.171-.085-.213a.111.111,0,0,1-.045.01c-.094-.031-.188-.063-.283-.093-.126-.052-.25-.11-.378-.158-.084-.016-.1-.111-.163-.148-.032-.02-.065-.038-.094-.06a.431.431,0,0,1-.119-.585.2.2,0,0,1,.158-.1.192.192,0,0,0,.142-.059" transform="translate(-527.495 -441.576)" fill="#ab1719"/>
    <path id="路径_2563" data-name="路径 2563" d="M361.811,540.678c-.1.046-.539.353-.641.39s-.191.07-.284.114a.2.2,0,0,1-.108,0c-.094.048-.083.125-.054.205s.041.153-.036.2-.253-.29-.3-.328c-.175-.136.141-.471.34-.576.258-.183.818-.641.879-.686" transform="translate(-264.218 -441.985)" fill="#aa1819"/>
    <path id="路径_2564" data-name="路径 2564" d="M408.586,538.609c.113.023.306.132.324.263.022.165.1.345-.116.459" transform="translate(-311.215 -440.629)" fill="#aa1819"/>
    <path id="路径_2565" data-name="路径 2565" d="M358.868,512.993c-.722-.228-1.315.622-1.487.621-.231-.034-.657-.358-.617-.584.022-.124.474-.33.58-.38a4.84,4.84,0,0,1,1.523-.04" transform="translate(-260.739 -415.26)" fill="#a9231a"/>
    <path id="路径_2566" data-name="路径 2566" d="M372.227,622.138a.14.14,0,0,1-.114.047q-.495.013-.989,0a.137.137,0,0,1-.113-.047,3.207,3.207,0,0,1,.2-.541c.021-.017.045-.036.07-.031a3.921,3.921,0,0,0,.733,0,.32.32,0,0,1,.065.129" transform="translate(-274.617 -521.426)" fill="#b9a303"/>
    <path id="路径_2567" data-name="路径 2567" d="M447.411,560.231c.048-.049.028-.11.028-.166q0-.891,0-1.782a1.225,1.225,0,0,1,0-.127c.007-.064.021-.135.092-.153.086-.023.05.075.088.1a.15.15,0,0,0,.044.016.212.212,0,0,1,.042.165c0,.644,0,1.288,0,1.932,0,.08.038.221-.138.172l-.156-.158Z" transform="translate(-349.031 -459.514)" fill="#a31518"/>
    <path id="路径_2568" data-name="路径 2568" d="M482.984,631.886c.152.064.241.248.436.229a3.113,3.113,0,0,0,.344.058c.053.016.135.031.036.1a4.566,4.566,0,0,0-.518.126,3.33,3.33,0,0,1-1.58-.066h0c-.043-.035-.1-.022-.145-.042s-.1-.052-.081-.125a1.24,1.24,0,0,1,.271-.015,3.413,3.413,0,0,0,.366-.123,1.594,1.594,0,0,0,.544-.557" transform="translate(-382.207 -531.08)" fill="#cececb"/>
    <path id="路径_2569" data-name="路径 2569" d="M639.776,570.641l.047,0a6.269,6.269,0,0,0,.025,1.079.416.416,0,0,0,.068.155c-.016.089-.091.08-.15.081-.244.007-.489.009-.733,0-.063,0-.161.011-.142-.11.107-.086.082-.219.087-.323.018-.393.009-.787.007-1.181a.294.294,0,0,0-.03-.089c.079,0,.089.091.153.108-.016.329-.008.657-.008.986,0,.179.014.19.188.194.079,0,.159,0,.238,0,.208-.013.209-.013.21-.22,0-.168,0-.336,0-.5a.272.272,0,0,1,.039-.181Z" transform="translate(-535.528 -471.453)" fill="#a8920a"/>
    <path id="路径_2570" data-name="路径 2570" d="M437.8,557.6c.15-.029.19.036.188.182-.008.551-.005,1.1,0,1.653a.7.7,0,0,1-.06.336c-.1-.055-.119-.164-.156-.26a.082.082,0,0,0,.021-.059,13.414,13.414,0,0,1-.039-1.722A.168.168,0,0,1,437.8,557.6Z" transform="translate(-339.61 -459.118)" fill="#b8a100"/>
    <path id="路径_2571" data-name="路径 2571" d="M374.3,436.111c.014-.139-.15-.17-.174-.286.075-.047.171.008.243-.052.213.026.182-.149.219-.267v0c.06-.034.087,0,.106.05.064.165.064.165.187.039l.153.017c-.037.091-.058.174.079.2a.032.032,0,0,1,.02.05l-.095.13c-.1.162.062.124.122.165l0,.056a.068.068,0,0,1-.078.041,4.638,4.638,0,0,0-.7-.025.241.241,0,0,1-.185-.054c.022-.055.075-.027.1-.059Z" transform="translate(-277.654 -340.193)" fill="#6d5703"/>
    <path id="路径_2572" data-name="路径 2572" d="M645.114,530.631c-.3-.108-.3-.108-.316-.413,0-.052-.008-.1-.011-.157s0-.129,0-.194c.036-.045.072-.089.134-.034a.473.473,0,0,0,.213.047.157.157,0,0,1,.179.159,2.9,2.9,0,0,1,0,.491c-.011.138-.1.144-.2.1Z" transform="translate(-541.273 -432.056)" fill="#d9d8d8"/>
    <path id="路径_2573" data-name="路径 2573" d="M640.309,469.6l-.073,0c.013-.225.041-.451.031-.675a.691.691,0,0,0-.088-.4c.012-.083.081-.076.134-.079.222-.009.445-.011.667,0,.059,0,.152-.005.125.109-.07.047-.007.1-.008.145a.286.286,0,0,1-.053.176,2.7,2.7,0,0,0-.487-.018c-.192.011-.2.02-.2.216,0,.122,0,.243,0,.365a.215.215,0,0,1-.044.164Z" transform="translate(-536.785 -372.281)" fill="#a38f09"/>
    <path id="路径_2574" data-name="路径 2574" d="M637.409,456.054a.063.063,0,0,0-.072-.064c-.268,0-.535,0-.8,0-.017,0-.035.019-.052.03a.169.169,0,0,1-.087-.226c.033-.114.136-.093.223-.1.1-.049.193.015.292.006a.961.961,0,0,0,.431-.1c.007.034,0,.071.041.095.165.094.173.229.026.356Z" transform="translate(-533.087 -359.782)" fill="#c1a900"/>
    <path id="路径_2575" data-name="路径 2575" d="M636.428,631.485a.066.066,0,0,0,.074.064c.3,0,.6,0,.9,0,.018,0,.035-.02.053-.03.054.089.016.207.1.288a.145.145,0,0,1-.115.046c-.319.007-.638.011-.958,0a.133.133,0,0,1-.113-.048C636.389,631.7,636.309,631.57,636.428,631.485Z" transform="translate(-533.065 -531.09)" fill="#c1ab01"/>
    <path id="路径_2576" data-name="路径 2576" d="M377.836,468.4c-.043.125-.02.385-.079.507a.623.623,0,0,0-.391-.091c-.125,0-.256.036-.373-.038-.094-.067-.025-.3-.074-.378" transform="translate(-280.372 -372.244)" fill="#a48f08"/>
    <path id="路径_2577" data-name="路径 2577" d="M379.167,483.422l.015-.858c.216,0,.433,0,.648-.01.11,0,.08.091.116.139,0,.072,0,.145,0,.217a.8.8,0,0,0-.006.294.189.189,0,0,1-.02.15l-.752.068Z" transform="translate(-282.561 -386.032)" fill="#b7b2ab"/>
    <path id="路径_2578" data-name="路径 2578" d="M373.21,459.706c-.006-.055-.042-.066-.091-.066H372.4c-.048,0-.084.012-.091.067a.21.21,0,0,1-.117-.263c.033-.1.129-.09.212-.093l-.067.057a8.428,8.428,0,0,1,.932.04.2.2,0,0,1-.061.258Z" transform="translate(-275.758 -363.432)" fill="#bda600"/>
    <path id="路径_2579" data-name="路径 2579" d="M650.215,531.6c.121.017.174-.026.163-.157a3.628,3.628,0,0,1,0-.4c0-.125-.048-.19-.178-.183a.2.2,0,0,1-.173-.06l.452.047a.052.052,0,0,1,.056.009c.17.142.08.348.128.521a1.244,1.244,0,0,0-.019.4A1.956,1.956,0,0,1,650.215,531.6Z" transform="translate(-546.375 -433.029)" fill="#beb7b1"/>
    <path id="路径_2580" data-name="路径 2580" d="M653.54,482.776c.122,0,.243,0,.365,0a.112.112,0,0,1,.116.065l-.013.763a1.41,1.41,0,0,1-.507-.026c.208-.054.237-.208.216-.39a.861.861,0,0,1,0-.142c.007-.1-.007-.191-.134-.21A.05.05,0,0,1,653.54,482.776Z" transform="translate(-549.761 -386.245)" fill="#c3c3c0"/>
    <path id="路径_2581" data-name="路径 2581" d="M630.955,648.671c-.072-.134-.057-.169.067-.22a.658.658,0,0,1,.463-.017.53.53,0,0,0,.357-.014.446.446,0,0,1,.479.124.139.139,0,0,1,.012.109" transform="translate(-527.759 -547.56)" fill="#1c5da4"/>
    <path id="路径_2582" data-name="路径 2582" d="M642.091,447.855c-.214.228-.47.153-.723.1a.249.249,0,0,0-.108-.188,1.059,1.059,0,0,1,.714-.1.22.22,0,0,1,.155.1Z" transform="translate(-537.837 -352.034)" fill="#685303"/>
    <path id="路径_2583" data-name="路径 2583" d="M632.414,657.7c.013.109.009.186-.141.121a.579.579,0,0,0-.419,0,.336.336,0,0,1-.247.01.637.637,0,0,0-.481-.008c-.062.022-.115.037-.131-.051,0-.035-.007-.073.029-.1a.829.829,0,0,1,.558-.028.54.54,0,0,0,.329-.014.663.663,0,0,1,.5.068Z" transform="translate(-527.839 -556.534)" fill="#27639f"/>
    <path id="路径_2584" data-name="路径 2584" d="M367.53,643.729a1.246,1.246,0,0,1,.05.575,1.022,1.022,0,0,0-.585-.023.377.377,0,0,1-.263,0,.86.86,0,0,0-.511,0c-.164.023-.046-.514-.053-.577" transform="translate(-269.867 -542.989)" fill="#2c6498"/>
    <path id="路径_2585" data-name="路径 2585" d="M639.337,441.54c-.111,0-.2.1-.317.067a.093.093,0,0,1-.059-.067c-.007-.131.066-.23.2-.213.219.028.438-.01.654.022.068.01.143.023.172.1s-.052.115-.1.163v0Z" transform="translate(-535.597 -345.875)" fill="#7e2f0e"/>
    <path id="路径_2586" data-name="路径 2586" d="M639.068,433.9c.114-.166.092-.221-.115-.224-.091,0-.2-.069-.28.031-.082-.073-.186-.026-.278-.049a.207.207,0,0,0-.259.173.173.173,0,0,1,.114-.261c.12-.045.268-.02.36-.142a.055.055,0,0,1,.085,0,.481.481,0,0,0,.336.141c.083.008.148.032.156.125s.009.188-.12.2Z" transform="translate(-534.774 -338.167)" fill="#986c02"/>
    <path id="路径_2587" data-name="路径 2587" d="M630.579,645.158l-.022.074a2.069,2.069,0,0,1,0-.477c.01,0,.021.013.03.011.312-.087.627.083.943-.014a.509.509,0,0,1,.439.087.2.2,0,0,1-.009.139c-.172-.059-.328-.18-.531-.058a.359.359,0,0,1-.34-.013c-.175-.093-.33,0-.487.042-.065.019-.051.093,0,.142C630.624,645.123,630.592,645.137,630.579,645.158Z" transform="translate(-527.402 -543.993)" fill="#afb2b6"/>
    <path id="路径_2588" data-name="路径 2588" d="M368.893,655.179a.5.5,0,0,1-.186-.017.6.6,0,0,0-.4.019.249.249,0,0,1-.184.019.822.822,0,0,0-.54-.015.3.3,0,0,1-.11-.005v-.068a.65.65,0,0,1,.622-.009.158.158,0,0,0,.154,0,.608.608,0,0,1,.575-.006c.033.013.048-.007.068-.023,0,.035,0,.071,0,.105Z" transform="translate(-271.171 -554.02)" fill="#a4b2c1"/>
    <path id="路径_2589" data-name="路径 2589" d="M517.77,333.863c-.023,0-.085.044-.108.045-.05,0-.063-.042-.113-.045-.014,0-.085,0-.1,0-.033-.013-.213,0-.24-.025a1.749,1.749,0,0,1,.018-.177c.011-.061.116-.109.078-.157.046-.052.012-.1-.009-.146a.159.159,0,0,1,.07-.23c.061-.034.115-.051.163.026s.154.138.026.234c-.048.036-.012.076.011.111,0,.045-.044.094.006.133.031.024.058-.007.084-.024.041.091-.007.191.112.257Z" transform="translate(-417.014 -240.464)" fill="#b79401"/>
    <path id="路径_2590" data-name="路径 2590" d="M632.569,643.69a.484.484,0,0,1-.185-.035.324.324,0,0,0-.291,0,.523.523,0,0,1-.387.011.482.482,0,0,0-.428.015c-.089.052-.123.02-.122-.073.033-.05.088-.044.138-.053l1.186,0c.083.009.125.045.088.133Z" transform="translate(-527.997 -542.844)" fill="#1f5e9b"/>
    <path id="路径_2591" data-name="路径 2591" d="M367.421,646.257a1.017,1.017,0,0,1,.622,0,.432.432,0,0,0,.3-.021.358.358,0,0,1,.25-.021c.058.022.154.045.132.111-.029.087-.094,0-.14-.013a.236.236,0,0,0-.172-.009.652.652,0,0,1-.547,0,.263.263,0,0,0-.258.028.226.226,0,0,1-.182.034Z" transform="translate(-271.121 -545.418)" fill="#abb4be"/>
    <path id="路径_2592" data-name="路径 2592" d="M631.828,655.906l.026-.068a.6.6,0,0,1,.459-.042.5.5,0,0,0,.354.011.89.89,0,0,1,.557.028v.073a7.618,7.618,0,0,0-1.4,0Z" transform="translate(-528.652 -554.741)" fill="#a8b7c6"/>
    <path id="路径_2593" data-name="路径 2593" d="M412.241,513.8c-.162-.091-.044-.139.027-.2a.23.23,0,0,0,.036-.051l.1,0c-.035.119.017.238,0,.357" transform="translate(-314.696 -416.223)" fill="#b7610d"/>
    <path id="路径_2594" data-name="路径 2594" d="M401.246,531.3c.023.068-.005.143.033.208v0a1.063,1.063,0,0,0-.012.343c.017.067-.031.079-.081.085-.078,0-.1-.054-.106-.113a1.845,1.845,0,0,1,0-.427c.013-.087.057-.151.163-.1Z" transform="translate(-303.894 -433.488)" fill="#cfcbc8"/>
    <path id="路径_2595" data-name="路径 2595" d="M378.526,431.745a.649.649,0,0,0,0,.077c.033.183-.025.238-.223.21a.707.707,0,0,1-.138-.164c.1-.107.25-.048.357-.123Zm.294.087c-.024.072-.028.176-.134.158-.082-.013-.108-.088-.085-.173.016-.061-.033-.067-.075-.075,0-.048-.007-.1.056-.113.043-.007.065.034.072.071C378.672,431.794,378.79,431.757,378.82,431.832Z" transform="translate(-281.589 -336.431)" fill="#945409"/>
    <path id="路径_2596" data-name="路径 2596" d="M373.75,441.028a.14.14,0,0,1,.1-.2c.1.012.119.086.138.164l-.243.032Z" transform="translate(-277.275 -345.395)" fill="#9e2d11"/>
    <path id="路径_2597" data-name="路径 2597" d="M405.713,440.357a.168.168,0,0,0-.051-.029c-.055-.008-.117,0-.136-.073s.04-.108.089-.145c.1.055.193.114.1.247Z" transform="translate(-308.231 -344.692)" fill="#9d400e"/>
    <path id="路径_2598" data-name="路径 2598" d="M517.705,348.555c0,.042,0,.089-.06.091a.085.085,0,0,1-.1-.065c-.013-.059-.016-.118.065-.134l.09.108Zm-.351-.1c.14.008.107.085.065.165a.1.1,0,0,1-.161-.031c-.007-.073.05-.1.1-.134Z" transform="translate(-417.061 -255.413)" fill="#7c7f43"/>
    <path id="路径_2599" data-name="路径 2599" d="M406.743,454.77l-.192-.009a.189.189,0,0,1,.07-.155C406.583,454.719,406.7,454.718,406.743,454.77Z" transform="translate(-309.234 -358.81)" fill="#bda600"/>
    <path id="路径_2600" data-name="路径 2600" d="M537.722,566.143a.525.525,0,0,0-.268-.208c-.141-.04-.127-.206-.174-.319-.014-.035.044-.069.078-.04.109.092.311.086.309.3,0,.063.064.139.122.118s.046-.119.011-.166a.216.216,0,0,1-.025-.288c.035-.05-.017-.1-.055-.136s-.077,0-.109.028c-.059.051-.138.07-.186.017s0-.137.031-.191c.041-.069.112,0,.161,0,.169-.012.336.017.5,0,.03,0,.059-.031.088-.03.149,0,.284.1.452.016.073-.036.149.088.082.191a.2.2,0,0,0,.011.273.107.107,0,0,1,.021.106,2.7,2.7,0,0,0-.018.711,1.177,1.177,0,0,1-.187.511c-.05.082-.184.116-.218.233a.036.036,0,0,1-.022.022c-.193.02-.37.149-.575.086,0,0-.01-.008-.014-.008-.267.038-.394-.192-.581-.307-.026-.016-.067-.046-.065-.065.025-.2-.1-.362-.1-.565a1.919,1.919,0,0,0,0-.505c-.02-.077-.025-.114.042-.115s.1-.154.177-.081-.04.127-.061.192a.2.2,0,0,0,.018.2.106.106,0,0,0,.131.029l.414,0ZM537.234,566.471Z" transform="translate(-436.277 -466.545)" fill="#c29c04"/>
    <path id="路径_2601" data-name="路径 2601" d="M505.972,532.438a.609.609,0,0,1-.309-.586A.586.586,0,0,1,506,531.3a.5.5,0,0,1,.643.244.665.665,0,0,1-.247.894A.476.476,0,0,1,505.972,532.438Z" transform="translate(-405.767 -433.468)" fill="#0359b7"/>
    <path id="路径_2602" data-name="路径 2602" d="M454.235,470.459c-.414,0-1.1.02-1.091-.1a8.821,8.821,0,0,1,.218-1.874,1.542,1.542,0,0,1,1.108.028c.066.082.373,1.136.019,1.505" transform="translate(-354.614 -372.241)" fill="#6d5f03"/>
    <path id="路径_2603" data-name="路径 2603" d="M497.89,572.118c-.05.082-.146.081-.22.123-.079-.014-.059-.077-.059-.127q0-.981,0-1.962c0-.051-.014-.112.066-.122a1.3,1.3,0,0,1,.16.869c0,.36,0,.721,0,1.082,0,.053-.009.108.053.137Z" transform="translate(-397.923 -471.233)" fill="#c2ab00"/>
    <path id="路径_2604" data-name="路径 2604" d="M517.073,589.78a.386.386,0,0,1-.061-.209c0-.307-.007-.614-.007-.921,0-.06-.033-.147.085-.147a.125.125,0,0,1,.144.146,6.9,6.9,0,0,1-.013.713.8.8,0,0,0,.01.156.264.264,0,0,1-.112.276.048.048,0,0,1-.045-.014Z" transform="translate(-416.811 -489.225)" fill="#bba501"/>
    <path id="路径_2605" data-name="路径 2605" d="M581.958,473.408a.113.113,0,0,1-.029-.069.989.989,0,0,1,.012-.411.883.883,0,0,0,.182-.135c.045.073.091.1.178.043.046-.032.128-.073.175-.019a.147.147,0,0,1-.02.2.554.554,0,0,0-.075.667.231.231,0,0,1-.129.288c-.184.1-.185.1-.069.273.051.074.02.128-.031.182a1.494,1.494,0,0,1-.16-.268c-.065-.114.048-.164.108-.229-.121-.038-.121-.038-.131-.129" transform="translate(-480.034 -376.523)" fill="#b57e96"/>
    <path id="路径_2606" data-name="路径 2606" d="M567.173,501.046c.04.115.168.03.238.1a.906.906,0,0,0-.141.1c-.058.059-.072.1-.008.17a.351.351,0,0,1,.1.242l-.01.215c-.107.03-.167-.072-.257-.09-.049-.12.078-.1.126-.161-.055-.067-.235.062-.211-.125a.206.206,0,0,1-.014-.151c.036-.217.035-.221-.182-.238l-.029-.088c-.038-.063-.093-.126-.025-.2a.27.27,0,0,1,.294-.054.317.317,0,0,1,.117.28Z" transform="translate(-465.246 -403.752)" fill="#e173a5"/>
    <path id="路径_2607" data-name="路径 2607" d="M560.163,474.657q0,.206,0,.412c-.135.189-.209.2-.414.08q-.075-.045-.153-.082c-.055-.026-.084-.065-.036-.124.056-.011.125.012.154-.064s.1-.15.137-.242c.025-.067.165-.06.257-.071.037.018.075.036.055.089Z" transform="translate(-458.238 -378.253)" fill="#e56fa5"/>
    <path id="路径_2608" data-name="路径 2608" d="M539.105,474.835l-.007,0a.178.178,0,0,1-.191-.111c-.012-.023-.024-.062-.039-.064-.134-.015-.154-.047-.12-.2.023-.1-.009-.153.117-.121.029.007.049-.012.069-.031s.055-.075.1-.036a.076.076,0,0,1,.018.1c-.053.087.027.134.051.2" transform="translate(-437.978 -377.955)" fill="#aa7489"/>
    <path id="路径_2609" data-name="路径 2609" d="M558.6,515.7c-.044.01-.052.042-.057.083-.029.237-.029.237-.257.175a.167.167,0,0,1-.13-.082c-.028-.06-.053-.133.067-.109h0c.115.06.128-.008.115-.1-.009-.062-.045-.134.028-.171a.268.268,0,0,1,.231-.011c.13.062.019.14,0,.211Z" transform="translate(-456.872 -418.086)" fill="#e173a5"/>
    <path id="路径_2610" data-name="路径 2610" d="M558.5,466.156c-.071,0-.12.1-.2.044a.02.02,0,0,0-.028.023c.043.139-.08.164-.152.224-.031-.071-.108-.079-.163-.116-.034-.024-.069-.055-.056-.1s.054-.035.09-.043c.166-.036.342-.063.385-.274.041.083.088.162.127.247Z" transform="translate(-456.639 -369.821)" fill="#a96571"/>
    <path id="路径_2611" data-name="路径 2611" d="M541.723,501.431l-.03.107c-.02.07-.039.073-.109.032-.131-.076-.123-.192-.127-.308,0-.064.056-.055.1-.052.068,0,.136.017.2.027.021.044-.011.069-.04.087-.065.042-.027.073.006.107Z" transform="translate(-440.632 -404.201)" fill="#a67c8d"/>
    <path id="路径_2612" data-name="路径 2612" d="M554.042,523.38c-.088.025-.075.072-.019.116.029.023.081.02.082.075-.087.159-.064.128-.2.03s-.024-.188-.034-.279c0-.036.044-.037.076-.038.066,0,.1.026.091.1Z" transform="translate(-452.691 -425.703)" fill="#ac6986"/>
    <path id="路径_2613" data-name="路径 2613" d="M547.154,500.452c-.043-.007-.105.024-.119-.042s.039-.077.088-.089a.094.094,0,0,0,.065-.063l.028-.026c.081.042.157-.076.241-.006.02.017.07,0,.066.046s-.036.046-.069.052a.421.421,0,0,0-.268.121l-.032.008Z" transform="translate(-446.063 -403.222)" fill="#db6d9f"/>
    <path id="路径_2614" data-name="路径 2614" d="M545,483.8c-.085-.067-.089-.194-.185-.253-.026-.016-.039-.036-.02-.064s.048-.015.066,0a.148.148,0,0,0,.141.054c.022.035.088-.007.094.055a.225.225,0,0,0,0,.077c.017.039.079.062.041.119s-.095,0-.142.008Z" transform="translate(-443.871 -386.921)" fill="#dd6da0"/>
    <path id="路径_2615" data-name="路径 2615" d="M580.574,540.091c.116-.056.164.082.257.09,0,.049-.014.119-.069.09-.075-.039-.232-.012-.188-.18Z" transform="translate(-478.723 -442.06)" fill="#8b5765"/>
    <path id="路径_2616" data-name="路径 2616" d="M486.743,382.9c-.013-.013-.018-.041-.042-.034s-.008.027-.009.042c-.09.18-.237.211-.416.09-.057-.124.038-.146.118-.179a.146.146,0,0,0,.1-.117c-.019-.075-.08-.066-.134-.069-.037,0-.087.015-.085-.052-.016-.093-.129-.138-.1-.267a.4.4,0,0,1,.1-.207,1.252,1.252,0,0,1,.648-.166c.118.008.1.085.076.158s-.029.128.053.171c.132.07-.051.142,0,.215-.005.089-.084.055-.129.078-.06.03-.149.044-.1.148a.4.4,0,0,0,.268.053c.068.042.05.108.047.169l-.031.035-.363-.067Z" transform="translate(-386.78 -288.031)" fill="#a91718"/>
    <path id="路径_2617" data-name="路径 2617" d="M529.16,383.658c-.144-.064-.171-.176-.068-.3a.185.185,0,0,0,.035-.15c-.015-.125.044-.164.158-.149a.538.538,0,0,1,.487.123c.023.054.1.015.121.064.075.315.075.315-.221.479-.091.05-.105.1,0,.157l.043.017c.07.029.206-.009.151.148-.062.136-.183.1-.289.092s-.112-.081-.123-.157c-.007-.017,0-.048-.024-.048s-.023.03-.036.045c-.008.072-.083.1-.1.164h0a.267.267,0,0,1-.29-.158c-.024-.052-.021-.1.036-.123a.292.292,0,0,1,.062-.012c.062-.008.144,0,.167-.063s-.085-.065-.1-.122Z" transform="translate(-428.481 -289.111)" fill="#aa1819"/>
    <path id="路径_2618" data-name="路径 2618" d="M443.615,392.075a.221.221,0,0,1,.088-.223.251.251,0,0,1,.289-.105.461.461,0,0,0,.185-.014c.15-.03.291-.024.362.146.012.011.035.025.032.033-.039.118-.023.255-.124.35-.071.092-.038.135.067.142a.336.336,0,0,1,.111,0,.1.1,0,0,1,.011.181c-.125.136-.158.134-.388-.028-.046.052,0,.157-.1.178a.169.169,0,0,1-.157-.054l-.019-.065c-.22-.029-.265-.122-.331-.311l-.028-.235Z" transform="translate(-345.33 -297.56)" fill="#aa1719"/>
    <path id="路径_2619" data-name="路径 2619" d="M568.759,392.722c-.163.1-.242.095-.357-.03-.027-.175-.026-.179.131-.137.053.014.075-.023.11-.037a.329.329,0,0,1,.038-.019c.075-.04.025-.093-.007-.107-.138-.059-.164-.192-.218-.307a.136.136,0,0,1,0-.045.084.084,0,0,1,.043-.05.254.254,0,0,1,.332-.151.514.514,0,0,0,.185.015.307.307,0,0,1,.344.139c.1.082.058.208.094.31.01.027-.223.182-.259.178a.73.73,0,0,0-.11-.012c-.054,0-.112.013-.129.073s.046.078.069.117.122.017.1.078a.175.175,0,0,1-.16.112c-.055,0-.121.025-.146-.057a.494.494,0,0,0-.035-.072c0-.009,0-.024-.008-.023s-.007.016-.013.025Z" transform="translate(-466.862 -297.666)" fill="#a91718"/>
    <path id="路径_2620" data-name="路径 2620" d="M483.474,442.934c.176.007.209.093-.035.145-.19,0-.9.05-.9.05-.373,0-.991-.044-1.031-.055-.2-.056-.239-.12.12-.192.165-.007.516-.053.911-.053l.933.105Z" transform="translate(-382.094 -347.34)" fill="#931b14"/>
    <path id="路径_2621" data-name="路径 2621" d="M482.805,368.657a.33.33,0,0,1,.207-.325,1.134,1.134,0,0,1,.595-.021.175.175,0,0,1,.037.325l-.838.02Z" transform="translate(-383.503 -274.732)" fill="#fac100"/>
    <path id="路径_2622" data-name="路径 2622" d="M444,368.131a2.575,2.575,0,0,0-.487-.123c-.025-.077-.147-.033-.159-.133-.016-.128-.032-.224.152-.257a.678.678,0,0,1,.647.145.254.254,0,0,1,.084.288c-.044.109-.152.073-.238.08Zm1.2.261a.985.985,0,0,0-.344-.139.459.459,0,0,0-.244-.056c-.135.007-.168-.095-.134-.174s.015-.236.188-.2a3.391,3.391,0,0,1,.427.105.368.368,0,0,1,.237.292c.023.1-.015.169-.131.168Zm-3.833-.14a1.12,1.12,0,0,0-.289.105c-.047,0-.11.06-.138-.015a.217.217,0,0,1,.019-.226.548.548,0,0,1,.407-.244.932.932,0,0,0,.139-.027c.242-.045.3.026.251.278-.016.077-.066.07-.118.071A.385.385,0,0,0,441.374,368.252Z" transform="translate(-342.712 -274.065)" fill="#f9bf00"/>
    <path id="路径_2623" data-name="路径 2623" d="M522.554,384.656c-.012.057,0,.128-.1.128-.076,0-.091-.043-.081-.1s.018-.149.109-.149C522.552,384.533,522.553,384.6,522.554,384.656Z" transform="translate(-422.04 -290.56)" fill="#b0aa83"/>
    <path id="路径_2624" data-name="路径 2624" d="M519.442,429.986c-.027.145-.36.145-.382,0,.049-.205.349-.149.382,0Z" transform="translate(-418.816 -334.704)" fill="#a71817"/>
    <path id="路径_2625" data-name="路径 2625" d="M549.03,434.295c-.042-.1-.062-.071,0-.134.1-.017.235-.031.283.078l-.03.051a.239.239,0,0,1-.254.006Z" transform="translate(-447.968 -338.886)" fill="#218957"/>
    <path id="路径_2626" data-name="路径 2626" d="M504.168,414.562c-.031-.026-.077-.047-.048-.1a.061.061,0,0,1,.053-.022c.061.017.059.064.045.113l-.051.008Z" transform="translate(-404.255 -319.69)" fill="#b87875"/>
    <path id="路径_2627" data-name="路径 2627" d="M544.314,413.805c-.011-.047-.022-.095.024-.13a.042.042,0,0,1,.04.007.086.086,0,0,1,0,.127l-.06,0Z" transform="translate(-443.404 -318.942)" fill="#b6827c"/>
    <path id="路径_2628" data-name="路径 2628" d="M524.21,378.568c-.038,0-.051-.03-.052-.063a.047.047,0,0,1,.046-.052c.033,0,.064.006.062.048a.068.068,0,0,1-.055.067Z" transform="translate(-423.781 -284.638)" fill="#b0aa83"/>
    <path id="路径_2629" data-name="路径 2629" d="M581.536,421.793c-.033-.041-.048-.083.009-.115a.056.056,0,0,1,.053.015c.038.051-.022.067-.041.1h-.021Z" transform="translate(-479.639 -326.737)" fill="#a36f6f"/>
    <path id="路径_2630" data-name="路径 2630" d="M645.37,482.615c.222.005.25.141.223.322a1.423,1.423,0,0,0,0,.207c0,.243-.017.26-.26.269l-.217-.01c0-.186,0-.371,0-.556,0-.252,0-.252.256-.231Z" transform="translate(-541.591 -386.083)" fill="#dadada"/>
    <path id="路径_2631" data-name="路径 2631" d="M661.153,519.3l-.056-.008c-.012-.036-.028-.072-.069-.078-.161-.023-.082-.124-.064-.2.026-.107.1-.08.172-.052s.1.048.067.127a1.289,1.289,0,0,0-.049.212Z" transform="translate(-556.995 -421.471)" fill="#c19405"/>
    <path id="路径_2632" data-name="路径 2632" d="M675.3,525.232a.8.8,0,0,1-.012.126.1.1,0,0,1-.047.058.068.068,0,0,1-.053-.017c0-.105-.16-.108-.139-.2a.178.178,0,0,1,.193-.109c.067.008.083.073.057.139Z" transform="translate(-570.752 -427.464)" fill="#c08e05"/>
    <path id="路径_2633" data-name="路径 2633" d="M623.388,517.487a.386.386,0,0,1-.208-.229.036.036,0,0,1,.027-.049.084.084,0,0,1,.1.025c.047.069.089.123.157.019a.029.029,0,0,1,.05.011.222.222,0,0,1-.037.148.106.106,0,0,1-.089.073Z" transform="translate(-520.225 -419.78)" fill="#bf8207"/>
    <path id="路径_2634" data-name="路径 2634" d="M652.241,517.554c-.031.065-.087.1-.081.165,0,.031,0,.07-.047.065s-.044-.038-.051-.071c-.028-.136.014-.177.178-.159Z" transform="translate(-548.351 -420.118)" fill="#c08d06"/>
    <path id="路径_2635" data-name="路径 2635" d="M640.111,517.407c.064.081.079.147.033.219a.043.043,0,0,1-.04,0c-.051-.067-.039-.134.007-.221Z" transform="translate(-536.68 -419.978)" fill="#c08a06"/>
    <path id="路径_2636" data-name="路径 2636" d="M645.567,575.643l-.367.013c-.069,0-.112-.018-.111-.1,0-.352,0-.7,0-1.054a.086.086,0,0,1,.057-.086,1.671,1.671,0,0,1,.393.168" transform="translate(-541.567 -475.507)" fill="#dadada"/>
    <path id="路径_2637" data-name="路径 2637" d="M662.719,581.691c0,.253,0,.253-.257.23a8.235,8.235,0,0,0-.027-1.057.61.61,0,0,1,.275.108l.008.719Z" transform="translate(-558.463 -481.785)" fill="#c2c0be"/>
    <path id="路径_2638" data-name="路径 2638" d="M381.126,580.4c-.477.021-.476.021-.478-.45,0-.168,0-.337-.006-.505.08-.087.206-.067.3-.13.21-.034.236-.016.24.189,0,.239,0,.478,0,.718A.234.234,0,0,1,381.126,580.4Z" transform="translate(-283.997 -480.267)" fill="#d9d9d9"/>
    <path id="路径_2639" data-name="路径 2639" d="M380.81,533.2c-.226.059-.232.053-.23-.187,0-.137,0-.273,0-.41s.049-.225.2-.23c.338-.039.342-.038.336.3,0,.135.039.277-.047.4l-.257.124Z" transform="translate(-283.938 -434.537)" fill="#d8d6d6"/>
    <path id="路径_2640" data-name="路径 2640" d="M392.236,576.067c0-.3-.007-.6.007-.9.008-.158-.048-.209-.194-.186a1.349,1.349,0,0,1,.317-.129.2.2,0,0,1,.048.162q0,.444,0,.888a.215.215,0,0,1-.045.164h-.133Z" transform="translate(-295.108 -475.931)" fill="#adacac"/>
    <path id="路径_2641" data-name="路径 2641" d="M491.239,434.083c-.082,0-.143.026-.241-.059a.215.215,0,0,1,.273-.084c.037.026-.013.114-.032.143Z" transform="translate(-391.484 -338.665)" fill="#1a895c"/>
    <path id="路径_2642" data-name="路径 2642" d="M382.2,484.431c-.094,0-.132-.04-.129-.134q.006-.278,0-.556c0-.083.032-.107.112-.112.337-.019.337-.021.337.314a1.269,1.269,0,0,0,0,.174.232.232,0,0,1-.16.284.238.238,0,0,1-.161.03Z" transform="translate(-285.39 -387.073)" fill="#d9d9d9"/>
    <path id="路径_2643" data-name="路径 2643" d="M372.933,520.341a.12.12,0,0,1,.109.051c.03.045.006.08-.03.11a.255.255,0,0,0-.045.043c-.028.039.019.151-.079.116s-.106-.147-.108-.231.093-.068.152-.089Z" transform="translate(-276.342 -422.836)" fill="#c08d06"/>
    <path id="路径_2644" data-name="路径 2644" d="M397.69,515.727c.039.109-.029.19-.08.272-.028.045-.075.069-.118.017s-.118-.13-.091-.207.08-.014.123.013C397.634,515.892,397.61,515.727,397.69,515.727Z" transform="translate(-300.315 -418.343)" fill="#b8710e"/>
    <path id="路径_2645" data-name="路径 2645" d="M386.08,517.965a.2.2,0,0,1-.149,0c-.1-.043-.091-.133-.087-.219,0-.031-.006-.078.033-.08.092,0,.064.093.1.138a1.325,1.325,0,0,1,.1.159Z" transform="translate(-289.063 -420.233)" fill="#bd7c09"/>
    <path id="路径_2646" data-name="路径 2646" d="M438.568,460.7c.011-.08.074-.062.124-.062.66,0,1.321,0,1.981,0,.107,0,.136.037.134.139,0,.453,0,.905,0,1.358,0,.078-.012.12-.1.144a3.177,3.177,0,0,0-.381.151c-.082.006-.128-.016-.125-.114a2.515,2.515,0,0,1,.053-.615c.03-.106.061-.233-.083-.323-.069-.043.068-.12.029-.194s-.113-.049-.174-.057c-.078-.01-.141-.02-.134-.132.008-.133-.1-.143-.2-.147s-.164.037-.148.152a.1.1,0,0,1-.04.1c-.091.05-.2-.021-.29.052a.3.3,0,0,0,.014.156c.028.056,0,.074-.05.106a.183.183,0,0,0-.058.275.5.5,0,0,1,.089.372c0,.122,0,.244,0,.366-.219-.029-.142.134-.157.24-.018.127.045.156.157.148s.213,0,.319,0c.142.066.292.016.437.032.059.006.133-.023.142.08a.138.138,0,0,1-.112.166,1.068,1.068,0,0,1-.266.042c-.324,0-.649-.005-.973,0-.137,0-.19-.039-.186-.181.008-.281,0-.563,0-.845q0-.7,0-1.4Z" transform="translate(-340.414 -364.679)" fill="#ab1519"/>
    <path id="路径_2647" data-name="路径 2647" d="M466.917,559.744l-.014-1.787c.216.023.224.031.224.236v2.121c0,.037,0,.075,0,.112s-.02.08-.074.081-.084-.031-.083-.088c0-.181,0-.362,0-.542,0-.047.029-.112-.049-.133Z" transform="translate(-368.016 -459.474)" fill="#9e1717"/>
    <path id="路径_2648" data-name="路径 2648" d="M487.455,560.23l-.064.035c-.173.019-.175.019-.175-.142q0-1.133,0-2.266a.233.233,0,0,1,.046-.18c.123-.023.166.023.165.152-.005.717,0,1.434,0,2.151a.87.87,0,0,0,.032.25Z" transform="translate(-387.8 -459.195)" fill="#9f2115"/>
    <path id="路径_2649" data-name="路径 2649" d="M459.557,561.767a.172.172,0,0,1-.1-.174c0-.706,0-1.412,0-2.118,0-.027,0-.053,0-.08,0-.048.028-.084.079-.08s.047.05.047.086c0,.127-.008.256,0,.382.028.359,0,.717,0,1.076a.24.24,0,0,0,.064.2c0,.2,0,.4,0,.6,0,.067-.008.12-.095.1Z" transform="translate(-360.764 -460.796)" fill="#c4ad00"/>
    <path id="路径_2650" data-name="路径 2650" d="M476.2,531.315c0-.037,0-.075.009-.111.013-.075-.04-.188.089-.2.152-.014.207.05.212.216,0,.032.006.063.009.095A.368.368,0,0,1,476.2,531.315Z" transform="translate(-377.067 -433.22)" fill="#133dc3"/>
    <path id="路径_2651" data-name="路径 2651" d="M478.039,561.41q0-1.211,0-2.422c0-.072-.007-.14.1-.136s.089.07.089.133q0,1.227,0,2.454l-.089.014-.1-.043Z" transform="translate(-378.859 -460.345)" fill="#c3b000"/>
    <path id="路径_2652" data-name="路径 2652" d="M510.162,655.2c.057.139.124.027.187.007a1.478,1.478,0,0,1,.222.01c.073.014.083.062.023.112a.259.259,0,0,1-.16.064c-.121,0-.253-.058-.34.09-.014.024-.053-.084-.067-.113s-.133.067-.3.063c-.073-.02-.149-.152-.013-.207.068,0,.354.049.346-.021a.087.087,0,0,1,.1-.005Z" transform="translate(-409.64 -554.177)" fill="#2a6355"/>
    <path id="路径_2653" data-name="路径 2653" d="M521.873,357.554c-.046-.13.064-.1.127-.127l.031,0c.068.075.078.128-.048.129-.036,0-.073,0-.109,0Z" transform="translate(-421.545 -264.159)" fill="#1f63a5"/>
    <path id="路径_2654" data-name="路径 2654" d="M454.087,412.434a.353.353,0,0,1,.047,0c.06.005.154-.017.156.059s-.023.169-.137.17a.142.142,0,0,1-.153-.091c-.027-.077.056-.091.087-.136Z" transform="translate(-355.443 -317.733)" fill="#a68503"/>
    <path id="路径_2655" data-name="路径 2655" d="M550.96,611.209a.228.228,0,0,1-.031.139.207.207,0,0,0,0,.263.219.219,0,0,1,.028.137c0,.048,0,.1-.052.122a.1.1,0,0,1-.129-.032.347.347,0,0,0-.175-.1c-.052-.019-.12-.016-.125-.1s.017-.178.093-.2a.323.323,0,0,0,.256-.26c.005-.031.049-.094.1-.076s.021.074.03.11Z" transform="translate(-449.415 -511.231)" fill="#ad1e17"/>
    <path id="路径_2656" data-name="路径 2656" d="M572.666,611.139c.112.05.031.2.119.253s.2.053.266.134a.152.152,0,0,1-.072.253.647.647,0,0,0-.2.091c-.107.074-.2.032-.162-.076a2.25,2.25,0,0,0,.032-.645s.008,0,.018-.01Z" transform="translate(-470.97 -511.272)" fill="#ad1d17"/>
    <path id="路径_2657" data-name="路径 2657" d="M575.916,578.088a.412.412,0,0,1,.2-.171.2.2,0,0,0,.165-.205c0-.053.04-.084.071-.12s.059-.113.118-.076-.014.082-.021.125c-.014.088-.036.177.041.252.049.047.025.1,0,.144s-.087.1-.127.072c-.152-.12-.292-.009-.436,0l-.01-.01,0-.014Z" transform="translate(-474.19 -478.515)" fill="#ad1f17"/>
    <path id="路径_2658" data-name="路径 2658" d="M573.086,572.4c-.049.107-.1.206-.214.242a.2.2,0,0,0-.166.2c0,.056-.039.125-.11.1-.056-.022-.052-.093-.02-.139a.3.3,0,0,0,.017-.286c-.031-.1.048-.171.131-.119a.364.364,0,0,0,.362,0Z" transform="translate(-470.918 -473.52)" fill="#ae2117"/>
    <path id="路径_2659" data-name="路径 2659" d="M544.31,605.6a.735.735,0,0,0,.405-.005l0,0a.283.283,0,0,1-.139.146.3.3,0,0,0-.229.266.1.1,0,0,1-.132.084c-.065-.024-.049-.087-.035-.138s.047-.12,0-.179l.135-.172Z" transform="translate(-443.269 -505.867)" fill="#ad2017"/>
    <path id="路径_2660" data-name="路径 2660" d="M578.585,605.661a.369.369,0,0,0-.04.352c.008.026-.022.046-.052.047-.062,0-.118-.034-.119-.084a.3.3,0,0,0-.248-.3c-.036-.013-.088-.047-.07-.092s.072-.009.109,0a.7.7,0,0,0,.25-.025C578.491,605.54,578.569,605.547,578.585,605.661Z" transform="translate(-476.275 -505.829)" fill="#ae2217"/>
    <path id="路径_2661" data-name="路径 2661" d="M565.508,597.579a.089.089,0,0,0,.007.024c-.019.2-.084.233-.288.125l0,0V597.6l0,0c.087-.085.177-.13.28-.025Z" transform="translate(-463.783 -498.006)" fill="#368f53"/>
    <path id="路径_2662" data-name="路径 2662" d="M466.734,507.545a.446.446,0,0,1,.076.2c0,.105-.032.158-.139.153-.167-.034-.083-.164-.091-.253C466.572,507.538,466.657,507.54,466.734,507.545Z" transform="translate(-367.687 -410.371)" fill="#183b9f"/>
    <path id="路径_2663" data-name="路径 2663" d="M489.121,508.739l-.119-.01c0-.063-.009-.125-.011-.188s.016-.127.1-.132a.118.118,0,0,1,.137.1c0,.086.02.2-.106.228Z" transform="translate(-389.529 -411.214)" fill="#0c34ab"/>
    <path id="路径_2664" data-name="路径 2664" d="M491.906,490.094c-.066,0-.085-.048-.086-.095s0-.118.058-.129.1.045.111.108-.032.094-.083.116Z" transform="translate(-392.284 -393.156)" fill="#9f8d00"/>
    <path id="路径_2665" data-name="路径 2665" d="M466.961,489.421a.122.122,0,0,1,.1.1c.006.046.013.1-.054.109s-.069-.036-.07-.081S466.925,489.457,466.961,489.421Z" transform="translate(-368.045 -392.72)" fill="#a18f00"/>
    <path id="路径_2666" data-name="路径 2666" d="M479.433,492.539c.036,0,.065.014.064.052s-.013.091-.063.091-.051-.047-.056-.083.017-.058.054-.06Z" transform="translate(-380.166 -395.757)" fill="#ad9900"/>
    <path id="路径_2667" data-name="路径 2667" d="M530.265,541.793c.024.021.05.034.061.054.036.069.111.167.088.2a.618.618,0,0,0-.1.194c0,.012-.047.028-.069.023-.125-.027-.119-.161-.136-.236s.075-.172.157-.24Z" transform="translate(-429.574 -443.731)" fill="#918d1a"/>
    <path id="路径_2668" data-name="路径 2668" d="M520.73,557.711c.064.042.076.134.114.2.055.095-.058.184-.1.27-.021.039-.106.012-.117-.033-.021-.09-.141-.186-.007-.276.04-.027.039-.058.045-.093S520.675,557.715,520.73,557.711Z" transform="translate(-420.271 -459.235)" fill="#898314"/>
    <path id="路径_2669" data-name="路径 2669" d="M512.827,537.348c0,.183,0,.437-.142.426-.068-.005-.059-.085-.089-.11-.174-.145.143-.452.231-.316" transform="translate(-412.47 -439.368)" fill="#657234"/>
    <path id="路径_2670" data-name="路径 2670" d="M518.247,644.379c-.047.061-.264.055-.4.038-.081-.01-.1-.186-.022-.212a.652.652,0,0,1,.408-.038c.028.09.067.129.019.212Z" transform="translate(-417.559 -543.427)" fill="#d6b37c"/>
    <path id="路径_2671" data-name="路径 2671" d="M524.59,643.968a.407.407,0,0,1,.022-.261c.053-.014.063.037.092.061.062.081.028.166.01.25l-.1.005-.021-.055Z" transform="translate(-424.191 -542.991)" fill="#822c24"/>
    <path id="路径_2672" data-name="路径 2672" d="M580.025,479.7c.054-.041.058-.111.094-.162.11-.033.111-.115.085-.2a.226.226,0,0,1,0-.17.109.109,0,0,1,.13-.069c.067.019.042.072.033.119a1.235,1.235,0,0,0,.009.473c.05.278.014.31-.249.265a.83.83,0,0,1-.1-.253Z" transform="translate(-478.195 -382.66)" fill="#d7d4d5"/>
    <path id="路径_2673" data-name="路径 2673" d="M562.6,408.4c-.016,0-.032,0-.047,0-.082,0-.155-.007-.14-.117a.078.078,0,0,1,.117-.067c.063.035.175.063.1.182l-.028,0Z" transform="translate(-461.041 -313.62)" fill="#b08d03"/>
    <path id="路径_2674" data-name="路径 2674" d="M522.322,408.294c0-.02,0-.04,0-.06.044,0,.088-.054.132,0a.047.047,0,0,1-.006.07c-.046.044-.088.015-.13-.008Z" transform="translate(-421.993 -313.621)" fill="#a91718"/>
  </g>
</svg>
