<svg id="意大利国旗" xmlns="http://www.w3.org/2000/svg" width="22" height="22.001" viewBox="0 0 22 22.001">
  <path id="路径_2678" data-name="路径 2678" d="M22,11A11,11,0,1,1,11,0,11,11,0,0,1,22,11Z"/>
  <path id="路径_2679" data-name="路径 2679" d="M6.717,62.582a10.854,10.854,0,0,0,6.333,9.866V52.714A10.857,10.857,0,0,0,6.717,62.582Z" transform="translate(-6.572 -51.581)" fill="#008d46"/>
  <path id="路径_2680" data-name="路径 2680" d="M728.825,62.582a10.855,10.855,0,0,0-6.333-9.869V72.449A10.852,10.852,0,0,0,728.825,62.582Z" transform="translate(-706.969 -51.581)" fill="#d2232c"/>
  <path id="路径_2681" data-name="路径 2681" d="M306,6.77a10.8,10.8,0,0,0-4.522.987V27.492a10.838,10.838,0,0,0,9.046,0V7.757A10.8,10.8,0,0,0,306,6.77Z" transform="translate(-295.002 -6.624)" fill="#fff"/>
</svg>
