<svg id="icon_event_pkgoal" viewBox="0 0 1024 1024" width="100%" height="100%" xmlns="http://www.w3.org/2000/svg"><path d="M493.184 910.59712c-228.49536 0-413.73184-182.79936-413.73184-408.30464 0-225.4848 185.23648-408.27904 413.73184-408.27904 191.81056 0 352.70656 129.03936 399.5136 303.81568l7.88992 11.24864v24.60672c3.8656 22.36416 6.31296 45.16352 6.31296 68.608 0.00512 225.50016-185.23648 408.30464-413.71648 408.30464z m0-31.18592c42.19392 0 82.68288-7.01952 120.64256-19.5072l-82.0736-36.31104 20.34688 9.00096-268.8768-64.51712-58.83904-4.95104-30.48448-33.3824-8.66816-4.82816c69.55008 93.52704 181.39136 154.496 307.95264 154.496z m-232.02816-140.95872l255.35488 62.53056 39.26016-50.83136-116.15232-220.14976-111.5392-15.72352-109.3632 184.42752 42.43968 39.74656z m311.16288-7.9104l141.0304 3.7632 96.72192-214.87616-44.76928-94.6688H508.83072L456.18176 510.48448l116.13696 220.0576z m-391.28064-14.8736l-9.13408-10.02496c2.62656 4.04992 5.12 8.16128 7.91552 12.09856l1.21856-2.0736z m-11.9296-412.88704c-36.74112 57.85088-58.07104 126.17728-58.07104 199.51104 0 53.85216 11.74528 104.86784 32.4096 151.15776l56.448 30.44864 104.6784-176.54784-4.56704-76.82048-128.61952-109.69088-2.2784-18.05824z m10.69056-15.46752L297.7792 393.28768l-0.9216-15.55968 38.4-29.34272c28.02176-52.23424 87.68-161.42848 128.16384-221.696a382.70464 382.70464 0 0 0-283.6224 160.62464zM610.85696 143.872l-116.02944 1.75104-6.29248-5.62176-100.13184 167.7824 31.5904-24.13568 103.2704 117.58592h247.97696l53.13024-86.3744c-46.83264-80.32768-122.73152-141.92128-213.51424-170.98752z m218.75712 390.05696l-108.91776 242.0224 3.13344 26.92608-80.75776 46.336c127.80032-53.8624 219.81696-174.4128 231.04512-317.38368l-44.50304 2.0992z" fill="#333333"></path><path d="M702.02368 693.06368m-243.06176 0a243.06176 243.06176 0 1 0 486.12352 0 243.06176 243.06176 0 1 0-486.12352 0Z" fill="#62AE87"></path><path d="M512.74752 805.7344v-222.32576h83.86048c14.76096 0 26.0352 0.71168 33.8176 2.11968 10.91584 1.82272 20.06528 5.28384 27.44832 10.3936 7.3728 5.09952 13.31712 12.25728 17.8176 21.4528 4.49536 9.20064 6.74816 19.31264 6.74816 30.336 0 18.90304-6.02112 34.89792-18.048 47.99488s-33.77152 19.6352-65.20832 19.6352h-57.02144v90.38848h-29.4144z m29.42464-116.62336h57.47712c19.00544 0 32.50688-3.5328 40.48896-10.61376 7.99232-7.07072 11.97568-17.03424 11.97568-29.8752 0-9.2928-2.35008-17.25952-7.04512-23.8848-4.70528-6.61504-10.89536-10.99264-18.58048-13.11744-4.95616-1.31584-14.1056-1.97632-27.44832-1.97632h-56.86272v79.46752zM718.6944 805.7344v-222.32576h29.41952v110.25408l110.40256-110.25408h39.88992l-93.27104 90.0864 97.36704 132.23936h-38.82496l-79.16544-112.53248-36.39296 35.48672v77.04576h-29.42464z" fill="#FFFFFF"></path></svg>