<svg id="icon_event_goal" viewBox="0 0 1024 1024" width="100%" height="100%" xmlns="http://www.w3.org/2000/svg"><path d="M512.01024 935.08096c-236.7744 0-428.71296-189.41952-428.71296-423.09632 0-233.6512 191.94368-423.0656 428.71296-423.0656 198.74816 0 365.47584 133.71392 413.9776 314.81856l4.41856 17.6128 3.75296 19.53792c3.9936 23.17312 6.53312 46.7968 6.53312 71.0912 0.01536 233.67168-191.92832 423.10144-428.68224 423.10144z m0-32.32256c43.7248 0 85.67808-7.28064 125.01504-20.20864l-85.05344-37.632 21.08928 9.32352-278.61504-66.85184-60.96896-5.13536-31.5904-34.60096-8.98048-5.00224c72.06912 96.92672 187.96032 160.10752 319.104 160.10752z m-240.4352-146.06336l264.60672 64.7936 40.67328-52.66944-120.35584-228.1216-115.57376-16.30208-113.32608 191.104 43.97568 41.19552z m322.43712-8.19712l146.14016 3.90144 100.21888-222.65344-46.39232-98.0992h-265.75872l-54.5536 88.832 120.3456 228.0192z m-405.4528-15.40608l-9.46688-10.37824c2.71872 4.18816 5.30944 8.448 8.20224 12.52864l1.26464-2.1504z m-12.35968-427.84256c-38.07232 59.94496-60.17024 130.74944-60.17024 206.73536 0 55.80288 12.17024 108.66688 33.58208 156.63616l58.49088 31.54944 108.4672-182.9376-4.73088-79.60064-133.27872-113.664-2.36032-18.71872z m11.07968-16.0256l122.25024 109.80864-0.95744-16.12288 39.79264-30.40256c29.03552-54.12352 90.8544-167.27552 132.80256-229.72416a396.544 396.544 0 0 0-293.888 166.44096z m446.65856-148.63872l-120.22784 1.81248-6.51776-5.82656-103.76192 173.86496 32.73728-25.0112 107.01312 121.84576h256.96256l55.05024-89.50272c-48.53248-83.23584-127.18592-147.06176-221.25568-177.18272z m226.688 404.18304l-112.86016 250.7776 3.24608 27.904-83.6864 48.00512c132.42368-55.808 227.77856-180.72576 239.41632-328.86784l-46.11584 2.18112z" fill="#ccc"></path></svg>