<svg id="icon_event_start" viewBox="0 0 1024 1024" width="100%" height="100%" xmlns="http://www.w3.org/2000/svg"><path d="M850.55488 731.22304c-13.70112 74.79296-98.39616 220.17024-262.01088 203.99104-362.25024-35.81952-229.09952-429.17888-229.09952-429.17888L54.00064 329.32352l50.90304-126.22848s96.54272 34.71872 214.66112 77.09696c11.87328 4.26496 2.19136 44.74368 14.42304 49.1264 6.05184 2.16576 24.00256 26.16832 50.90816 25.23648 17.32096-0.59904 46.96064-26.65472 50.90304-25.23648 156.83584 56.20224 218.112 72.99584 247.05024 82.5344 169.71776 86.30272 186.9056 214.57408 167.7056 319.37024z m-254.4896-255.1552c-105.73824 0-191.45216 86.02624-191.45216 192.12288 0 106.10688 85.7088 192.12288 191.45216 192.12288 105.74336 0 191.46752-86.02112 191.46752-192.12288-0.00512-106.09152-85.72416-192.12288-191.46752-192.12288z" fill="#BBBBBB"></path><path d="M601.25696 531.29216c77.32224 0 139.99616 62.16704 139.99616 138.8544 0 76.68736-62.67392 138.84928-139.99616 138.84928-77.30688 0-139.98592-62.16704-139.98592-138.84928-0.00512-76.69248 62.67904-138.8544 139.98592-138.8544zM879.95392 894.83264c-49.64864 0-90.05568-39.57248-90.05568-88.21248 0-48.62976 40.40704-88.20224 90.05568-88.20224 49.64352 0 90.04032 39.57248 90.04032 88.20224 0 48.64512-40.39168 88.21248-90.04032 88.21248z m0-130.19136c-24.17664 0-43.83232 18.8416-43.83232 41.97888 0 23.15264 19.66592 41.99424 43.83232 41.99424 24.15104 0 43.82208-18.8416 43.82208-41.99424 0-23.1424-19.67104-41.97888-43.82208-41.97888zM339.16416 287.60064a23.11168 23.11168 0 0 1-22.83008-19.73248l-25.59488-173.21472a23.11168 23.11168 0 0 1 45.72672-6.75328l25.59488 173.21472a23.1168 23.1168 0 0 1-22.89664 26.48576zM457.16992 323.39968a23.12192 23.12192 0 0 1-21.66784-15.06816 23.10656 23.10656 0 0 1 13.61408-29.71136l186.09152-69.18656a23.10656 23.10656 0 0 1 16.11264 43.32032L465.20832 321.9456a23.02464 23.02464 0 0 1-8.0384 1.45408zM412.71808 293.30944a23.11168 23.11168 0 0 1-20.21376-34.28352l94.3616-170.97216a23.0912 23.0912 0 0 1 31.39584-9.06752 23.10144 23.10144 0 0 1 9.07776 31.40096L432.9728 281.36448a23.10144 23.10144 0 0 1-20.25472 11.94496z" fill="#BBBBBB"></path></svg>