<svg id="icon_event_placekick" viewBox="0 0 1024 1024" width="100%" height="100%" xmlns="http://www.w3.org/2000/svg"><path d="M0 532.30592v433.33632h1024v-444.6976c0-0.00512-378.48064-255.744-1024 11.36128z" fill="#64B78D"></path><path d="M317.75744 688.10752l235.84768-235.36128s255.73888-46.4384 447.5392 235.36128H317.75744z" fill="#549373"></path><path d="M334.9504 60.61568c-130.64704 0-236.55936 105.91232-236.55936 236.55936 0 172.6208 249.19552 382.8992 249.19552 382.8992s213.11488-194.64704 223.91808-382.8992c7.49056-130.43712-105.90208-236.55936-236.55424-236.55936z m3.40992 366.55616c-72.58112 0-131.42016-58.83904-131.42016-131.42016 0-72.58112 58.83904-131.42016 131.42016-131.42016 72.58112 0 131.42016 58.83904 131.42016 131.42016 0 72.58112-58.83904 131.42016-131.42016 131.42016z" fill="#EEB342"></path></svg>