<svg id="icon_event_goalkick" viewBox="0 0 1024 1024" width="100%" height="100%" xmlns="http://www.w3.org/2000/svg"><path d="M0 882.1504h1024V289.3056S540.34432-45.20448 0 317.46048v564.68992z" fill="#64B78D"></path><path d="M631.26016 882.67264l-45.6704-6.15936 16.56832-122.86976-464.59904-88.09984-98.68288 145.77664-38.15936-25.8304 115.6608-170.86464 537.28256 101.888z" fill="#FFFFFF"></path><path d="M906.39872 308.83328S315.3408-55.66464 170.0096 717.2608l112.04608 5.65248S389.22752 51.5072 906.39872 308.83328z" fill="#FFFFFF"></path><path d="M220.11392 728.48384c27.99616 0 50.69824 11.56096 50.69824 25.81504 0 14.2592-22.70208 25.82016-50.69824 25.82016-27.99616 0-50.69312-11.56096-50.69312-25.82016 0-14.25408 22.69696-25.81504 50.69312-25.81504m0-30.72c-47.17568 0-81.41312 23.77728-81.41312 56.53504s34.24256 56.54016 81.41312 56.54016c47.17568 0 81.41824-23.7824 81.41824-56.54016s-34.23744-56.53504-81.41824-56.53504z" fill="#FFFFFF"></path></svg>